<?xml version="1.0" encoding="UTF-8"?> <svg xmlns="http://www.w3.org/2000/svg" width="719" height="225" viewBox="0 0 719 225" fill="none"><path fill-rule="evenodd" clip-rule="evenodd" d="M198.1 79C191.5 63 180.3 49.4 165.9 39.7C151.5 30.2 134.6 25 117.3 25C94.0998 25.1 71.8998 34.3 55.4998 50.7C39.0998 67.1 29.8998 89.3 29.7998 112.5C29.7998 129.8 34.8998 146.7 44.4998 161.1C54.0998 175.5 67.7998 186.7 83.7998 193.3C99.7998 199.9 117.4 201.7 134.3 198.3C151.3 194.9 166.9 186.6 179.1 174.4C191.3 162.2 199.7 146.6 203 129.6C206.5 112.6 204.8 95 198.1 79ZM179.9 126.3L160 161.7L124.7 126.5L137.3 173.5L96.5998 173.4L109 126L74.7998 160.5L53.6998 125.8L102.1 112.1L54.4998 99.3L74.2998 63.8L110.2 99.3L98.3998 51.4H139.1L125.8 99.2L160.3 65.1L181.1 100.1L132.8 113.2L179.9 126.3Z" fill="#6FC200"></path><path fill-rule="evenodd" clip-rule="evenodd" d="M338.6 46.7H250.6V123.5H338.6V96.6H292.7V75.9H366.1V117.5C366.1 128.6 364 136.1 359.8 140.1C355.6 144.1 347.6 146.1 336 146.1H252.4C240.6 146.1 232.7 144.1 228.5 140.1C224.4 136.1 222.2 128.6 222.2 117.5V53.8C222.2 42.8 224.3 35.3 228.5 31.2C232.7 27.1 240.6 25.1 252.4 25.1H336C347.6 25.1 355.5 27.1 359.7 31C363.9 34.9 366 42.2 366 52.6V55.4L338.6 60.1V46.7ZM383.7 146.2V25H402.9L488.2 96.4C491.1 98.8 493.6 101 495.8 103.1C498 105.1 500 107.2 501.9 109.4C501.5 102.6 501.1 97.8 501 95C500.8 92.2 500.8 90 500.8 88.5V25H526.2V146.1H507L418 71.4C415.8 69.5 414 67.8 412.4 66.2C410.8 64.7 409.3 63.1 407.9 61.5C408.2 65.2 408.6 68.8 408.8 72.1C409 75.4 409.1 78.4 409.1 80.8V146.2H383.7ZM651.3 46.2H572V72.2H647.4C659.3 72.2 667.3 74.2 671.4 78.3C675.5 82.3 677.7 89.9 677.7 100.9V117.5C677.7 128.5 675.6 136 671.4 140.1C667.1 144.2 659.3 146.2 647.4 146.2H572.6C560.7 146.2 552.7 144.2 548.6 140.1C544.4 136 542.3 128.5 542.3 117.5V114.2L567.2 109V123.5H652.8V95.9H577.4C565.6 95.9 557.7 93.8 553.5 89.8C549.3 85.8 547.3 78.2 547.3 67.2V53.8C547.3 42.8 549.4 35.3 553.5 31.2C557.6 27.1 565.6 25.1 577.4 25.1H646.1C657.5 25.1 665.3 27 669.7 30.9C674 34.8 676.1 41.7 676 51.7V54.2L651.3 60.1V46.2Z" fill="#6FC200"></path><path fill-rule="evenodd" clip-rule="evenodd" d="M268.5 168.5H242.3V191.3H268.5V183.3H254.8V177.2H276.7V189.6C277 192 276.3 194.5 274.8 196.4C272.7 197.8 270.2 198.5 267.7 198.2H242.8C240.3 198.5 237.8 197.9 235.7 196.4C234.2 194.5 233.5 192 233.8 189.6V171C233.5 168.6 234.2 166.1 235.7 164.2C237.8 162.8 240.3 162.2 242.8 162.4H267.7C270.2 162.1 272.7 162.7 274.7 164.2C275.4 165.1 276 166.1 276.3 167.2C276.6 168.3 276.7 169.5 276.6 170.6V171.4L268.4 172.8V168.8V168.5H268.5Z" fill="#6FC200"></path><path fill-rule="evenodd" clip-rule="evenodd" d="M361.7 185.2H366.4C368.6 185.4 370.8 184.8 372.6 183.5C373.3 182.8 373.8 182 374.2 181.1C374.5 180.2 374.7 179.2 374.6 178.2V168.7C374.7 167.7 374.6 166.7 374.2 165.8C373.9 164.9 373.3 164.1 372.6 163.4C370.8 162.1 368.6 161.5 366.4 161.7H335.6V197.7H343.9V185.2H351.8L366.3 198.8H378.3L361.7 185.2ZM344 178.1V168H362.6C363.6 167.9 364.7 168.1 365.6 168.6C365.9 168.9 366.1 169.2 366.3 169.6C366.4 170 366.5 170.4 366.5 170.8V175.2C366.5 175.6 366.5 176 366.3 176.4C366.2 176.8 365.9 177.1 365.6 177.4C364.7 177.9 363.7 178.1 362.6 178.1H344Z" fill="#6FC200"></path><path fill-rule="evenodd" clip-rule="evenodd" d="M655.499 185.2H660.199C662.399 185.4 664.599 184.8 666.399 183.5C667.099 182.8 667.599 182 667.999 181.1C668.299 180.2 668.499 179.2 668.399 178.2V168.7C668.499 167.7 668.399 166.7 667.999 165.8C667.699 164.9 667.099 164.1 666.399 163.4C664.599 162.1 662.399 161.5 660.199 161.7H629.399V197.7H637.699V185.2H645.599H655.499ZM637.799 178.1V168H656.399C657.399 167.9 658.499 168.1 659.399 168.6C659.699 168.9 659.899 169.2 660.099 169.6C660.199 170 660.299 170.4 660.299 170.8V175.2C660.299 175.6 660.299 176 660.099 176.4C659.999 176.8 659.699 177.1 659.399 177.4C658.499 177.9 657.499 178.1 656.399 178.1H637.799Z" fill="#6FC200"></path><path fill-rule="evenodd" clip-rule="evenodd" d="M472.7 171C473 168.6 472.3 166.1 470.8 164.2C468.7 162.8 466.2 162.2 463.7 162.4H437.3C434.8 162.2 432.2 162.8 430.1 164.2C428.6 166.1 428 168.6 428.3 171V189.6C428 192 428.6 194.4 430.1 196.3C432.2 197.7 434.7 198.4 437.3 198.1H463.7C466.2 198.4 468.7 197.8 470.8 196.3C472.3 194.4 472.9 192 472.7 189.6V171ZM464.7 191.7H436.8V168.9H464.7V191.7Z" fill="#6FC200"></path><path d="M572.3 162.4H563.8V191.7H538.9V162.4H530.5V189.6C530.2 192 530.8 194.4 532.3 196.3C534.4 197.7 536.9 198.4 539.5 198.1H563.1C565.6 198.4 568.1 197.8 570.2 196.3C571.7 194.4 572.3 192 572.1 189.6V171L572.3 162.4Z" fill="#6FC200"></path></svg>