<?xml version="1.0" encoding="UTF-8"?> <svg xmlns="http://www.w3.org/2000/svg" width="154" height="45" viewBox="0 0 154 45" fill="none"><path d="M28.6405 17.5219C28.6895 17.6855 28.898 18.1942 29.5173 18.17C30.1366 18.1397 30.4186 17.5583 30.4186 17.5583C30.8785 17.6855 31.1973 18.3093 31.2402 18.6242C31.4732 18.2911 31.6081 17.849 31.5897 17.4674C31.51 15.7413 29.6276 15.6201 29.6276 15.6201C29.9894 16.1471 29.2965 15.4082 28.4749 15.4506C27.6472 15.4869 26.9972 17.1464 26.9972 17.1464L22.4783 14.7359C22.3372 14.6632 22.3004 14.4875 22.3924 14.3604C22.8216 13.7789 22.9749 12.9915 22.9688 12.3011C22.9688 12.0104 23.0669 11.7257 23.2631 11.5137C23.9192 10.799 24.3361 10.1631 24.8512 9.99956C25.1271 10.9444 25.5011 11.6349 25.9487 11.8771C26.2553 12.0467 27.0585 11.968 27.1382 11.7439C26.3963 11.756 25.728 10.8112 26.0775 9.57559C26.4392 9.96322 26.9175 10.4175 27.3774 10.3932C27.7146 10.3751 27.8863 10.2539 27.9537 10.1752C28.1132 10.3448 28.2542 10.4235 28.6282 10.4417C29.0022 10.4599 29.7258 9.93899 29.5173 8.96387C29.4866 9.06683 29.0881 9.76941 28.4933 9.42418C28.5424 9.24853 28.481 8.91542 28.1745 8.77006C27.8679 8.61864 27.2731 8.53385 26.7152 8.67921C27.0585 8.06749 27.2793 7.9403 27.8188 7.66169C27.8495 7.80099 27.9353 8.02509 28.3462 8.00692C28.757 7.98875 29.1739 7.62535 29.2965 7.32252C29.5541 7.25589 30.0201 7.77677 30.0936 8.06749C30.1672 7.36491 29.922 6.5291 29.2107 6.38374C29.0513 6.22626 28.8857 5.95371 28.4872 5.97188C27.8924 5.99611 27.7269 6.47459 27.4939 6.66234C27.2793 6.83798 26.6293 6.95306 26.3595 6.71685C26.6048 6.36557 26.6293 6.21415 26.6722 5.94766C26.9359 5.99611 27.5552 5.94766 27.5245 5.23297C27.5061 4.87563 27.408 4.73027 27.2731 4.54857C27.3835 4.3063 27.592 4.10643 27.8863 4.09432C28.0518 4.08826 28.3155 4.167 28.481 4.27602C28.2971 3.97924 27.9353 3.55528 27.359 3.5795C27.2057 3.58556 26.942 3.62796 26.7581 3.79149C26.66 3.73092 25.636 3.88839 25.6728 4.63336C25.6789 4.79084 25.7035 5.03916 25.8261 5.10578C25.7648 5.52369 25.311 6.09302 24.8818 6.19598C24.7347 6.33528 24.2503 6.38374 24.0909 6.31106C24.2319 6.27472 24.5998 6.13541 24.5753 5.5782C24.5569 5.18452 24.3055 4.97254 24.1031 4.94831C24.0602 4.59097 24.5139 4.14883 24.9738 4.33659C24.9493 4.17306 24.7469 3.97924 24.3423 3.99741C23.9376 4.01558 23.6249 4.32447 23.4961 4.60914C23.4103 4.58491 22.6745 4.46378 22.7113 5.17846C22.7419 5.84469 23.2815 6.43825 23.2999 6.78347C23.3122 7.09842 23.214 7.29829 23.1037 7.55873C23.3489 7.72226 23.8579 7.9403 24.2196 8.19468C24.1154 8.31581 23.1221 8.89725 22.3127 9.46052C22.1472 9.57559 21.9142 9.56348 21.767 9.41812C21.0864 8.73977 20.1299 8.2613 18.8545 8.05537C18.3517 7.97058 17.1806 8.06143 16.3651 8.17045C15.8439 8.23707 15.3841 7.88579 15.3289 7.40731C15.1756 6.15964 17.8551 5.34199 19.2837 6.61995C20.0011 6.13541 20.3874 5.59031 20.3506 4.82718C20.3138 4.06404 19.388 3.73698 18.971 3.70064C18.2843 3.64613 17.4994 3.79149 17.0212 3.88839C16.6839 3.95502 16.6042 3.73698 16.6042 3.73698C16.3958 3.16765 15.3841 2.90116 14.7832 2.93144C13.5998 2.98595 12.3122 3.62796 11.1104 3.68247C10.6198 3.70669 10.0312 3.51894 9.81048 3.23427C9.55295 3.54316 9.55909 4.08221 9.57135 4.34264C9.64493 5.89315 11.2882 6.11724 11.2882 6.11724C11.2882 6.11724 10.6628 6.6684 10.6996 7.40125C10.7363 8.13411 10.9142 8.67315 10.9142 8.67315C10.9877 8.32792 11.4231 7.98875 11.4231 7.98875C11.7726 9.1274 13.8941 9.72701 13.2625 11.441C12.8517 12.5494 11.2698 12.4041 10.8774 11.5501C10.8774 11.5501 12.6126 10.369 11.3679 9.59982C7.89744 7.48605 2.72241 0.539062 2.72241 0.539062C1.73523 4.73633 4.92977 7.68592 6.83055 8.86697L0 6.29289C0 6.29289 0.864548 10.6597 6.27257 11.005L0.19621 11.4289C0.19621 11.4289 1.91918 14.8631 7.64604 13.5427L1.7107 15.2507C1.7107 15.2507 4.04069 18.0125 9.66945 15.1719C8.09978 16.7709 5.57358 17.3523 4.84392 17.7521C4.84392 17.7521 9.01951 18.9331 11.791 16.8072L10.0312 19.0967C10.0312 19.0967 12.214 19.1451 13.9677 17.7642C13.2196 18.921 12.2018 20.0233 11.0797 20.0778C9.68785 20.1384 7.54181 19.2662 6.16834 19.3329C4.79487 19.3934 3.81996 20.5139 3.9058 22.3551C3.97938 23.9662 5.56745 26.0558 5.95373 26.5403C5.99666 26.7644 6.05184 26.9764 6.10089 27.1702C6.21739 27.582 6.14381 29.1023 6.0641 29.5868C5.98439 30.0713 5.42029 30.6406 5.42029 30.6406C5.12598 30.3378 4.97269 29.5807 4.97269 29.5807C4.29822 32.0397 5.733 32.5 6.13768 32.4819C6.54236 32.4637 6.72018 32.1548 6.72018 32.1548C6.98383 32.8089 6.68952 33.566 6.68952 33.566C6.68952 33.566 6.09476 33.4328 6.13155 34.208C6.16834 34.9833 6.89799 35.0378 6.89799 35.0378C6.98997 35.3588 6.60368 35.9644 6.60368 35.9644C8.11817 35.492 7.54794 34.0445 7.54794 34.0445C7.93423 33.6084 7.73188 32.5545 7.73188 32.5545C8.25307 32.7968 8.13657 33.0754 8.24693 33.5357C8.3573 33.996 8.65162 33.8749 8.65162 33.8749C8.65162 33.8749 8.4738 33.9355 8.54738 34.4503C8.62096 34.9712 9.1728 34.9166 9.1728 34.9166C9.26477 35.6495 8.98272 36.0614 8.98272 36.0614C8.98272 36.0614 10.0067 35.3164 9.9699 34.5048C9.93311 33.6932 9.22185 33.4873 9.22185 33.4873C9.39966 32.5969 8.73746 31.8762 8.73746 31.8762C9.60201 31.5128 9.93311 32.5606 9.93311 32.5606C9.93311 32.5606 9.81661 32.5 9.84727 33.1118C9.87793 33.7295 10.4482 33.887 10.6444 33.881C10.8406 33.8749 10.9939 33.7477 10.9939 33.7477C11.3066 34.1474 11.0307 34.5351 11.0307 34.5351C11.0307 34.5351 11.7051 34.3594 11.6622 33.4449C11.6193 32.5303 10.6014 32.3607 10.6014 32.3607C10.3746 30.683 9.51003 30.0713 8.89688 30.1016C8.28372 30.1319 7.43144 30.6406 7.43144 30.6406C7.43144 30.6406 7.75028 27.6365 8.52899 27.6063C9.30769 27.5699 10.393 28.109 11.0736 29.7443C12.3857 32.9058 13.9493 33.1784 13.9493 33.1784C13.1215 32.3668 13.7653 31.4401 14.0351 31.1494C14.3172 30.8526 14.5686 30.6104 14.777 30.3863C16.0401 31.319 16.1076 32.7605 16.1076 32.7605C16.7575 30.8829 16.0647 29.6534 15.6845 29.1628C15.9972 28.4118 15.942 27.4306 15.6845 25.1715C15.6722 25.0504 15.66 24.9292 15.6538 24.8081C16.267 24.8687 17.4136 25.008 17.9103 25.2442C17.9103 25.2442 18.9342 25.8256 18.9771 26.8552C19.0262 27.8788 18.5602 28.0605 18.1984 28.0726C17.8367 28.0908 17.2051 27.9636 17.1745 27.261C17.1622 27.0188 17.2297 26.825 17.3216 26.6796C16.8311 26.8371 16.4019 27.3398 16.4448 28.2604C16.5368 30.247 20.4855 30.0289 21.0864 31.2463C21.0864 31.2463 21.0312 31.5552 20.2341 31.531C20.2341 31.531 20.7185 32.1245 21.4236 32.0942C22.1226 32.064 22.1165 31.8035 22.1165 31.8035L22.9504 32.5727C22.9504 32.5727 22.7603 32.8695 22.7726 33.1966C22.7848 33.5236 22.9933 34.0263 23.9621 33.8628C23.9621 33.8628 24.1706 34.0748 24.2074 34.7168C24.2074 34.7168 24.6611 34.3715 24.6304 33.7719C24.6059 33.1784 24.238 32.9785 24.238 32.9785C24.238 32.9785 24.2196 32.1064 23.2876 31.6642C23.2876 31.6642 23.7046 31.2887 24.2503 31.8641C24.4587 32.0882 24.5875 32.2093 24.7837 32.1972C24.9799 32.1851 25.0903 32.0821 25.0903 32.0821C25.0903 32.0821 25.2926 32.5788 25.6237 32.5606C25.9487 32.5485 26.2062 32.3123 26.2062 32.3123C26.2062 32.3123 26.4638 32.5122 26.4699 33.0088C26.4699 33.0088 26.7336 32.712 26.709 32.0761C26.6784 31.4341 25.9487 31.1252 25.4459 31.2221C25.4459 31.2221 25.1148 30.683 24.422 30.7073C24.422 30.7073 24.5814 30.1016 25.311 30.1682C25.311 30.1682 25.4582 30.786 26.0836 30.7618C26.709 30.7315 26.6661 30.2651 26.6661 30.2651C26.6661 30.2651 27.2854 30.4226 27.4571 30.9132C27.4571 30.9132 27.874 29.3748 26.3657 29.5383C26.3657 29.5383 26.053 28.9024 25.17 28.9448C24.2871 28.9872 23.0914 30.1803 23.0914 30.1803C23.0914 30.1803 22.0368 30.1803 21.3133 28.6541C21.3133 28.6541 21.2765 27.1762 25.1577 27.7758C27.1505 28.0847 26.6538 25.868 26.6538 25.868C26.6538 25.868 26.0223 26.4616 25.4153 26.3283C24.0357 26.0315 23.4348 23.5604 22.3924 22.4823C21.4236 21.4769 20.0195 21.0166 17.5792 21.2044C17.0825 21.2407 16.7514 20.6896 17.0334 20.2898C18.3027 18.5031 20.0379 17.3826 20.4978 16.9284C20.7185 16.7103 20.8902 16.5347 21.019 16.3833C21.1355 16.2561 21.3255 16.2258 21.4788 16.3167L23.2938 17.4129C20.5039 18.497 22.8278 19.4903 22.8278 19.4903C22.8645 20.2595 24.0173 20.0718 24.2012 20.0354C24.1093 20.0536 23.7904 20.0718 23.7659 19.5872C23.7414 19.024 24.8205 18.0731 24.8205 18.0731C24.8205 18.0731 25.4889 18.1579 25.5256 18.9876C25.5624 19.8174 24.7408 19.7689 24.7899 20.7986C24.8634 22.343 26.6355 22.1129 26.6355 22.1129C25.9365 21.7858 26.1204 20.9076 26.1204 20.9076C27.4816 21.0772 27.1628 19.1209 27.1628 19.1209C27.9905 19.3571 27.8986 20.9863 29.131 20.9258C29.5111 20.9076 29.738 20.7562 29.738 20.7562C30.1979 21.3134 29.9465 21.9615 29.9465 21.9615C30.4002 21.804 30.8846 21.1135 30.8601 20.5684C30.8356 20.0233 30.5842 19.6418 30.5842 19.6418C30.5842 19.6418 31.1973 18.7999 30.0569 18.8544C28.9164 18.9028 28.1561 18.4486 28.1438 18.1518C28.1315 17.849 28.6405 17.5098 28.6405 17.5098V17.5219ZM11.5886 24.5598C11.2514 25.7226 10.8958 26.4131 10.8958 26.4131C8.87235 25.7226 8.32664 24.5113 8.30212 23.9178C8.28372 23.5665 8.2592 23.1183 8.59643 22.7609C7.2107 23.2515 6.49331 23.9056 6.15608 24.59C5.76979 24.1297 5.26087 23.4393 5.1505 22.6398C5.00334 21.592 5.73913 20.7744 6.66499 20.732C8.0262 20.6714 9.09309 22.1371 11.1533 22.0462C11.9075 22.0099 11.7664 23.948 11.5886 24.5598Z" fill="black"></path><path d="M68.9313 18.1702C68.9191 18.473 68.1526 18.9273 67.0183 18.8727C65.8778 18.8243 66.491 19.6601 66.491 19.6601C66.491 19.6601 66.2396 20.0417 66.215 20.5868C66.1905 21.1319 66.6749 21.8163 67.1286 21.9798C67.1286 21.9798 66.8834 21.3317 67.3371 20.7745C67.3371 20.7745 67.564 20.926 67.9441 20.9441C69.1766 20.9986 69.0785 19.3694 69.9124 19.1392C69.9124 19.1392 69.5935 21.0955 70.9547 20.926C70.9547 20.926 71.1387 21.8102 70.4397 22.1312C70.4397 22.1312 72.2117 22.3553 72.2853 20.8169C72.3343 19.7934 71.5066 19.8358 71.5495 19.006C71.5863 18.1762 72.2546 18.0914 72.2546 18.0914C72.2546 18.0914 73.3399 19.0423 73.3092 19.6056C73.2847 20.0901 72.9659 20.0659 72.8739 20.0538C73.0578 20.0901 74.2106 20.2839 74.2474 19.5087C74.2474 19.5087 76.5712 18.5154 73.7814 17.4313L75.5963 16.335C75.7435 16.2442 75.9397 16.2684 76.0562 16.4016C76.1911 16.547 76.3628 16.7287 76.5774 16.9467C77.0372 17.401 78.7725 18.5215 80.0417 20.3082C80.3299 20.714 79.9988 21.2651 79.496 21.2227C77.0617 21.035 75.6515 21.4953 74.6827 22.5007C73.6403 23.5788 73.0456 26.0499 71.6599 26.3467C71.059 26.4738 70.4213 25.8864 70.4213 25.8864C70.4213 25.8864 69.9246 28.1031 71.9174 27.7942C75.8048 27.1946 75.7619 28.6724 75.7619 28.6724C75.0445 30.1987 73.9837 30.1987 73.9837 30.1987C73.9837 30.1987 72.7881 29.0055 71.9051 28.9631C71.0222 28.9207 70.7095 29.5567 70.7095 29.5567C69.2011 29.3932 69.6181 30.9315 69.6181 30.9315C69.7897 30.441 70.409 30.2835 70.409 30.2835C70.409 30.2835 70.3661 30.7498 70.9915 30.7801C71.6169 30.8104 71.7641 30.1866 71.7641 30.1866C72.4937 30.12 72.6532 30.7256 72.6532 30.7256C71.9603 30.7014 71.6292 31.2404 71.6292 31.2404C71.1264 31.1435 70.3968 31.4524 70.3661 32.0944C70.3354 32.7364 70.6052 33.0271 70.6052 33.0271C70.6114 32.5305 70.8689 32.3306 70.8689 32.3306C70.8689 32.3306 71.1203 32.5608 71.4514 32.579C71.7764 32.5911 71.9848 32.1005 71.9848 32.1005C71.9848 32.1005 72.0952 32.2095 72.2914 32.2156C72.4876 32.2216 72.6164 32.1065 72.8248 31.8824C73.3706 31.3071 73.7875 31.6826 73.7875 31.6826C72.8555 32.1247 72.8371 32.9969 72.8371 32.9969C72.8371 32.9969 72.4754 33.1967 72.4447 33.7903C72.4202 34.3838 72.8678 34.7351 72.8678 34.7351C72.9046 34.0931 73.113 33.8811 73.113 33.8811C74.0879 34.0447 74.2903 33.542 74.3026 33.2149C74.3148 32.8878 74.1247 32.5911 74.1247 32.5911L74.9586 31.8219C74.9586 31.8219 74.9586 32.0823 75.6515 32.1126C76.3505 32.1429 76.841 31.5493 76.841 31.5493C76.0378 31.5736 75.9887 31.2647 75.9887 31.2647C76.5896 30.0473 80.5383 30.2653 80.6303 28.2787C80.6732 27.3581 80.244 26.8554 79.7535 26.6979C79.8455 26.8433 79.9129 27.0311 79.9007 27.2794C79.87 27.9759 79.2385 28.1091 78.8767 28.091C78.5149 28.0728 78.0489 27.8972 78.098 26.8736C78.147 25.85 79.1649 25.2625 79.1649 25.2625C79.6615 25.0263 80.8081 24.887 81.4213 24.8264C81.4151 24.9476 81.4029 25.0687 81.3906 25.1898C81.1331 27.449 81.0779 28.4301 81.3906 29.1812C81.0105 29.6718 80.3176 30.9013 80.9676 32.7788C80.9676 32.7788 81.035 31.3434 82.2981 30.4046C82.5127 30.6287 82.758 30.871 83.04 31.1678C83.3159 31.4524 83.9536 32.3851 83.1259 33.1967C83.1259 33.1967 84.6955 32.9242 86.0015 29.7626C86.6822 28.1273 87.7674 27.5883 88.5461 27.6246C89.3249 27.661 89.6437 30.659 89.6437 30.659C89.6437 30.659 88.7914 30.1502 88.1783 30.12C87.5651 30.0897 86.6944 30.7014 86.4737 32.3791C86.4737 32.3791 85.4497 32.5487 85.4129 33.4632C85.3761 34.3778 86.0445 34.5534 86.0445 34.5534C86.0445 34.5534 85.7686 34.1658 86.0813 33.7661C86.0813 33.7661 86.2284 33.8933 86.4308 33.8993C86.627 33.9054 87.2033 33.7479 87.2279 33.1301C87.2585 32.5123 87.142 32.579 87.142 32.579C87.142 32.579 87.467 31.5312 88.3377 31.8946C88.3377 31.8946 87.6816 32.6214 87.8533 33.5056C87.8533 33.5056 87.142 33.7116 87.1052 34.5231C87.0684 35.3347 88.0924 36.0797 88.0924 36.0797C88.0924 36.0797 87.8104 35.6618 87.9023 34.935C87.9023 34.935 88.4542 34.9835 88.5278 34.4686C88.6013 33.9478 88.4235 33.8933 88.4235 33.8933C88.4235 33.8933 88.724 34.0083 88.8282 33.5541C88.9386 33.0938 88.8159 32.8152 89.3433 32.5729C89.3433 32.5729 89.1409 33.6268 89.5272 34.0628C89.5272 34.0628 88.957 35.5104 90.4715 35.9828C90.4715 35.9828 90.0852 35.3771 90.1771 35.0561C90.1771 35.0561 90.9068 35.0016 90.9436 34.2264C90.9804 33.4511 90.3856 33.5844 90.3856 33.5844C90.3856 33.5844 90.0913 32.8273 90.355 32.1732C90.355 32.1732 90.5328 32.4821 90.9374 32.5002C91.3421 32.5184 92.7769 32.0581 92.1024 29.5991C92.1024 29.5991 91.9492 30.3562 91.6548 30.659C91.6548 30.659 91.0907 30.0836 91.011 29.6051C90.9313 29.1206 90.8639 27.6004 90.9742 27.1885C91.0294 26.9947 91.0785 26.7827 91.1214 26.5586C91.5077 26.0681 93.0958 23.9846 93.1693 22.3735C93.2552 20.5383 92.2803 19.4118 90.9068 19.3512C89.5333 19.2907 87.3873 20.1628 85.9954 20.0962C84.8795 20.0477 83.8555 18.9394 83.1075 17.7825C84.8611 19.1635 87.0439 19.115 87.0439 19.115L85.2842 16.8256C88.0618 18.9515 92.2312 17.7704 92.2312 17.7704C91.5016 17.3707 88.9754 16.7893 87.4057 15.1903C93.0344 18.0309 95.3644 15.269 95.3644 15.269L89.4291 13.5611C95.1621 14.8814 96.8789 11.4473 96.8789 11.4473L90.8026 11.0233C96.2167 10.6781 97.0751 6.31124 97.0751 6.31124L90.2446 8.89138C92.1454 7.71033 95.3399 4.76074 94.3527 0.563477C94.3527 0.563477 89.1777 7.51046 85.744 9.62423C84.4993 10.3934 86.2346 11.5745 86.2346 11.5745C85.8421 12.4285 84.2602 12.5738 83.8494 11.4655C83.2178 9.75142 85.3332 9.15787 85.6888 8.01316C85.6888 8.01316 86.1242 8.35234 86.1978 8.69757C86.1978 8.69757 86.3756 8.15852 86.4124 7.42567C86.443 6.69281 85.8237 6.14166 85.8237 6.14166C85.8237 6.14166 87.4731 5.91756 87.5406 4.36706C87.5528 4.10056 87.559 3.56758 87.3014 3.25869C87.0807 3.54335 86.4859 3.72505 86.0015 3.70688C84.7998 3.65237 83.5121 3.01037 82.3288 2.95586C81.7279 2.93163 80.7162 3.19207 80.5077 3.76139C80.5077 3.76139 80.428 3.97943 80.0907 3.91281C79.6125 3.8159 78.8276 3.67054 78.1409 3.72505C77.7301 3.75533 76.7981 4.08845 76.7613 4.85159C76.7245 5.61473 77.1108 6.15983 77.8282 6.64436C79.2568 5.3664 81.9363 6.19011 81.783 7.43172C81.7217 7.9102 81.268 8.26149 80.7468 8.19486C79.9313 8.08584 78.7602 8.00105 78.2574 8.07979C76.982 8.29177 76.0317 8.77024 75.3449 9.44253C75.1978 9.58789 74.9648 9.60001 74.7992 9.48493C73.9898 8.92166 72.9965 8.33417 72.8923 8.21909C73.2541 7.96471 73.763 7.74667 74.0082 7.58314C73.8979 7.3227 73.7998 7.12283 73.812 6.80789C73.8304 6.46266 74.37 5.86911 74.4007 5.20288C74.4313 4.48213 73.6955 4.60932 73.6158 4.63355C73.4871 4.34889 73.1743 4.04 72.7697 4.02183C72.365 4.00366 72.1626 4.19747 72.1381 4.361C72.5919 4.1793 73.0456 4.61538 73.0088 4.97272C72.8065 4.99695 72.5551 5.21499 72.5367 5.60261C72.5121 6.15983 72.88 6.29913 73.0211 6.33547C72.8616 6.40815 72.3773 6.3597 72.2301 6.22039C71.8009 6.11743 71.3471 5.5481 71.2858 5.1302C71.4085 5.06357 71.433 4.82131 71.4391 4.65778C71.4759 3.90675 70.4519 3.75533 70.3538 3.8159C70.1699 3.65237 69.9001 3.60997 69.7529 3.60392C69.1766 3.57969 68.8148 4.00366 68.6309 4.30043C68.7964 4.19141 69.0601 4.11268 69.2256 4.11873C69.5261 4.13085 69.7284 4.32466 69.8388 4.57298C69.6978 4.75468 69.5997 4.90004 69.5874 5.25738C69.5567 5.97207 70.176 6.02052 70.4397 5.97207C70.4765 6.23856 70.501 6.38998 70.7524 6.74127C70.4826 6.97747 69.8327 6.8624 69.6181 6.68676C69.3851 6.49294 69.2134 6.02052 68.6247 5.9963C68.2201 5.97813 68.0606 6.25068 67.9012 6.40815C67.19 6.55351 66.9447 7.38933 67.0183 8.0919C67.0919 7.80118 67.5578 7.28031 67.8154 7.34693C67.938 7.64976 68.355 8.01316 68.7658 8.03133C69.1766 8.0495 69.2624 7.82541 69.2931 7.6861C69.8327 7.96471 70.0534 8.0919 70.3968 8.70362C69.8388 8.56432 69.2379 8.64911 68.9374 8.79447C68.637 8.94589 68.5696 9.279 68.6186 9.44859C68.0238 9.79382 67.6253 9.09125 67.5946 8.98828C67.3862 9.96341 68.1036 10.4843 68.4837 10.4661C68.8639 10.4479 68.9988 10.3692 69.1582 10.1996C69.2256 10.2784 69.3973 10.4055 69.7346 10.4177C70.1883 10.4358 70.6727 9.98158 71.0344 9.60001C71.3901 10.8295 70.7217 11.7743 69.9737 11.7683C70.0534 11.9924 70.8566 12.0711 71.1632 11.9015C71.6108 11.6593 71.9848 10.9688 72.2607 10.024C72.7758 10.1875 73.1927 10.8235 73.8488 11.5381C74.045 11.7501 74.1493 12.0348 74.1431 12.3255C74.137 13.016 74.2842 13.8094 74.7195 14.3848C74.8115 14.512 74.7747 14.6876 74.6337 14.7603L70.1147 17.1708C70.1147 17.1708 69.4586 15.5113 68.637 15.475C67.8092 15.4386 67.1164 16.1775 67.4843 15.6445C67.4843 15.6445 65.6019 15.7717 65.5222 17.4918C65.5038 17.8734 65.6387 18.3155 65.8717 18.6487C65.9146 18.3276 66.2273 17.7038 66.6933 17.5827C66.6933 17.5827 66.9692 18.1702 67.5946 18.1944C68.2139 18.2247 68.4224 17.7159 68.4714 17.5463C68.4714 17.5463 68.9804 17.8916 68.9681 18.1883L68.9313 18.1702ZM85.9218 22.0464C87.982 22.1373 89.0489 20.6716 90.4101 20.7321C91.336 20.7745 92.0718 21.5922 91.9246 22.64C91.8143 23.4395 91.3053 24.1239 90.9191 24.5902C90.5757 23.9058 89.8644 23.2517 88.4787 22.7611C88.8159 23.1245 88.7914 23.5727 88.773 23.9179C88.7485 24.5054 88.2028 25.7228 86.1794 26.4133C86.1794 26.4133 85.8176 25.7228 85.4865 24.5599C85.3087 23.9482 85.1677 22.0101 85.9218 22.0464Z" fill="black"></path><path d="M64.7119 37.4959C65.8524 36.3088 65.926 35.158 66.5452 35.4367C66.9438 35.6184 66.5085 36.218 66.5452 37.1931C66.582 38.1985 67.2688 38.9919 67.2688 38.9919L64.7119 37.502V37.4959Z" fill="black"></path><path d="M67.1344 36.7584C67.0302 36.7342 66.8524 40.2955 70.8501 40.344C74.8479 40.3985 76.761 38.5512 76.761 38.5512L73.9036 36.1104C73.9036 36.1104 70.9912 37.5882 67.1344 36.7584Z" fill="black"></path><path d="M62.5666 32.8514C62.1864 32.6636 61.7204 32.7969 61.5058 33.1603C60.2182 35.3346 56.5699 39.8468 48.5008 39.8468C40.4317 39.8468 36.7834 35.3407 35.4958 33.1603C35.2812 32.7969 34.8152 32.6636 34.435 32.8514L30.707 34.6563C31.0136 34.6018 31.2159 34.7956 31.3692 35.0318C33.0002 37.6059 37.4947 44.3227 48.5069 44.3227C59.5192 44.3227 64.0136 37.6059 65.6446 35.0318C65.7918 34.7956 66.0002 34.6078 66.3068 34.6563L62.5788 32.8514H62.5666Z" fill="black"></path><path d="M32.2638 37.4969C31.1294 36.322 31.062 35.1833 30.4488 35.4559C30.0564 35.6315 30.4856 36.2311 30.4488 37.1941C30.412 38.1874 29.7314 38.9748 29.7314 38.9748L32.2638 37.4969Z" fill="black"></path><path d="M29.855 36.7584C29.9593 36.7342 30.1371 40.2955 26.1393 40.344C22.1416 40.3924 20.2285 38.5512 20.2285 38.5512L23.0858 36.1104C23.0858 36.1104 25.9983 37.5882 29.855 36.7584Z" fill="black"></path><path d="M63.6759 2.24096C59.0834 0.823705 56.7473 0 48.4942 0C40.2411 0 37.905 0.823705 33.3125 2.24096C32.6871 2.43478 32.3314 3.08889 32.5277 3.71273C33.0734 5.45099 33.6497 8.27339 33.6497 9.81784C33.6497 17.1888 31.8532 24.7172 34.9128 28.9266C37.8069 32.9119 45.0912 35.2497 47.7768 37.2363C48.1999 37.5513 48.7824 37.5513 49.2116 37.2363C51.8972 35.2497 59.1815 32.9119 62.0756 28.9266C65.1352 24.7172 63.3387 17.1827 63.3387 9.81784C63.3387 8.27339 63.9151 5.44493 64.4608 3.71273C64.657 3.09495 64.3013 2.43478 63.6759 2.24096ZM49.9842 32.7665H47.0043L45.2874 30.2106H51.701L49.9842 32.7665ZM45.9312 24.5295C45.9312 22.7185 47.6665 21.059 48.5126 19.8295C48.1018 21.1862 50.1129 23.6452 50.1129 24.9595C50.1129 26.2738 48.8314 27.4003 48.8314 27.4003C50.9714 26.2617 51.0572 24.4931 51.0572 24.4931C51.0572 24.4931 51.701 25.1775 51.701 26.4494C51.701 27.7213 50.7568 29.6049 48.3716 29.6049C46.1152 29.6049 45.2874 27.4185 45.2874 26.3283C45.2874 25.7347 45.4284 25.1775 45.4284 25.1775C45.7105 25.7044 46.5382 26.2435 46.7283 26.3162C46.2991 25.8014 45.9251 25.4077 45.9251 24.5295H45.9312ZM60.6224 13.1369C57.0232 15.4384 52.8292 16.6619 48.5371 16.6619C44.2451 16.6619 40.0633 15.4384 36.4641 13.1429L35.9245 12.7977L42.9452 14.2816C40.9585 13.0279 41.3571 11.3805 40.8114 10.8414C40.2595 10.3024 39.3214 10.4598 38.6102 9.76333C37.8805 9.04864 37.7272 7.92816 38.3036 7.03783C38.4569 7.71012 38.7205 8.30367 39.3705 8.80032C40.0572 9.32119 41.2038 8.95174 41.9825 9.71488C42.7612 10.478 42.6815 11.2169 43.2088 11.7317C43.7361 12.2466 44.8153 12.4828 44.8153 12.4828C44.8153 12.4828 44.8214 12.4828 44.8275 12.4767L43.3069 5.49944L47.2311 11.4895C46.7038 9.18189 48.1876 8.29762 48.1876 7.52842C48.1876 6.75923 47.4089 6.22019 47.4089 5.22084C47.4089 4.22149 48.1018 3.30693 49.1503 3.08889C48.7763 3.67033 48.5371 4.276 48.6414 5.08153C48.7517 5.92947 49.8248 6.47456 49.8248 7.55871C49.8248 8.64285 49.2423 9.10315 49.2423 9.83601C49.2423 10.5689 49.837 11.4895 49.837 11.4895L53.7612 5.49944L52.2529 12.4343C53.5221 10.472 55.1899 10.8656 55.7356 10.3266C56.2813 9.7815 56.1219 8.85483 56.827 8.15226C57.5505 7.43152 58.6849 7.2801 59.5862 7.84943C58.9056 8.00084 58.3047 8.26128 57.8019 8.90328C57.2746 9.58163 57.6486 10.7142 56.876 11.4834C56.1035 12.2526 55.3554 12.1739 54.8342 12.6887C54.3131 13.2096 54.0739 14.2755 54.0739 14.2755C54.0739 14.2755 54.0739 14.2877 54.0801 14.2877L61.1436 12.7856L60.604 13.1308L60.6224 13.1369Z" fill="black"></path><path d="M107.897 30.0231V26.7768H111.117V9.59402H107.897V6.34766H120.608C123.803 6.34766 126.255 7.14713 127.954 8.74609C129.652 10.345 130.504 12.7617 130.504 15.9838V20.4173C130.504 23.6455 129.652 26.05 127.954 27.6368C126.255 29.2236 123.803 30.0231 120.608 30.0231H107.897ZM114.851 26.7101H120.639C122.717 26.7101 124.256 26.1893 125.262 25.1536C126.268 24.1179 126.77 22.5734 126.77 20.5202V15.8505C126.77 13.7792 126.268 12.2287 125.262 11.2172C124.256 10.1997 122.717 9.69699 120.639 9.69699H114.851V26.7101Z" fill="black"></path><path d="M144.318 30.4953C142.515 30.4953 140.112 30.1804 138.72 29.5505C137.328 28.9206 136.237 27.9878 135.452 26.7583C134.667 25.5288 134.269 24.0329 134.269 22.2764V21.4285H137.935V22.2764C137.935 23.9481 138.444 25.1957 139.462 26.0315C140.48 26.8674 142.632 27.2853 144.324 27.2853C146.017 27.2853 148.169 26.9279 149.039 26.2193C149.904 25.5107 150.339 24.5901 150.339 23.4635C150.339 22.7186 150.131 22.1129 149.72 21.6344C149.309 21.162 148.727 20.7804 147.973 20.5018C147.218 20.2232 145.477 19.9507 144.422 19.7084C142.896 19.3571 139.493 18.6 138.364 18.067C137.236 17.5341 136.359 16.8315 135.746 15.9533C135.133 15.0751 134.82 13.9485 134.82 12.5737C134.82 11.1988 135.17 9.98141 135.863 8.98812C136.562 7.99483 137.524 7.23169 138.757 6.68659C139.989 6.14149 142.246 5.875 143.907 5.875C145.569 5.875 147.905 6.15966 149.223 6.72293C150.536 7.2862 151.572 8.12202 152.32 9.22433C153.074 10.3266 153.448 11.7136 153.448 13.3853V14.6026H149.781V13.3853C149.781 12.3677 149.573 11.5501 149.15 10.9141C148.727 10.2842 148.138 9.81788 147.384 9.52716C146.63 9.23644 145.636 9.0608 143.901 9.08503C142.442 9.10925 140.621 9.27278 139.689 9.98141C138.886 10.5871 138.475 11.4047 138.475 12.4646C138.475 13.1854 138.653 13.7789 139.008 14.2392C139.364 14.6995 139.879 15.0811 140.566 15.3718C141.252 15.6626 144.036 16.2137 145.207 16.456C146.765 16.783 148.972 17.2312 150.162 17.7582C151.351 18.2911 152.283 19.0058 152.97 19.9083C153.657 20.8107 154 21.9736 154 23.3908C154 24.8081 153.638 26.0497 152.921 27.1096C152.203 28.1695 151.179 28.9993 149.855 29.5929C148.531 30.1925 146.121 30.4892 144.318 30.4892V30.4953Z" fill="black"></path></svg>