<?xml version="1.0" encoding="UTF-8"?> <svg xmlns="http://www.w3.org/2000/svg" width="74" height="74" viewBox="0 0 74 74" fill="none"><path d="M0 0H74V74H0V0ZM0.173283 0.172667C0.176983 16.5458 0.171433 32.9183 0.176367 49.2914C0.15355 50.0043 0.173283 50.7196 0.167117 51.4331C0.1665 58.8331 0.16835 66.2325 0.165883 73.6325C0.1591 73.7071 0.176367 73.7768 0.217067 73.8403C1.45842 73.8249 2.701 73.8384 3.94297 73.8335C10.7892 73.8341 17.6354 73.8329 24.4811 73.8341C24.6155 73.8606 24.7512 73.7342 24.8757 73.8107C24.9873 73.8458 25.1076 73.8384 25.2235 73.8397C41.3833 73.8391 57.543 73.8397 73.7028 73.8391C73.7367 73.8205 73.8051 73.7835 73.8391 73.7657C73.8403 57.6053 73.8391 41.4449 73.8397 25.2846C73.8403 25.1273 73.8539 24.9639 73.7817 24.819C73.8705 24.5076 73.8212 24.182 73.8335 23.8638C73.8384 15.9815 73.8236 8.09868 73.8403 0.21645C73.7614 0.15725 73.6596 0.1665 73.5683 0.16465C65.4764 0.1739 57.3839 0.152317 49.2932 0.17575C32.9195 0.171433 16.5464 0.176983 0.173283 0.172667Z" fill="#BCBCBC"></path><path d="M37.7071 3.73975C37.9365 3.74838 38.1647 3.77305 38.3947 3.76996C38.3682 4.90032 38.2708 6.02883 38.24 7.15918C38.6667 7.19248 39.0947 7.20728 39.5214 7.23627C39.5232 7.40462 39.5189 7.57235 39.4986 7.73947C38.4058 7.663 37.3106 7.62538 36.2179 7.55447C36.2247 7.38982 36.2278 7.22455 36.2308 7.05928C36.6687 7.07408 37.1059 7.11601 37.5444 7.12095C37.582 5.99306 37.6634 4.86702 37.7071 3.73975Z" fill="black"></path><path d="M33.5423 3.95353C34.1923 3.8783 34.8459 3.84006 35.4971 3.771C35.6087 5.06599 35.7234 6.36037 35.8276 7.65599C35.5945 7.65845 35.3645 7.70902 35.132 7.69052C35.1148 7.18732 35.0476 6.68782 35.0161 6.18524C34.5246 6.20682 34.0362 6.30241 33.5435 6.28206C33.0995 6.26232 32.6192 6.00024 32.5106 5.54144C32.4169 5.14369 32.3842 4.64419 32.7111 4.34018C32.9238 4.10523 33.2321 3.9856 33.5423 3.95353ZM33.8821 4.42158C33.6225 4.44439 33.3518 4.56279 33.2223 4.80021C33.123 5.01666 33.1452 5.27381 33.2334 5.49026C33.3129 5.68636 33.5491 5.73384 33.7359 5.76282C34.1442 5.78687 34.5499 5.70547 34.9569 5.68759C34.9458 5.23619 34.8885 4.78726 34.8533 4.33709C34.529 4.35744 34.2058 4.39136 33.8821 4.42158Z" fill="black"></path><path d="M41.0679 4.11987C41.5711 3.9694 42.1225 4.05327 42.6016 4.24875C43.1825 4.4911 43.428 5.14661 43.502 5.72812C43.5451 6.32937 43.4631 6.96885 43.1381 7.48808C42.8699 7.85808 42.4721 8.18121 41.9973 8.20588C41.47 8.23548 40.886 8.17381 40.4679 7.81985C40.1577 7.52015 39.9591 7.09465 39.9641 6.6599C40.1762 6.68519 40.4001 6.68149 40.6042 6.7339C40.6215 7.06752 40.7769 7.411 41.0759 7.58182C41.3448 7.72241 41.6661 7.73845 41.9609 7.68603C42.3395 7.57257 42.5541 7.19085 42.675 6.83935C42.839 6.26462 42.8804 5.61219 42.6016 5.06583C42.3753 4.62491 41.8049 4.44423 41.3473 4.5873C40.9822 4.73098 40.7695 5.09974 40.7047 5.47221C40.4821 5.45926 40.2613 5.43028 40.0405 5.40808C40.1608 4.85246 40.524 4.3246 41.0679 4.11987Z" fill="black"></path><path d="M45.5172 5.18958C45.9668 5.07673 46.4404 5.18712 46.8554 5.37273C47.3894 5.60891 47.7853 6.13616 47.847 6.71891C47.9086 7.28007 47.7674 7.84987 47.5164 8.3506C47.2852 8.81926 46.8622 9.2127 46.3442 9.32924C45.8471 9.42483 45.3273 9.30766 44.8882 9.06778C44.3795 8.78411 44.0403 8.22727 44.0255 7.64329C44.007 7.08274 44.1661 6.51849 44.4418 6.03256C44.6755 5.62926 45.0566 5.29812 45.5172 5.18958ZM45.7201 5.70881C45.5499 5.76431 45.4167 5.89011 45.3038 6.02393C44.9579 6.41798 44.7908 6.94091 44.731 7.45397C44.7106 7.8437 44.7347 8.31977 45.0757 8.5763C45.3606 8.77486 45.7219 8.87476 46.0685 8.82358C46.4157 8.74588 46.6402 8.43878 46.8196 8.1545C47.0891 7.64082 47.2396 7.04019 47.1242 6.46238C47.0213 5.84756 46.2702 5.55033 45.7201 5.70881Z" fill="black"></path><path d="M49.141 6.65379C49.4795 6.55266 49.8514 6.60816 50.1671 6.75924C50.7653 7.03551 51.3573 7.32719 51.9555 7.60531C51.422 8.78314 50.8899 9.96159 50.3398 11.1314C49.7503 10.8397 49.1502 10.5702 48.5607 10.2786C48.2283 10.1127 47.9231 9.81482 47.8781 9.43064C47.8848 9.1926 47.9829 8.96382 48.1148 8.76895C48.3103 8.50502 48.6575 8.39649 48.9763 8.43534C48.7001 8.19484 48.4701 7.83594 48.5601 7.45546C48.6433 7.13417 48.8111 6.77959 49.141 6.65379ZM49.4586 7.27046C49.3143 7.39564 49.2372 7.58187 49.1996 7.76502C49.1687 8.04376 49.3519 8.30461 49.5905 8.43349C49.9167 8.6117 50.2621 8.75292 50.5926 8.92436C50.7825 8.54264 50.9528 8.15106 51.1297 7.76317C50.8208 7.61702 50.5131 7.46717 50.2029 7.32349C49.9729 7.21866 49.6972 7.15946 49.4586 7.27046ZM48.9215 8.9077C48.7303 8.96875 48.6415 9.17842 48.6032 9.35972C48.5613 9.60639 48.7586 9.81667 48.9628 9.92089C49.2797 10.0862 49.6109 10.2218 49.9279 10.3871C50.0894 10.0522 50.2393 9.71245 50.3941 9.37452C50.1098 9.24009 49.8267 9.10319 49.5418 8.97184C49.3507 8.87934 49.1256 8.84604 48.9215 8.9077Z" fill="black"></path><path d="M50.8444 11.2801C51.5739 10.2188 52.3009 9.15564 53.0328 8.09497C53.2092 8.23742 53.4164 8.3441 53.5786 8.5032C53.0211 9.33324 52.4489 10.1534 51.884 10.9779C52.9946 10.5518 54.0861 10.0751 55.1923 9.6354C55.394 9.7908 55.6086 9.92955 55.8108 10.085C55.0696 11.1327 54.3549 12.1989 53.6254 13.2552C53.433 13.1319 53.2554 12.9876 53.06 12.8686C53.623 12.0293 54.2069 11.2036 54.7724 10.3662C53.6748 10.804 52.5876 11.2714 51.4881 11.7043C51.2544 11.6174 51.0645 11.4089 50.8444 11.2801Z" fill="black"></path><path d="M8.03815 9.93394C8.59192 9.92531 9.1463 9.93024 9.70007 9.93148C9.58722 10.4359 9.50335 10.9459 9.39667 11.4516C10.0614 11.4318 10.7817 11.5508 11.2855 12.0201C11.7462 12.4302 11.9996 13.0259 12.0921 13.6272C12.2401 14.5528 12.0884 15.4957 11.8639 16.3966C11.5494 17.6201 10.9593 18.8318 9.9381 19.6162C9.27149 20.1546 8.40445 20.4105 7.55222 20.363C7.44369 20.8582 7.34687 21.3558 7.24265 21.8523C6.67162 21.8424 6.10059 21.8467 5.52956 21.8492C5.64796 21.3571 5.73984 20.8588 5.84529 20.3636C5.27364 20.3834 4.67116 20.3044 4.19077 19.9708C3.54019 19.5243 3.19609 18.7418 3.12579 17.974C3.03699 16.9436 3.22878 15.9076 3.53464 14.9265C3.91513 13.7215 4.64156 12.5782 5.73984 11.9141C6.32691 11.5545 7.02497 11.4374 7.70515 11.4472C7.80012 10.9397 7.92962 10.439 8.03815 9.93394ZM6.05989 13.9435C5.48701 14.4227 5.21259 15.1571 5.05781 15.8675C4.93941 16.4657 4.84259 17.1249 5.12379 17.6935C5.35997 18.1708 5.97109 18.2195 6.44161 18.2337C6.76165 16.6797 7.09342 15.1281 7.40237 13.5723C6.93679 13.5858 6.43482 13.6376 6.05989 13.9435ZM8.79295 13.5723C8.47599 15.1275 8.14545 16.6797 7.83034 18.2355C8.29715 18.2219 8.79234 18.1597 9.17714 17.8723C9.60387 17.5448 9.85732 17.046 10.0331 16.5489C10.2236 15.9538 10.35 15.3261 10.2952 14.6989C10.2569 14.3684 10.141 14.0237 9.8752 13.8066C9.56255 13.5858 9.15925 13.5932 8.79295 13.5723Z" fill="black"></path><path d="M11.6326 21.481C12.3979 17.8309 13.1502 14.1778 13.9081 10.5259C14.4834 10.5314 15.0582 10.5271 15.6335 10.5283C15.3511 11.8936 15.0612 13.2571 14.7881 14.6242C15.5984 14.6242 16.4093 14.6181 17.2202 14.6267C17.5051 13.2608 17.7906 11.8955 18.0693 10.5277C18.6385 10.5271 19.2083 10.5314 19.7775 10.5259C19.0215 14.1772 18.2587 17.8272 17.5082 21.4797C16.9402 21.4834 16.3717 21.476 15.8037 21.484C16.1157 19.9183 16.4543 18.3575 16.77 16.7924C15.9579 16.7937 15.1457 16.7949 14.3342 16.7918C14.0092 18.3545 13.6836 19.9177 13.3617 21.481C12.7851 21.4797 12.2092 21.481 11.6326 21.481Z" fill="black"></path><path d="M18.7085 21.4819C19.4818 17.8312 20.2175 14.1719 20.9939 10.5225C22.9728 10.5354 24.9517 10.5274 26.9306 10.5262C26.1801 14.1781 25.4099 17.8263 24.6649 21.4794C24.0976 21.4825 23.5303 21.48 22.9629 21.4812C23.571 18.5632 24.1741 15.6439 24.7809 12.7258C23.9311 12.7221 23.0813 12.7227 22.2315 12.7258C21.6371 15.6457 21.0155 18.5601 20.4235 21.48C19.8518 21.4825 19.2802 21.4788 18.7085 21.4819Z" fill="black"></path><path d="M26.0198 21.4823C26.7598 17.8273 27.5411 14.1809 28.2799 10.5259C29.3775 10.5314 30.4764 10.5271 31.5747 10.5277C32.1285 10.5142 32.7279 10.6782 33.088 11.1247C33.4685 11.6248 33.5456 12.2785 33.5548 12.8877C33.4987 14.0489 33.1922 15.2089 32.6119 16.2196C32.2419 16.8301 31.7172 17.3993 31.0209 17.6238C30.6633 17.7496 30.2803 17.7755 29.9042 17.7693C29.4454 17.7675 28.9866 17.7699 28.5278 17.7681C28.2737 19.0057 28.0098 20.2415 27.7606 21.4804C27.1803 21.481 26.6001 21.4792 26.0198 21.4823ZM29.5742 12.7243C29.38 13.6641 29.1845 14.6039 28.989 15.5444C29.3985 15.5425 29.8073 15.545 30.2168 15.5437C30.5319 15.5388 30.8736 15.4876 31.1091 15.2594C31.436 14.9172 31.5747 14.4454 31.6604 13.9916C31.7067 13.6432 31.7276 13.2497 31.5155 12.9475C31.3891 12.7638 31.1449 12.7459 30.9426 12.7268C30.4863 12.7188 30.03 12.7255 29.5742 12.7243Z" fill="black"></path><path d="M56.9918 11.0266C57.1829 11.1573 57.3408 11.3282 57.5209 11.4725C56.7963 12.3315 56.0569 13.1782 55.3379 14.0421C55.687 14.3233 56.0051 14.6409 56.3529 14.9239C56.9899 14.245 57.5511 13.4594 58.3731 12.9882C58.5809 12.8569 58.8479 12.8273 59.0779 12.9179C59.34 13.0203 59.5348 13.2324 59.7241 13.4322C59.6064 13.5549 59.4991 13.6863 59.3893 13.8152C59.2623 13.6678 59.1007 13.5142 58.8917 13.5198C58.6339 13.5062 58.4434 13.7091 58.2584 13.8577C57.6245 14.4251 57.0911 15.0923 56.5219 15.7219C55.8374 15.1453 55.1739 14.5422 54.5085 13.9428C55.3398 12.974 56.1716 12.0053 56.9918 11.0266Z" fill="black"></path><path d="M59.588 13.7435C59.9703 13.4253 60.3218 13.0701 60.7189 12.771C60.8299 12.9202 60.9637 13.0503 61.092 13.1848C60.8484 13.4111 60.6147 13.6479 60.3693 13.8723C61.1055 14.6734 61.8332 15.4824 62.5744 16.2785C62.8093 16.0565 63.04 15.8278 63.2798 15.6107C63.4365 15.7143 63.5394 15.8956 63.6837 16.0214C63.3446 16.3809 62.9943 16.7287 62.6509 17.0839C62.5423 16.9748 62.4356 16.8644 62.3456 16.7404C61.9281 16.762 61.5514 16.9637 61.1931 17.161C60.5327 17.518 60.0116 18.0693 59.4757 18.5836C58.8492 17.9065 58.2283 17.2251 57.6079 16.5437C58.4151 15.7698 59.2309 15.0058 60.0363 14.23C59.8864 14.0678 59.7378 13.9044 59.588 13.7435ZM58.42 16.7133C58.7475 17.0617 59.062 17.4224 59.3913 17.7696C60.1016 17.1104 60.8552 16.4056 61.8307 16.1854C61.3756 15.7118 60.9452 15.2154 60.4969 14.7357C59.8106 15.401 59.1168 16.059 58.42 16.7133Z" fill="black"></path><path d="M62.3571 18.073C62.7764 17.9429 63.258 17.9478 63.6397 18.1859C64.0677 18.4658 64.3464 18.9222 64.532 19.3896C64.7398 19.9094 64.6572 20.5286 64.3384 20.9861C64.0079 21.4073 63.5454 21.7058 63.0619 21.9222C62.4095 22.2195 61.5653 22.0184 61.1299 21.4456C60.7519 20.988 60.4214 20.375 60.6002 19.7676C60.7587 19.1485 61.2576 18.694 61.7972 18.3931C62.3152 19.2416 62.8344 20.0895 63.3548 20.9374C63.7156 20.6797 64.0202 20.309 64.0794 19.857C64.1294 19.1651 63.4258 18.3863 62.7043 18.6718C62.5877 18.4726 62.441 18.2888 62.3571 18.073ZM61.1528 20.5693C61.2693 20.8869 61.4833 21.1903 61.7978 21.3352C62.1727 21.4758 62.6031 21.3993 62.9374 21.189C62.5476 20.5576 62.1554 19.9267 61.7762 19.2891C61.3458 19.5308 60.9795 20.0648 61.1528 20.5693Z" fill="black"></path><path d="M56.6244 19.3731C56.707 19.3151 56.7958 19.2639 56.8951 19.2393C56.9259 19.3392 56.9555 19.4403 56.9827 19.542C55.227 20.7674 53.4824 22.0075 51.7311 23.239C51.4425 23.4554 51.1336 23.641 50.8117 23.8032C50.33 24.0425 49.989 24.4711 49.5888 24.817C49.8484 25.1401 50.1709 25.4078 50.4262 25.734C50.6069 26.0929 50.9479 26.363 51.0349 26.7681C51.0491 26.8798 51.0608 27.0241 50.9825 27.1129C50.8653 27.1381 50.758 27.0734 50.6526 27.037C50.2437 26.4499 49.9539 25.7506 49.3625 25.3147C49.1417 25.1494 48.8722 25.0507 48.5978 25.0279C46.3513 24.9718 44.1189 24.6567 41.8712 24.6388C41.0276 24.6524 40.1772 24.6579 39.3441 24.8016C38.0065 25.3418 36.6727 25.8937 35.3388 26.4425C35.9006 26.8008 36.5247 27.0857 36.9835 27.5797C37.0692 27.6882 36.9977 27.8208 36.9631 27.9336C36.3224 27.7462 35.9018 27.1486 35.2636 26.9538C35.102 26.8976 34.93 26.9087 34.7628 26.9205C33.6929 28.7933 31.9909 30.1715 30.6947 31.8717C29.6914 33.1278 29.0099 34.675 28.9544 36.2956C29.8751 36.1544 30.8822 36.1834 31.6955 36.6848C31.8115 36.8414 31.9656 36.9635 32.0914 37.1109C32.3955 37.8848 31.8022 38.6328 31.8842 39.416C32.8444 38.9251 33.4487 37.973 33.8483 37.0042C34.0562 36.4973 34.2368 35.9793 34.404 35.4582C34.5045 35.2559 34.346 35.0518 34.3817 34.8434C34.4453 34.2347 34.9041 33.7784 35.094 33.2154C35.2383 33.2499 35.464 33.2882 35.4504 33.4867C35.403 33.7951 35.1137 34.0269 35.1514 34.3556C36.4038 33.3683 37.8844 32.7054 39.0826 31.6454C38.9624 31.4308 38.8267 31.2254 38.7095 31.0102C38.6577 30.8437 38.7558 30.6593 38.9204 30.602C39.4853 31.0392 39.5686 31.831 40.1081 32.2873C40.2364 32.4137 40.4097 32.4877 40.5891 32.4957C40.3986 32.1677 40.176 31.8569 40.023 31.5085C39.9225 31.2883 39.9324 31.0429 39.9509 30.8073C40.0878 30.7857 40.2666 30.7981 40.3542 30.9195C40.3807 31.1064 40.3887 31.305 40.4886 31.4715C40.7063 31.8711 41.0899 32.1609 41.2508 32.5963C42.7943 32.8485 44.3619 33.0292 45.8512 33.5287C46.6399 33.7766 47.3904 34.1478 48.0588 34.6356C48.1674 34.7145 48.2648 34.8126 48.3875 34.8705C49.8867 34.5819 51.2458 33.4658 51.667 31.9753C51.8847 31.9753 52.0777 32.1609 52.0598 32.3835C51.8292 33.2142 51.2686 33.9264 50.5699 34.4191C50.0902 34.7515 49.5709 35.0284 49.0245 35.2344C50.9029 36.3209 52.4902 37.8515 54.4383 38.8246C54.3933 38.409 54.7571 38.1413 55.0062 37.8694C55.2881 37.5308 55.4694 37.0726 55.3812 36.6286C55.2893 36.1643 55.0241 35.7628 54.8305 35.338C54.4611 34.8193 54.0461 34.3297 53.7205 33.7796C53.1877 32.9274 52.7603 31.937 52.8615 30.9109C52.9786 30.8998 53.0958 30.9152 53.2105 30.9436C53.1821 31.8569 53.6607 32.674 54.1645 33.3973C54.4716 33.8382 54.7879 34.2761 55.0395 34.7521C55.301 35.2467 55.7419 35.6488 55.8677 36.2105C56.2988 36.1994 56.5843 35.8264 56.9697 35.6925C58.8148 35.1474 60.6592 34.601 62.5037 34.0547C62.5216 34.1046 62.5561 34.2045 62.574 34.2539C60.8609 34.8736 59.1478 35.4934 57.4353 36.1137C57.2669 36.1692 57.0807 36.123 56.9173 36.1976C56.6275 36.3141 56.3623 36.4831 56.0786 36.612C55.7888 37.4581 55.4305 38.3831 54.6313 38.877C54.8903 39.2704 55.383 39.3765 55.7185 39.6824C55.8708 39.8162 56.0392 39.9839 56.0188 40.2053C56.0311 40.9687 56.0219 41.7938 55.5958 42.4592C55.4157 42.7071 55.1894 42.9464 54.8977 43.0574C54.659 43.0346 54.4272 43.111 54.265 43.2905C54.0905 43.4823 53.7895 43.5353 53.5836 43.3589C53.8074 43.7117 53.8185 44.16 53.6897 44.5485C53.5959 44.8445 53.4855 45.1356 53.3733 45.4248C53.105 45.8959 52.5759 46.1796 52.0518 46.2523C51.1656 46.2067 50.2961 46.0217 49.418 45.9101C49.7251 46.2776 50.2184 46.5243 50.3442 47.0164C50.3559 47.4018 50.3393 47.8137 50.1247 48.1504C49.9372 48.4477 49.7035 48.7178 49.4605 48.97C48.8981 49.3776 48.192 49.118 47.5692 49.0594C47.3293 49.5342 47.5908 50.1121 47.2905 50.5672C47.0124 50.9341 46.5523 51.0913 46.1274 51.2177C45.1975 51.4508 44.238 51.248 43.2969 51.211C42.7031 51.1567 42.1142 51.2702 41.5265 51.3337C41.4142 52.0188 41.6023 52.7329 41.3896 53.4038C41.0473 54.2764 40.081 54.8351 39.1554 54.7562C38.7638 54.7636 38.5042 54.4201 38.1792 54.2536C37.9516 54.8801 37.4466 55.3383 37.0186 55.8273C36.3896 55.7607 35.7094 55.8366 35.1384 55.5147C34.7844 55.313 34.6321 54.9214 34.4249 54.594C33.8039 54.8789 33.614 55.6312 33.0257 55.955C32.7217 56.1381 32.3511 56.135 32.0082 56.1276C31.5568 56.1048 31.0635 55.9895 30.7551 55.6362C30.4727 55.1212 30.2149 54.5928 29.9288 54.0809C29.5347 54.3886 29.1345 54.6877 28.7398 54.9942C28.0621 54.7876 27.3055 54.7469 26.7178 54.3146C26.3564 54.0563 26.206 53.6209 26.0783 53.2151C25.9426 52.7767 25.9352 52.3018 26.0487 51.8578C25.786 51.753 25.5042 51.7024 25.2218 51.6963C24.8123 51.6907 24.3923 51.6839 23.9977 51.811C23.4229 52.0564 22.8352 52.2741 22.2722 52.5467C21.5705 52.7637 20.8884 53.0388 20.215 53.3298C19.6397 53.5993 19.0329 53.7892 18.4409 54.0168C18.1997 54.0982 17.9673 54.2067 17.7194 54.2672C17.6879 54.1999 17.6565 54.1327 17.625 54.0667C18.8664 53.5931 20.0972 53.0924 21.33 52.5954C21.8535 52.3721 22.3986 52.1995 22.9092 51.9454C23.2515 51.7734 23.6233 51.6784 23.9946 51.5939C24.38 51.507 24.7593 51.3701 25.1589 51.3633C25.5134 51.3651 25.8588 51.4545 26.2023 51.5347C26.6099 50.3902 27.1384 49.295 27.649 48.1936C28.0954 47.2655 28.5172 46.3251 28.9193 45.3773C29.0944 45.2256 29.2874 45.0924 29.4823 44.9672C30.1175 44.9166 30.6577 45.3286 31.233 45.5296C31.55 45.6178 31.5266 46.0211 31.7776 46.1882C32.0766 45.3835 32.3794 44.5799 32.6779 43.7758C33.3309 43.5779 34.0413 43.2584 34.7209 43.531C35.1008 43.7185 35.5016 43.9781 35.6404 44.403C35.8149 44.8611 35.7076 45.3551 35.7267 45.8312C35.7952 45.5759 35.8864 45.3286 35.9728 45.0794C36.0061 44.9493 36.1399 44.8883 36.2422 44.8204C36.9471 44.406 37.8659 44.4677 38.5597 44.8716C39.0154 45.3051 38.971 45.994 38.8711 46.5619C39.0629 46.4719 39.2473 46.3374 39.4649 46.3245C39.9762 46.364 40.5047 46.5823 40.7951 47.0232C41.1429 47.5621 41.1768 48.2263 41.2083 48.8485C41.228 49.4849 41.241 50.1324 41.4352 50.7454C42.9442 50.5764 44.4766 50.9729 45.9745 50.6461C46.236 50.5758 46.5166 50.5283 46.746 50.3791C47.0697 50.0239 46.9772 49.5034 46.8903 49.0761C45.298 48.9663 43.7082 48.8195 42.1166 48.698C42.0821 48.6123 42.0081 48.5309 42.0229 48.4341C42.0673 48.3367 42.1475 48.2627 42.2178 48.185C43.1557 48.2294 44.0801 48.4064 45.0162 48.4742C45.5287 48.4871 46.0417 48.4668 46.5542 48.4816C47.3842 48.5377 48.2136 48.6703 49.0467 48.6092C49.4217 48.3373 49.7454 47.9562 49.8225 47.4869C49.9033 47.1989 49.7874 46.8838 49.5685 46.6889C49.2447 46.4127 48.8241 46.256 48.5509 45.92C48.4924 45.8614 48.472 45.7818 48.4831 45.7029C46.8557 45.1664 45.1241 45.1442 43.4597 44.7773C43.4135 44.6712 43.3278 44.5725 43.3345 44.4517C43.3956 44.3333 43.5171 44.218 43.662 44.2691C45.4818 44.5343 47.2806 44.9247 49.0794 45.3058C49.8941 45.5068 50.721 45.6591 51.5572 45.7337C52.0154 45.7664 52.5297 45.6862 52.851 45.3267C53.1525 44.8784 53.2722 44.3068 53.1649 43.7758C53.0773 43.5328 52.978 43.222 52.7011 43.1437C50.2567 42.2119 47.814 41.2746 45.3714 40.3379C45.3615 40.1763 45.4627 39.9179 45.6643 39.9969C47.3164 40.5827 48.9863 41.1365 50.5687 41.8956C51.334 42.0689 52.0216 42.4654 52.7702 42.6899C53.1716 42.8286 53.6008 42.8971 54.0251 42.8539C54.4142 42.8076 54.7824 42.6202 55.0624 42.3482C55.3898 41.8185 55.6167 41.1796 55.5101 40.5513C55.4521 40.341 55.4095 40.0727 55.1888 39.9716C53.0095 38.7481 51.1212 37.0831 48.9709 35.8153C48.6687 35.6241 48.3277 35.4909 48.0669 35.2399C47.1715 34.5449 46.0689 34.1947 44.9915 33.8925C43.3851 33.4466 41.7269 33.2462 40.0878 32.9632C39.6271 32.8115 39.1504 32.6024 38.6546 32.7122C37.8573 32.8207 37.211 33.3424 36.5987 33.824C36.1041 34.2421 35.5873 34.6393 35.0262 34.9612C34.7363 36.102 34.4107 37.2613 33.7614 38.2573C33.268 39.0521 32.549 39.7354 31.6579 40.0536C31.6117 40.1621 31.6 40.3003 31.4933 40.3712C31.0043 40.7572 30.3358 40.8362 29.7481 40.6629C29.2085 40.5025 28.5943 40.2941 28.3254 39.7539C28.0387 39.1903 28.1041 38.5329 28.1034 37.9218C28.0825 37.6098 28.1824 37.3094 28.2354 37.0054C28.5148 35.7567 28.8071 34.4999 29.3127 33.3196C29.8067 32.1109 30.5504 30.9806 31.5802 30.1629C31.2047 30.2511 30.8532 30.4336 30.4641 30.4644C29.5064 30.6229 28.7041 31.2408 28.0658 31.9426C27.2487 32.8287 26.5488 33.882 25.4573 34.4611C25.1619 34.5764 24.9887 34.8545 24.7574 35.0561C23.886 35.8362 22.8611 36.4307 22.0311 37.2601C21.6161 37.6881 21.251 38.182 21.0586 38.7518C20.9896 38.9344 20.9637 39.1317 20.8705 39.3056C20.7367 39.5652 20.6744 39.8661 20.4771 40.0906C20.3649 40.2059 20.199 40.2448 20.0479 40.1887C19.9196 39.9087 20.207 39.7058 20.2829 39.4628C20.2958 39.3728 20.2243 39.35 20.1601 39.3944C19.43 39.7564 18.8448 40.37 18.0739 40.6549C16.1358 41.3153 14.205 41.9992 12.2637 42.6467C12.2415 42.5246 12.2168 42.4019 12.1903 42.281C12.601 42.2878 12.9944 42.1546 13.3848 42.0467C14.739 41.6341 16.0525 41.1001 17.3494 40.5365C18.0092 40.2398 18.6666 39.9352 19.2986 39.5831C19.6039 39.4067 19.9221 39.2359 20.1663 38.9769C20.2557 38.8813 20.3982 38.8918 20.5166 38.8634C20.6621 38.3091 20.9322 37.78 21.3417 37.3736C22.02 36.6391 22.921 36.1674 23.6511 35.4927C24.3097 34.8101 25.0528 34.2175 25.7774 33.6076C26.8393 32.7036 27.9191 31.7983 28.7793 30.692C29.6655 30.0624 30.8082 30.0729 31.7967 29.6911C31.9891 29.6054 32.2086 29.5438 32.3449 29.3711C33.2051 28.3943 33.7799 27.1893 34.7302 26.2871C35.3197 25.7044 36.1097 25.348 36.9317 25.2585C37.663 24.9946 38.3907 24.7159 39.1215 24.4489C39.2738 24.3964 39.4218 24.3187 39.5852 24.3058C42.4077 24.0819 45.2185 24.5734 48.0397 24.5722C48.4239 24.5512 48.8112 24.566 49.1941 24.5216C49.7985 23.8365 50.6378 23.4406 51.4037 22.9713C53.1723 21.8138 54.8638 20.5429 56.6244 19.3731ZM29.1246 36.6841C28.9551 37.5647 28.6399 38.4342 28.6745 39.3407C28.8663 39.7342 29.1956 40.1233 29.663 40.1591C30.1711 40.1985 30.6626 39.9827 31.1048 39.7545C31.3212 38.9128 31.431 38.0433 31.4883 37.1769C30.8587 36.6058 29.9263 36.5565 29.1246 36.6841ZM33.1237 44.094C32.874 44.6219 32.8376 45.2077 32.7729 45.7781C33.2477 46.1901 33.9155 46.372 34.5298 46.219C34.6543 46.2116 34.7154 46.0865 34.7635 45.989C34.9503 45.5456 35.0108 45.0585 35.0034 44.5806C35.0071 44.4424 34.864 44.3697 34.7869 44.2735C34.3528 43.8455 33.6442 43.7992 33.1237 44.094ZM36.4815 45.299C36.4155 45.4642 36.426 45.6536 36.3656 45.8238C36.2373 46.2326 36.0862 46.6581 36.1652 47.0935C36.5944 47.3605 37.1253 47.4209 37.6211 47.3975C37.7259 47.3741 37.8992 47.3821 37.9282 47.2495C38.0922 46.684 38.3445 46.1216 38.2766 45.5173C37.8369 45.0246 37.0088 44.8383 36.4815 45.299ZM29.4527 45.6727C29.1647 46.2375 28.7984 46.8511 28.9427 47.511C29.079 47.9198 29.5471 47.9759 29.9029 48.0838C30.1748 48.172 30.5387 48.1905 30.7187 47.9235C30.9395 47.5165 31.1116 47.0774 31.1997 46.6217C31.2306 46.425 31.23 46.1679 31.0326 46.0587C30.7046 45.8472 30.3728 45.5845 29.9658 45.5678C29.7894 45.5604 29.6204 45.6264 29.4527 45.6727ZM32.3763 46.3085C31.6696 47.7367 31.3977 49.3246 30.8458 50.8107C30.7866 50.9686 30.7946 51.14 30.7668 51.3047C30.6731 51.9238 30.5029 52.5319 30.4573 53.1584C30.3808 53.8201 30.506 54.5194 30.8963 55.0688C31.0271 55.2396 31.1356 55.4561 31.3508 55.5332C31.6388 55.6423 31.9552 55.6115 32.2536 55.6738C32.713 55.6867 33.1379 55.4074 33.3994 55.0429C33.6886 54.639 33.8933 54.1814 34.1215 53.7436C34.4656 51.3102 35.2802 48.9194 35.1279 46.4343C34.8023 46.4978 34.4934 46.6291 34.1671 46.6865C33.6393 46.5742 33.1108 46.4546 32.5965 46.2875C32.525 46.2708 32.4121 46.2055 32.3763 46.3085ZM39.1677 46.9399C38.8779 47.0466 38.7545 47.3747 38.7367 47.6596C38.7126 48.0012 38.7114 48.3459 38.7416 48.6882C39.061 48.8103 39.3564 49.0471 39.7153 49.028C39.9287 49.0243 40.1174 48.9139 40.3079 48.8306C40.4122 48.3058 40.3801 47.7693 40.3869 47.2384C40.2395 47.1669 40.1007 47.0805 39.9583 47.001C39.7233 46.861 39.4218 46.8524 39.1677 46.9399ZM35.9173 47.3056C35.5386 48.7616 35.3808 50.2687 34.922 51.7049C34.8628 51.8751 34.8776 52.0583 34.8424 52.234C34.7579 52.8248 34.5223 53.4223 34.6821 54.0217C34.7388 54.3048 34.9479 54.5126 35.0663 54.7667C35.2383 55.0898 35.6132 55.2353 35.9592 55.2736C36.2429 55.3025 36.5278 55.3543 36.812 55.3531C37.0939 55.0491 37.3615 54.7327 37.6458 54.4306C37.824 52.1995 38.1872 49.9739 38.0873 47.7293C37.5243 47.7897 36.9354 47.9112 36.3872 47.7034C36.2028 47.6084 36.0424 47.4696 35.9173 47.3056ZM26.6561 51.732C26.4902 52.3826 26.5217 53.0961 26.822 53.7035C27.2796 54.2764 28.0708 54.3812 28.7553 54.4263C29.0513 54.097 29.4367 53.8497 29.6753 53.4698C29.8381 53.1861 29.8696 52.8544 29.9473 52.5423C30.255 51.1659 30.5504 49.7865 30.8655 48.4119C30.6947 48.4767 30.5331 48.5796 30.3438 48.5735C29.6019 48.6444 28.8114 48.4107 28.3082 47.8415C27.895 49.1951 26.9947 50.3507 26.6561 51.732ZM38.7249 49.2259C38.2298 50.4395 38.4524 51.7795 38.2137 53.0425C38.4524 53.4279 38.5085 53.989 38.9778 54.1808C39.3533 54.2468 39.7862 54.3578 40.1316 54.1346C40.5873 53.7991 40.9332 53.2953 40.9998 52.7255C41.1614 51.5551 40.6317 50.4303 40.6675 49.2635C40.4461 49.3492 40.2432 49.4763 40.0218 49.5595C39.5698 49.623 39.0838 49.5151 38.7249 49.2259Z" fill="black"></path><path d="M64.6402 21.9026C64.8634 21.7342 65.136 21.5992 65.4222 21.6103C65.8156 21.6762 66.1023 22.0006 66.2855 22.3342C66.6006 22.949 66.875 23.5842 67.1926 24.1972C66.0505 24.7707 64.9035 25.3337 63.7596 25.9035C63.471 25.3066 63.183 24.709 62.903 24.1078C62.7489 23.7902 62.6928 23.4005 62.8475 23.073C63.0227 22.8054 63.3353 22.6469 63.6474 22.6068C63.9169 22.6099 64.1771 22.7394 64.3578 22.9379C64.2795 22.579 64.3313 22.1418 64.6402 21.9026ZM64.7759 23.057C64.8524 23.5238 65.1416 23.9185 65.3161 24.3514C65.6935 24.1633 66.0795 23.99 66.4464 23.7809C66.275 23.4516 66.1264 23.1112 65.9605 22.7801C65.8588 22.5908 65.7021 22.4051 65.4857 22.3533C65.1033 22.3071 64.7155 22.6629 64.7759 23.057ZM63.648 23.3073C63.3292 23.414 63.3119 23.8241 63.434 24.0843C63.5894 24.4112 63.7325 24.7448 63.9088 25.0611C64.224 24.8909 64.5477 24.7368 64.8696 24.5795C64.745 24.2558 64.5798 23.9487 64.4287 23.6373C64.2899 23.3634 63.9483 23.1211 63.648 23.3073Z" fill="black"></path><path d="M67.0439 25.3379C67.2024 25.2799 67.3609 25.2226 67.5219 25.1702C67.6267 25.4292 67.7691 25.7128 67.676 25.9971C67.6119 26.1192 67.4966 26.2031 67.3985 26.2956C67.9356 26.4497 68.2612 26.977 68.4018 27.4882C68.5301 27.902 68.5258 28.4108 68.2002 28.7339C67.8437 29.065 67.2246 29.2297 66.8226 28.8868C66.3761 28.4545 66.111 27.8773 65.8674 27.3143C65.823 27.2015 65.7459 27.1077 65.6651 27.0202C65.3451 27.0017 64.9609 27.138 64.8474 27.466C64.7531 27.8299 64.8838 28.214 65.075 28.5248C65.2575 28.8017 65.6115 28.9195 65.9266 28.8103C65.9932 29.0188 66.0659 29.2254 66.1344 29.4344C65.8316 29.5195 65.4906 29.5355 65.2112 29.3703C64.7839 29.1507 64.5668 28.6907 64.4232 28.256C64.3023 27.8749 64.1907 27.4469 64.3615 27.0627C64.4731 26.7482 64.7525 26.5231 65.0633 26.4201C65.6509 26.2136 66.2478 26.0329 66.838 25.8319C66.9367 25.7918 67.0507 25.7517 67.1062 25.6518C67.129 25.542 67.0748 25.439 67.0439 25.3379ZM66.0474 26.8037C66.4396 27.2619 66.5223 27.9353 66.9995 28.3312C67.3776 28.531 67.9036 28.2473 67.9363 27.8157C67.943 27.3698 67.6927 26.9049 67.2715 26.726C66.8793 26.5275 66.4384 26.6902 66.0474 26.8037Z" fill="black"></path><path d="M65.5072 30.6105C65.884 30.0919 66.5309 29.86 67.147 29.7934C67.7069 29.7132 68.3483 29.7897 68.7682 30.2047C69.42 30.7893 69.5335 31.9567 68.849 32.5629C69.4644 32.4802 70.0786 32.3877 70.6941 32.3002C70.7379 32.532 70.7736 32.767 70.7829 33.0044C69.0722 33.2332 67.364 33.486 65.6558 33.7346C65.6238 33.5132 65.5929 33.2924 65.5633 33.071C65.7249 33.0482 65.8902 33.0433 66.0474 32.9939C65.1927 32.5764 64.9658 31.361 65.5072 30.6105ZM66.9398 30.5655C66.5796 30.6382 66.2034 30.7751 65.9784 31.0822C65.6836 31.4233 65.678 31.9493 65.9025 32.3285C66.1362 32.6745 66.5531 32.8614 66.9663 32.8515C67.4238 32.8385 67.9092 32.7886 68.3051 32.5382C68.6042 32.3119 68.8447 31.9641 68.8379 31.5756C68.8502 31.2198 68.6578 30.8689 68.3507 30.6882C67.9357 30.4101 67.4029 30.4797 66.9398 30.5655Z" fill="black"></path><path d="M32.9516 32.3049C33.0818 32.3432 33.1595 32.5152 33.0639 32.6262C32.787 33.0967 32.536 33.5839 32.2431 34.0439C32.2122 34.0587 32.1499 34.089 32.1191 34.1044C32.047 34.0156 31.9847 33.92 31.9434 33.8133C32.3325 33.3477 32.626 32.8143 32.9516 32.3049Z" fill="black"></path><path d="M65.6892 34.7053C66.9521 34.5943 68.2151 34.4772 69.4786 34.3687C69.5187 34.5993 69.5267 34.8342 69.5428 35.0673C68.4402 35.1604 67.3394 35.2665 66.2374 35.3584C66.2861 35.999 66.3515 36.6385 66.3959 37.2792C67.4997 37.1688 68.6054 37.0843 69.7093 36.9764C69.7315 37.2113 69.7573 37.4463 69.7654 37.6825C68.5 37.7867 67.2358 37.9057 65.971 38.0179C65.8773 36.9135 65.7774 35.8097 65.6892 34.7053Z" fill="black"></path><path d="M4.96561 34.729C6.71386 34.7987 8.4615 34.9054 10.2085 35.001C10.1419 36.2701 10.0778 37.5392 10.0124 38.8076C9.80708 38.8027 9.60173 38.7947 9.39761 38.7688C9.45003 37.7494 9.49504 36.7295 9.55733 35.7107C9.02329 35.6848 8.48925 35.6349 7.95584 35.6324C7.88862 36.5506 7.85162 37.4781 7.8066 38.4006C7.59755 38.4 7.38973 38.384 7.1813 38.368C7.23433 37.438 7.2886 36.5075 7.31943 35.5763C6.7262 35.58 6.13481 35.5023 5.54096 35.5029C5.51013 36.5519 5.44106 37.6002 5.38679 38.6479C5.18144 38.643 4.97732 38.6214 4.77197 38.6208C4.83611 37.3233 4.91442 36.0265 4.96561 34.729Z" fill="black"></path><path d="M46.2681 36.7981C46.2576 36.541 46.1429 36.2592 46.3119 36.0279C46.5783 36.023 46.7621 36.2431 46.8428 36.475C46.9428 36.779 47.0735 37.0812 47.0661 37.4074C47.1198 37.9599 47.1771 38.5821 46.8213 39.0538C46.5684 39.3517 46.1928 39.5213 45.8179 39.6051C45.7815 39.4867 45.726 39.3597 45.7858 39.2395C45.9912 38.9317 46.5043 38.9003 46.5647 38.4865C46.6751 37.9235 46.7041 37.2359 46.2681 36.7981Z" fill="black"></path><path d="M64.4892 39.4471C64.7827 39.0056 65.2569 38.646 65.7977 38.5961C65.9211 38.5794 66.0456 38.5733 66.1714 38.5696C66.1425 38.8206 66.1264 39.0734 66.0857 39.3232C65.54 39.3022 65.0103 39.6845 64.8697 40.213C64.7352 40.6891 64.7032 41.2324 64.9455 41.6801C65.1256 42.0341 65.4919 42.2358 65.8391 42.3955C66.563 42.6804 67.4122 42.7587 68.1343 42.4226C68.5363 42.2623 68.8601 41.9182 68.9803 41.5007C69.0698 41.1781 69.1209 40.8334 69.0432 40.5035C68.9427 39.9694 68.4642 39.5489 67.9376 39.4588C67.9628 39.2017 67.9949 38.9451 68.0153 38.688C68.5437 38.8058 69.0364 39.1049 69.3411 39.5594C69.7789 40.1464 69.7401 40.937 69.5896 41.6178C69.3978 42.607 68.4827 43.4247 67.464 43.4383C66.6672 43.4537 65.8212 43.347 65.1465 42.8888C64.6347 42.5225 64.2 41.9743 64.1599 41.3243C64.1167 40.6885 64.1858 40.0163 64.4892 39.4471Z" fill="black"></path><path d="M3.80371 39.2227C4.28718 39.1456 4.76632 39.0266 5.25164 38.9705C5.28741 39.1308 5.30035 39.2954 5.32687 39.4576C5.97129 39.7573 6.69957 39.7962 7.39886 39.7629C7.83608 39.7271 8.26713 39.6451 8.70187 39.5902C8.83076 40.5097 8.94299 41.4322 9.08852 42.3492C7.99518 42.5225 6.8969 42.6723 5.79985 42.8246C5.8165 43.0485 5.84919 43.2705 5.88064 43.4931C5.391 43.5381 4.90322 43.5979 4.41359 43.6399C4.38523 43.4493 4.35933 43.2581 4.33219 43.0682C4.65101 43.0164 4.97106 42.9646 5.29234 42.9313C5.17764 41.8404 5.00127 40.7557 4.85636 39.6685C4.53076 39.7166 4.20639 39.7703 3.87956 39.8091C3.85798 39.613 3.83454 39.4175 3.80371 39.2227ZM5.43479 40.1779C5.50262 40.834 5.61054 41.4865 5.69502 42.1414C6.62865 41.9866 7.57091 41.8861 8.50207 41.7226C8.42746 41.2521 8.37381 40.7791 8.30104 40.3086C7.35385 40.435 6.33758 40.5769 5.43479 40.1779Z" fill="black"></path><path d="M44.3533 41.5481C44.3317 41.376 44.521 41.3138 44.6363 41.2385C44.9323 41.5031 45.3214 41.7109 45.4657 42.1037C45.5754 42.4725 45.3232 42.8 45.1376 43.0935C44.8861 43.4752 44.4205 43.709 43.9648 43.638C43.8643 43.6183 43.8421 43.4956 43.7965 43.4216C43.9858 43.1502 44.312 43.0602 44.5999 42.9363C44.8928 42.824 45.0562 42.4824 44.9989 42.1821C44.8824 41.8842 44.5093 41.817 44.3533 41.5481Z" fill="black"></path><path d="M5.56311 44.1845C6.79335 43.8533 8.0199 43.5068 9.25199 43.1824C9.30441 43.4087 9.36978 43.6319 9.42281 43.8583C8.46205 44.1185 7.50005 44.3757 6.54237 44.6482C7.67148 45.0195 8.79689 45.4 9.92539 45.7731C9.99384 46.0222 10.0722 46.2701 10.1129 46.5261C8.88754 46.856 7.66347 47.1933 6.43939 47.5288C6.38512 47.3006 6.32161 47.0755 6.26487 46.8486C7.22009 46.5834 8.1827 46.3404 9.13174 46.0561C8.00942 45.6763 6.88339 45.3069 5.75921 44.9313C5.69384 44.6822 5.62786 44.4336 5.56311 44.1845Z" fill="black"></path><path d="M43.395 45.8624C43.4616 45.7268 43.6263 45.7755 43.7453 45.7884C43.8113 46.2047 43.8236 46.6925 43.506 47.0163C43.2532 47.0675 43.107 47.3111 42.8677 47.3826C42.6907 47.4135 42.5859 47.2439 42.5662 47.0928C42.7216 46.8368 43.0971 46.8948 43.2458 46.6364C43.395 46.4039 43.271 46.1017 43.395 45.8624Z" fill="black"></path><path d="M6.56689 49.0207C7.69108 48.4256 8.8276 47.8539 9.94871 47.2539C10.0708 47.4525 10.1627 47.6677 10.2755 47.8724C9.81613 48.1172 9.35362 48.3553 8.88927 48.5902C9.14334 49.1557 9.44612 49.6984 9.70636 50.2614C10.188 50.061 10.6375 49.7859 11.105 49.5541C11.219 49.7582 11.3165 49.9716 11.4256 50.1794C10.2854 50.7535 9.16122 51.3591 8.02223 51.935C7.91925 51.7272 7.8175 51.5188 7.71205 51.3128C8.23992 51.0501 8.75915 50.7689 9.28579 50.5037C9.00582 49.9432 8.72154 49.3851 8.44835 48.8221C7.92973 49.1021 7.39878 49.3586 6.88078 49.6404C6.77225 49.4351 6.67111 49.2272 6.56689 49.0207Z" fill="black"></path><path d="M65.099 48.199C65.3001 47.8346 65.6657 47.4997 66.1036 47.5034C66.4532 47.5503 66.8029 47.6971 67.0526 47.9524C67.324 48.2909 67.3443 48.7756 67.1797 49.1678C66.9231 49.8012 66.6339 50.4209 66.3675 51.0499C65.1995 50.5344 64.0396 50.001 62.8784 49.4706C62.9777 49.2622 63.0659 49.0494 63.1578 48.8385C63.6215 49.0359 64.0723 49.2646 64.5391 49.4546C64.7222 49.0346 64.8888 48.606 65.099 48.199ZM65.4425 48.6233C65.2742 48.9613 65.1391 49.3158 64.9775 49.6575C65.3858 49.8394 65.7835 50.0546 66.2078 50.1977C66.3564 49.7444 66.6814 49.3306 66.6734 48.8398C66.6795 48.4451 66.2719 48.2015 65.9192 48.2077C65.6984 48.2471 65.5492 48.4414 65.4425 48.6233Z" fill="black"></path><path d="M62.7898 49.8855C62.9273 49.9681 63.0883 50.0261 63.2036 50.142C63.0155 50.5348 62.7528 50.8907 62.5832 51.2927C63.539 51.8446 64.4868 52.4126 65.4395 52.9701C65.339 53.1791 65.2132 53.3746 65.1078 53.5812C64.1396 53.0274 63.1838 52.4521 62.2213 51.889C62.0098 52.2726 61.7865 52.6494 61.5781 53.0342C61.4313 52.9571 61.2895 52.8732 61.1489 52.7888C61.6977 51.8218 62.2478 50.8561 62.7898 49.8855Z" fill="black"></path><path d="M10.4219 51.6725C10.9417 51.3759 11.6139 51.3222 12.1473 51.6127C12.5543 51.8686 12.8232 52.2935 13.0131 52.7252C13.2814 53.3172 13.0766 54.1035 12.5327 54.4654C12.4273 54.2829 12.3083 54.1084 12.2102 53.9215C12.521 53.6687 12.6653 53.2204 12.529 52.8393C12.418 52.5648 12.238 52.2997 11.9703 52.1591C11.522 51.9963 11.0243 52.1437 10.6291 52.378C10.1709 52.6462 9.72317 53.0434 9.62821 53.5916C9.56346 54.0887 9.88598 54.6881 10.4163 54.7596C10.6784 54.8163 10.9454 54.7362 11.1773 54.6159C11.2944 54.8065 11.4153 54.9958 11.5275 55.19C11.1668 55.3541 10.7598 55.4521 10.367 55.3504C9.91249 55.2727 9.58751 54.9033 9.35872 54.529C9.11945 54.138 8.9437 53.6687 9.04977 53.2068C9.25204 52.5229 9.78977 51.9802 10.4219 51.6725Z" fill="black"></path><path d="M60.7101 53.6094C61.127 53.4367 61.6222 53.4774 62.015 53.697C61.8929 53.874 61.7671 54.0485 61.6524 54.2304C61.3181 54.0707 60.892 54.0602 60.5923 54.2976C60.4042 54.4728 60.2532 54.6966 60.1755 54.9427C60.0632 55.3682 60.3105 55.785 60.5929 56.0854C60.9241 56.4091 61.3286 56.6718 61.7825 56.7816C62.1118 56.8556 62.4948 56.8204 62.747 56.5744C62.9881 56.329 63.1928 55.9824 63.1046 55.6272C63.0602 55.3478 62.8814 55.1153 62.6748 54.9334C62.7834 54.7398 62.9196 54.5646 63.0436 54.3815C63.4037 54.6948 63.6547 55.1412 63.6732 55.6247C63.6997 56.0619 63.4623 56.4566 63.2107 56.7939C62.9566 57.1325 62.6002 57.4402 62.1636 57.4834C61.632 57.5247 61.0943 57.3613 60.6577 57.0603C60.1045 56.6946 59.6044 56.1341 59.5791 55.4385C59.5286 54.9908 59.7604 54.5801 60.0071 54.2261C60.1989 53.98 60.4135 53.7297 60.7101 53.6094Z" fill="black"></path><path d="M13.2971 54.3696C13.4297 54.2697 13.5598 54.1686 13.693 54.0706C14.3541 54.9586 15.0077 55.8521 15.6694 56.7401C15.5455 56.8406 15.4265 56.9492 15.2902 57.033C15.0176 56.7093 14.7845 56.351 14.523 56.0168L14.4879 56.0044C13.6011 56.6686 12.7298 57.3543 11.8473 58.0246C11.7086 57.8378 11.5748 57.6466 11.4274 57.4665C12.3178 56.7907 13.1972 56.1 14.0901 55.4285C13.8237 55.0763 13.5752 54.7119 13.2971 54.3696Z" fill="black"></path><path d="M14.9953 57.6683C15.2969 57.3711 15.5904 57.0646 15.9024 56.7778C16.3545 57.278 16.8293 57.7571 17.2868 58.2523C17.5039 58.494 17.6513 58.8128 17.6279 59.1434C17.5865 59.4135 17.3824 59.625 17.1709 59.7816C16.8946 59.9845 16.4969 59.9611 16.2182 59.7748C16.3933 60.0819 16.4815 60.4865 16.3039 60.8121C16.1337 61.0655 15.9006 61.3067 15.5978 61.3899C15.2105 61.4399 14.8412 61.232 14.5742 60.9669C14.095 60.4822 13.6393 59.974 13.1608 59.4881C13.7534 58.8628 14.3885 58.28 14.9953 57.6683ZM16.006 57.635C15.7483 57.8854 15.4911 58.1376 15.2438 58.3991C15.4387 58.6285 15.6545 58.8431 15.8617 59.0638C16.0437 59.2575 16.3138 59.4295 16.5888 59.353C16.7904 59.2636 16.9847 59.0583 16.9477 58.8215C16.9224 58.494 16.6387 58.2825 16.4322 58.0593C16.2885 57.9236 16.1664 57.7306 16.006 57.635ZM14.4897 59.1298C14.3293 59.3 14.1388 59.4449 13.9988 59.633C14.0278 59.7163 14.1061 59.7687 14.1622 59.834C14.3935 60.0542 14.5883 60.3113 14.8332 60.5173C15.0188 60.6567 15.2876 60.7831 15.5072 60.6419C15.6539 60.529 15.7927 60.3816 15.8365 60.1966C15.8735 59.9722 15.7927 59.744 15.6558 59.5683C15.4165 59.2883 15.1458 59.0367 14.9072 58.7567C14.7388 58.8443 14.629 59.0052 14.4897 59.1298Z" fill="black"></path><path d="M58.296 56.9561C58.7036 56.8211 59.1526 56.8945 59.5312 57.0838C59.9826 57.3323 60.3556 57.7085 60.6356 58.1395C60.8927 58.541 61.0241 59.043 60.9106 59.5147C60.791 60.0278 60.4321 60.4558 60.0072 60.7518C59.7211 60.9559 59.3708 61.0719 59.0181 61.054C58.489 61.0435 58.0148 60.7438 57.6504 60.3806C57.2736 59.9914 56.9302 59.5178 56.8839 58.961C56.784 58.0631 57.4839 57.2423 58.296 56.9561ZM58.2245 57.55C57.7959 57.751 57.3982 58.2049 57.4913 58.7094C57.5937 59.3106 58.0155 59.8021 58.4915 60.1567C58.7727 60.3337 59.102 60.4922 59.4442 60.4465C59.8074 60.3719 60.0855 60.0809 60.2656 59.7713C60.4672 59.3914 60.2853 58.9548 60.0997 58.6082C59.874 58.2499 59.5676 57.9348 59.2068 57.7128C58.9121 57.5555 58.5532 57.4032 58.2245 57.55Z" fill="black"></path><path d="M55.3947 59.6583C55.56 59.4973 55.7542 59.3709 55.933 59.2253C56.694 60.2638 57.4759 61.2882 58.2202 62.3384C58.0364 62.4716 57.8588 62.6134 57.6769 62.7497C57.3365 62.2601 56.9665 61.7926 56.6212 61.3073C56.1334 61.6933 55.6303 62.0596 55.1468 62.4512C55.4662 62.8737 55.7764 63.3035 56.0952 63.7265C56.1223 63.7796 56.2247 63.861 56.1501 63.9196C55.9972 64.0583 55.8208 64.1669 55.6636 64.3001C54.9316 63.3164 54.2083 62.3267 53.4757 61.3437C53.4442 61.2906 53.3561 61.2024 53.4338 61.1513C53.6021 61.0347 53.7409 60.862 53.9419 60.8028C54.2305 61.2265 54.5493 61.6273 54.8471 62.0442C55.3528 61.6822 55.8319 61.2851 56.332 60.9157C56.015 60.5 55.7141 60.0721 55.3947 59.6583Z" fill="black"></path><path d="M18.28 59.6703C18.7554 59.5439 19.2654 59.6789 19.6638 59.9534C20.1078 60.2321 20.4722 60.6773 20.5561 61.2058C20.6541 61.7831 20.4272 62.3652 20.093 62.8284C19.76 63.3303 19.2457 63.7682 18.6253 63.8231C18.0937 63.8804 17.5875 63.6202 17.1946 63.2835C16.7994 62.9492 16.5472 62.4392 16.5657 61.9175C16.5891 61.3785 16.8413 60.8771 17.1712 60.4603C17.4512 60.0958 17.8292 59.7881 18.28 59.6703ZM18.5969 60.2352C18.0765 60.427 17.6997 60.8704 17.4438 61.3471C17.2575 61.6961 17.157 62.1093 17.2415 62.5021C17.3698 62.8666 17.7194 63.1139 18.074 63.2335C18.4668 63.3562 18.851 63.1089 19.1365 62.8623C19.5774 62.4133 19.9499 61.8262 19.9369 61.175C19.9425 60.8778 19.7396 60.6292 19.5139 60.4597C19.2623 60.2561 18.9164 60.1279 18.5969 60.2352Z" fill="black"></path><path d="M50.3867 63.6876C50.3922 62.7219 51.427 61.9486 52.3526 62.1952C52.9513 62.3383 53.3768 62.8329 53.6845 63.3367C53.8498 63.6438 54.02 63.9608 54.0607 64.3123C54.1667 64.916 53.8831 65.5617 53.3731 65.8996C52.968 66.2252 52.3895 66.3171 51.916 66.0889C52.2397 66.6322 52.577 67.1669 52.9045 67.7077C52.7139 67.8304 52.5215 67.9501 52.3328 68.0752C51.4035 66.5878 50.494 65.0881 49.5801 63.5908C49.7614 63.4718 49.9439 63.3552 50.1283 63.2411C50.2146 63.3891 50.3028 63.5371 50.3867 63.6876ZM51.5225 62.8144C50.912 62.9698 50.6309 63.6913 50.8208 64.258C50.9614 64.6552 51.171 65.0344 51.4559 65.3465C51.8068 65.7424 52.4469 65.9101 52.9125 65.6196C53.3546 65.3687 53.5106 64.7736 53.3509 64.3098C53.2091 63.8948 52.9815 63.5075 52.6843 63.185C52.3902 62.8822 51.9437 62.6855 51.5225 62.8144Z" fill="black"></path><path d="M26.4193 63.2283C26.9207 62.9175 27.5466 62.9607 28.0892 63.1253C28.6486 63.2844 29.2375 63.5459 29.531 64.0793C29.814 64.5091 29.8646 65.0487 29.753 65.5439C29.5248 65.4686 29.2936 65.4014 29.0654 65.3286C29.0432 65.1387 29.0981 64.9377 29.0432 64.749C28.9575 64.4302 28.7781 64.1163 28.4771 63.9584C27.9314 63.6464 27.1815 63.5039 26.6438 63.9097C26.2047 64.2581 25.9309 64.7761 25.7583 65.3015C25.5492 65.92 25.5461 66.6236 25.8267 67.2206C26.0808 67.7305 26.6567 67.992 27.2006 68.0456C27.7902 68.1116 28.3587 67.6991 28.561 67.157C28.8077 67.2107 29.0445 67.2995 29.2862 67.3735C29.0728 67.8859 28.6775 68.3312 28.1589 68.5458C27.5817 68.8331 26.9065 68.6833 26.3354 68.457C25.712 68.2294 25.1903 67.7311 24.9529 67.1096C24.6439 66.3887 24.8363 65.5765 25.0929 64.8705C25.3223 64.1897 25.7731 63.5644 26.4193 63.2283Z" fill="black"></path><path d="M47.8684 64.213C48.2575 64.0804 48.712 63.978 49.0943 64.1871C49.4057 64.3184 49.5876 64.6292 49.6838 64.9394C49.8645 65.5129 50.0458 66.087 50.2277 66.6605C50.2604 66.7592 50.3066 66.8548 50.3763 66.9343C50.4929 66.98 50.6143 66.922 50.7327 66.9109C50.7827 67.0681 50.8413 67.2229 50.8733 67.3863C50.6359 67.4739 50.393 67.6053 50.1321 67.5528C49.9761 67.5091 49.8836 67.3728 49.7751 67.2649C49.6147 67.8242 49.0647 68.167 48.5276 68.2965C48.1391 68.4075 47.6655 68.3755 47.3825 68.0554C47.0464 67.6842 46.8965 67.0287 47.269 66.6309C47.7031 66.1863 48.2766 65.9175 48.8341 65.6628C48.9432 65.5993 49.0869 65.5178 49.0739 65.3711C49.0554 65.0917 48.9377 64.7711 48.6589 64.6595C48.3136 64.5417 47.9461 64.6804 47.6427 64.8488C47.3399 65.0282 47.1882 65.4118 47.3202 65.7466C47.1167 65.8169 46.9113 65.8842 46.7109 65.9631C46.5925 65.6437 46.6079 65.2724 46.7886 64.9795C47.0045 64.5682 47.4509 64.361 47.8684 64.213ZM47.808 66.8135C47.5613 67.2044 47.8715 67.8038 48.3426 67.8014C48.7533 67.7779 49.1701 67.5467 49.3416 67.16C49.558 66.7536 49.3971 66.2893 49.2824 65.8786C48.8415 66.2646 48.1989 66.359 47.808 66.8135Z" fill="black"></path><path d="M42.7274 65.8475C43.6104 65.5953 44.4966 65.3554 45.3846 65.1211C45.6602 66.2138 45.9513 67.3029 46.2411 68.3925C46.4502 68.3315 46.6605 68.2735 46.8726 68.2217C46.9725 68.7126 47.1001 69.1985 47.1889 69.6918C47.0046 69.7375 46.8214 69.788 46.637 69.8337C46.5612 69.5148 46.4693 69.201 46.3947 68.8821C45.8791 68.9864 45.3784 69.1535 44.869 69.2836C44.3375 69.4322 43.8004 69.5617 43.275 69.7288C43.3681 70.0476 43.4476 70.3714 43.529 70.6939C43.3403 70.734 43.1553 70.7864 42.9703 70.8413C42.8365 70.3554 42.6447 69.8824 42.5547 69.3872C42.7064 69.357 42.8556 69.3169 43.0042 69.2737C43.3607 68.1409 43.0437 66.9489 42.7274 65.8475ZM43.4846 66.1485C43.5512 66.5191 43.6659 66.8792 43.7313 67.2504C43.8287 67.8554 43.8688 68.4881 43.7042 69.0863C44.3245 68.9124 44.9467 68.7434 45.569 68.575C45.3383 67.6408 45.0787 66.7133 44.8419 65.7809C44.3893 65.9018 43.9385 66.0307 43.4846 66.1485Z" fill="black"></path><path d="M31.0494 65.844C31.5557 65.7133 32.1021 65.8107 32.5652 66.042C33.1319 66.3269 33.4754 66.9627 33.468 67.5892C33.4686 68.1578 33.3336 68.74 33.0258 69.2234C32.7878 69.5984 32.395 69.8765 31.9584 69.9647C31.3793 70.0485 30.754 69.9172 30.2897 69.5515C29.8518 69.2 29.6428 68.6259 29.6644 68.0746C29.6847 67.6164 29.792 67.1576 29.9992 66.7468C30.2163 66.3281 30.5881 65.9729 31.0494 65.844ZM31.3491 66.3312C31.2646 66.354 31.1814 66.3879 31.1105 66.4397C30.7435 66.7413 30.5258 67.189 30.4383 67.6497C30.3322 68.0906 30.331 68.5784 30.5382 68.9903C30.68 69.2752 31.0013 69.4029 31.2967 69.4602C31.5859 69.5238 31.9282 69.4806 32.1347 69.2493C32.543 68.8466 32.7095 68.2663 32.7594 67.7107C32.7711 67.2988 32.7329 66.803 32.3765 66.5341C32.0768 66.3448 31.6988 66.2535 31.3491 66.3312Z" fill="black"></path><path d="M40.8041 66.0954C41.0538 66.0719 41.3042 66.0498 41.5546 66.0312C41.6508 67.3232 41.7963 68.612 41.8685 69.9052C41.6428 69.9212 41.4183 69.9477 41.1932 69.9625C41.1266 69.0437 41.0366 68.1267 40.965 67.2085C40.9589 67.1228 40.941 67.037 40.9256 66.955C40.3632 68.0138 39.8162 69.0813 39.2544 70.1407C39.0034 70.158 38.7524 70.1796 38.5027 70.2092C38.4009 68.9123 38.2684 67.6186 38.1796 66.3211C38.4077 66.3118 38.6359 66.289 38.8634 66.2674C38.9424 67.2794 39.0207 68.2932 39.1274 69.3027C39.6768 68.2291 40.2368 67.1597 40.8041 66.0954Z" fill="black"></path><path d="M34.6339 68.7218C34.7683 67.9238 34.7701 67.1116 34.8626 66.3093C35.7414 66.3778 36.6238 66.4 37.5032 66.4623C37.4631 67.7536 37.3614 69.0431 37.3225 70.335C37.0919 70.3369 36.8619 70.3196 36.6319 70.3085C36.672 69.1769 36.749 68.0471 36.7984 66.9161C36.3568 66.9044 35.9165 66.8668 35.475 66.8576C35.3794 67.6808 35.4084 68.5263 35.1593 69.3255C35.0748 69.5962 34.9804 69.904 34.7165 70.0538C34.4156 70.2431 34.0425 70.2006 33.7089 70.1482C33.7261 69.9755 33.7335 69.8028 33.736 69.6308C33.9469 69.6764 34.2016 69.685 34.3638 69.5167C34.5605 69.3008 34.5771 68.9937 34.6339 68.7218Z" fill="black"></path><path d="M0.173096 0.172363C16.5462 0.17668 32.9193 0.17113 49.2931 0.175447C48.2053 1.24598 47.1255 2.32638 46.0549 3.41418C46.2751 3.51716 46.515 3.5628 46.7468 3.6331C51.2966 4.96695 55.5646 7.25293 59.201 10.2931C64.6086 14.7917 68.6317 20.9528 70.4891 27.7435C70.5089 27.8033 70.5317 27.8632 70.5576 27.9217C70.8721 29.1982 71.1687 30.4821 71.3555 31.7845C72.2392 37.5861 71.6213 43.6116 69.5543 49.1067C67.8917 53.5584 65.2937 57.6549 61.9927 61.0719C58.5357 64.6621 54.3029 67.5068 49.6624 69.3297C45.548 70.949 41.1185 71.7785 36.6958 71.7088C33.7975 71.7205 30.909 71.2944 28.105 70.5753C25.6926 69.9081 23.3382 69.0213 21.1176 67.8639C16.0325 65.2387 11.6172 61.3395 8.37415 56.6263C6.31818 53.6448 4.72903 50.3407 3.69426 46.8688C3.60855 46.587 3.5549 46.2935 3.4254 46.0265C2.35055 47.1223 1.24856 48.1928 0.176179 49.2911C0.171246 32.918 0.176796 16.5455 0.173096 0.172363ZM37.7071 3.73916C37.6633 4.86643 37.5819 5.99246 37.5443 7.12035C37.1059 7.11541 36.6687 7.07348 36.2308 7.05868C36.2277 7.22395 36.2247 7.38921 36.2179 7.55386C37.3106 7.62478 38.4058 7.6624 39.4986 7.73886C39.5189 7.57175 39.5232 7.40401 39.5214 7.23566C39.0946 7.20668 38.6667 7.19188 38.2399 7.15858C38.2708 6.02823 38.3682 4.89973 38.3947 3.76938C38.1647 3.77246 37.9365 3.7478 37.7071 3.73916ZM33.5422 3.95315C33.232 3.98521 32.9236 4.10485 32.7109 4.3398C32.3841 4.64381 32.4167 5.14331 32.5105 5.54106C32.619 5.99986 33.0994 6.26195 33.5434 6.28168C34.0361 6.30203 34.5245 6.20645 35.016 6.18486C35.0474 6.68745 35.1147 7.18695 35.1319 7.69015C35.3644 7.70865 35.5944 7.65808 35.8275 7.65561C35.7233 6.36 35.6086 5.06561 35.497 3.77061C34.8458 3.83968 34.1921 3.87791 33.5422 3.95315ZM41.068 4.11965C40.5241 4.32438 40.1608 4.85225 40.0406 5.40786C40.2614 5.43006 40.4821 5.45905 40.7047 5.472C40.7695 5.09953 40.9822 4.73076 41.3473 4.58708C41.8049 4.44401 42.3753 4.6247 42.6016 5.06561C42.8803 5.61198 42.839 6.26441 42.675 6.83915C42.5541 7.19065 42.3395 7.57236 41.9609 7.68583C41.6661 7.73825 41.3448 7.72221 41.076 7.58161C40.7769 7.4108 40.6215 7.06731 40.6042 6.7337C40.4001 6.68128 40.1763 6.68498 39.9641 6.6597C39.9592 7.09445 40.1578 7.51995 40.4679 7.81965C40.886 8.17361 41.47 8.23528 41.9973 8.20568C42.4721 8.18101 42.8699 7.85788 43.1381 7.48788C43.4631 6.96865 43.5451 6.32916 43.5019 5.72791C43.4279 5.1464 43.1825 4.49088 42.6016 4.24853C42.1225 4.05305 41.5712 3.96918 41.068 4.11965ZM45.5172 5.18956C45.0566 5.2981 44.6755 5.62925 44.4417 6.03255C44.1661 6.51848 44.007 7.08273 44.0255 7.64328C44.0403 8.22726 44.3795 8.78411 44.8882 9.06778C45.3273 9.30766 45.8471 9.42483 46.3442 9.32925C46.8622 9.2127 47.2852 8.81926 47.5164 8.3506C47.7674 7.84986 47.9086 7.28006 47.847 6.7189C47.7853 6.13615 47.3894 5.6089 46.8554 5.37271C46.4404 5.1871 45.9668 5.07671 45.5172 5.18956ZM49.1407 6.65353C48.8108 6.77933 48.6431 7.13391 48.5598 7.4552C48.4698 7.83568 48.6998 8.19458 48.9761 8.43508C48.6573 8.39623 48.3101 8.50476 48.1146 8.7687C47.9826 8.96356 47.8846 9.19235 47.8778 9.43038C47.9228 9.81456 48.2281 10.1124 48.5605 10.2783C49.15 10.57 49.75 10.8395 50.3396 11.1311C50.8896 9.96133 51.4218 8.78288 51.9552 7.60505C51.357 7.32693 50.765 7.03525 50.1669 6.75898C49.8511 6.6079 49.4793 6.5524 49.1407 6.65353ZM50.844 11.2798C51.0641 11.4086 51.2541 11.6171 51.4878 11.704C52.5873 11.2711 53.6745 10.8037 54.7721 10.3659C54.2067 11.2033 53.6227 12.029 53.0597 12.8683C53.2551 12.9873 53.4327 13.1316 53.6251 13.2549C54.3547 12.1986 55.0694 11.1324 55.8106 10.0847C55.6083 9.92926 55.3937 9.79051 55.1921 9.63511C54.0858 10.0748 52.9943 10.5515 51.8837 10.9776C52.4485 10.1531 53.0208 9.33295 53.5783 8.50291C53.4161 8.34381 53.2089 8.23713 53.0325 8.09468C52.3005 9.15535 51.5735 10.2185 50.844 11.2798ZM8.03806 9.93358C7.92953 10.4386 7.80003 10.9394 7.70506 11.4469C7.02488 11.437 6.32681 11.5542 5.73975 11.9137C4.64146 12.5778 3.91503 13.7211 3.53455 14.9261C3.22868 15.9072 3.0369 16.9432 3.1257 17.9737C3.196 18.7414 3.5401 19.524 4.19068 19.9704C4.67106 20.3041 5.27355 20.383 5.8452 20.3633C5.73975 20.8584 5.64786 21.3567 5.52946 21.8488C6.1005 21.8463 6.67153 21.842 7.24256 21.8519C7.34678 21.3555 7.4436 20.8578 7.55213 20.3626C8.40436 20.4101 9.2714 20.1542 9.93801 19.6159C10.9592 18.8315 11.5494 17.6197 11.8639 16.3962C12.0883 15.4953 12.24 14.5524 12.092 13.6268C11.9995 13.0255 11.7461 12.4298 11.2854 12.0198C10.7816 11.5505 10.0613 11.4315 9.39658 11.4512C9.50326 10.9455 9.58713 10.4355 9.69998 9.93111C9.14621 9.92988 8.59183 9.92495 8.03806 9.93358ZM11.632 21.4807C12.2086 21.4807 12.7845 21.4794 13.3611 21.4807C13.683 19.9174 14.0086 18.3542 14.3336 16.7915C15.1451 16.7946 15.9573 16.7934 16.7694 16.7921C16.4537 18.3572 16.1152 19.918 15.8031 21.4837C16.3711 21.4757 16.9396 21.4831 17.5076 21.4794C18.2581 17.8269 19.0209 14.1769 19.7769 10.5256C19.2077 10.5311 18.6379 10.5268 18.0688 10.5274C17.79 11.8952 17.5045 13.2605 17.2196 14.6264C16.4087 14.6178 15.5978 14.6239 14.7875 14.6239C15.0607 13.2568 15.3505 11.8933 15.6329 10.528C15.0576 10.5268 14.4828 10.5311 13.9075 10.5256C13.1496 14.1775 12.3973 17.8306 11.632 21.4807ZM18.7082 21.4813C19.2799 21.4782 19.8515 21.4819 20.4232 21.4794C21.0152 18.5595 21.6368 15.6451 22.2313 12.7252C23.081 12.7221 23.9308 12.7215 24.7806 12.7252C24.1738 15.6433 23.5707 18.5626 22.9626 21.4807C23.53 21.4794 24.0973 21.4819 24.6646 21.4788C25.4096 17.8257 26.1798 14.1775 26.9303 10.5256C24.9514 10.5268 22.9725 10.5348 20.9936 10.5219C20.2172 14.1713 19.4815 17.8306 18.7082 21.4813ZM26.0194 21.4819C26.5997 21.4788 27.18 21.4807 27.7603 21.48C28.0094 20.2412 28.2734 19.0054 28.5274 17.7677C28.9862 17.7696 29.445 17.7671 29.9038 17.7689C30.28 17.7751 30.6629 17.7492 31.0206 17.6234C31.7168 17.3989 32.2416 16.8298 32.6116 16.2193C33.1919 15.2085 33.4984 14.0486 33.5545 12.8874C33.5452 12.2781 33.4682 11.6245 33.0877 11.1244C32.7275 10.6779 32.1281 10.5139 31.5744 10.5274C30.4761 10.5268 29.3772 10.5311 28.2795 10.5256C27.5408 14.1806 26.7594 17.8269 26.0194 21.4819ZM56.9915 11.0263C56.1714 12.005 55.3395 12.9737 54.5082 13.9425C55.1736 14.5419 55.8371 15.145 56.5216 15.7216C57.0908 15.092 57.6242 14.4248 58.2582 13.8574C58.4432 13.7088 58.6337 13.5059 58.8915 13.5195C59.1005 13.5139 59.2621 13.6675 59.3891 13.8149C59.4989 13.686 59.6062 13.5546 59.724 13.4319C59.5347 13.2321 59.3398 13.02 59.0777 12.9176C58.8477 12.827 58.5807 12.8566 58.3729 12.9879C57.5508 13.4591 56.9897 14.2447 56.3527 14.9236C56.0049 14.6406 55.6867 14.323 55.3376 14.0418C56.0567 13.1779 56.7961 12.3312 57.5206 11.4722C57.3406 11.3279 57.1827 11.157 56.9915 11.0263ZM59.5877 13.7433C59.7375 13.9043 59.8862 14.0677 60.036 14.2299C59.2306 15.0057 58.4148 15.7697 57.6076 16.5436C58.2279 17.225 58.8489 17.9065 59.4755 18.5836C60.0113 18.0693 60.5324 17.518 61.1929 17.1609C61.5512 16.9636 61.9279 16.7619 62.3454 16.7403C62.4355 16.8643 62.5421 16.9747 62.6507 17.0838C62.9942 16.7286 63.3444 16.3808 63.6836 16.0213C63.5393 15.8955 63.4363 15.7142 63.2797 15.6106C63.0398 15.8277 62.8092 16.0565 62.5742 16.2785C61.833 15.4823 61.1053 14.6733 60.369 13.8722C60.6144 13.6478 60.8482 13.411 61.0917 13.1846C60.9635 13.0502 60.8297 12.9201 60.7187 12.7709C60.3215 13.0699 59.97 13.4251 59.5877 13.7433ZM62.3572 18.0723C62.441 18.2882 62.5878 18.4719 62.7043 18.6711C63.4258 18.3856 64.1294 19.1645 64.0795 19.8564C64.0203 20.3084 63.7157 20.679 63.3549 20.9368C62.8344 20.0888 62.3152 19.2409 61.7972 18.3924C61.2576 18.6933 60.7587 19.1478 60.6003 19.7669C60.4214 20.3744 60.752 20.9873 61.13 21.4449C61.5653 22.0178 62.4096 22.2188 63.062 21.9216C63.5455 21.7051 64.008 21.4067 64.3385 20.9855C64.6573 20.5279 64.7399 19.9088 64.5321 19.3889C64.3465 18.9215 64.0678 18.4652 63.6398 18.1852C63.2581 17.9472 62.7765 17.9422 62.3572 18.0723ZM56.624 19.3729C54.8634 20.5427 53.1719 21.8137 51.4033 22.9711C50.6374 23.4404 49.7981 23.8363 49.1938 24.5214C48.8108 24.5658 48.4236 24.551 48.0394 24.572C45.2181 24.5732 42.4074 24.0818 39.5849 24.3056C39.4215 24.3186 39.2735 24.3963 39.1212 24.4487C38.3904 24.7157 37.6627 24.9944 36.9314 25.2584C36.1093 25.3478 35.3194 25.7042 34.7299 26.287C33.7796 27.1891 33.2048 28.3941 32.3446 29.3709C32.2083 29.5436 31.9888 29.6052 31.7964 29.691C30.8079 30.0727 29.6652 30.0622 28.779 30.6918C27.9188 31.7981 26.839 32.7034 25.7771 33.6074C25.0525 34.2173 24.3094 34.8099 23.6508 35.4926C22.9207 36.1672 22.0197 36.6389 21.3414 37.3734C20.9319 37.7798 20.6618 38.3089 20.5163 38.8633C20.3979 38.8916 20.2555 38.8811 20.166 38.9767C19.9218 39.2357 19.6036 39.4065 19.2984 39.5829C18.6663 39.935 18.0089 40.2397 17.3491 40.5363C16.0523 41.0999 14.7388 41.6339 13.3846 42.0465C12.9942 42.1544 12.6008 42.2876 12.1901 42.2808C12.2166 42.4017 12.2413 42.5244 12.2635 42.6465C14.2047 41.999 16.1355 41.3151 18.0737 40.6547C18.8445 40.3698 19.4297 39.7562 20.1599 39.3942C20.224 39.3498 20.2955 39.3726 20.2826 39.4627C20.2067 39.7056 19.9194 39.9085 20.0476 40.1885C20.1987 40.2446 20.3646 40.2057 20.4768 40.0904C20.6742 39.866 20.7365 39.565 20.8703 39.3054C20.9634 39.1315 20.9893 38.9342 21.0584 38.7516C21.2508 38.1818 21.6158 37.6879 22.0308 37.2599C22.8609 36.4305 23.8858 35.836 24.7571 35.056C24.9884 34.8543 25.1617 34.5762 25.457 34.4609C26.5485 33.8818 27.2485 32.8286 28.0655 31.9424C28.7038 31.2406 29.5061 30.6227 30.4638 30.4643C30.8529 30.4334 31.2044 30.2509 31.5799 30.1627C30.5501 30.9804 29.8064 32.1108 29.3124 33.3194C28.8068 34.4997 28.5145 35.7565 28.2351 37.0052C28.1821 37.3093 28.0822 37.6096 28.1032 37.9216C28.1038 38.5327 28.0384 39.1901 28.3252 39.7537C28.594 40.2939 29.2082 40.5024 29.7478 40.6627C30.3355 40.836 31.004 40.757 31.493 40.371C31.5997 40.3001 31.6114 40.162 31.6576 40.0534C32.5487 39.7352 33.2677 39.052 33.7611 38.2571C34.4104 37.2612 34.736 36.1018 35.0259 34.961C35.587 34.6391 36.1038 34.242 36.5984 33.8239C37.2107 33.3422 37.857 32.8205 38.6543 32.712C39.1501 32.6022 39.6268 32.8113 40.0875 32.963C41.7266 33.246 43.3848 33.4465 44.9912 33.8923C46.0685 34.1945 47.1711 34.5447 48.0665 35.2397C48.3274 35.4907 48.6684 35.6239 48.9705 35.8151C51.1209 37.0829 53.0091 38.7479 55.1884 39.9714C55.4092 40.0725 55.4517 40.3408 55.5097 40.5511C55.6164 41.1795 55.3894 41.8183 55.062 42.348C54.782 42.62 54.4139 42.8075 54.0247 42.8537C53.6005 42.8969 53.1713 42.8284 52.7698 42.6897C52.0212 42.4652 51.3336 42.0687 50.5683 41.8954C48.986 41.1363 47.316 40.5825 45.664 39.9967C45.4623 39.9178 45.3612 40.1761 45.3711 40.3377C47.8137 41.2744 50.2563 42.2118 52.7008 43.1435C52.9776 43.2219 53.0769 43.5327 53.1645 43.7756C53.2718 44.3066 53.1522 44.8782 52.8506 45.3265C52.5293 45.6861 52.015 45.7662 51.5568 45.7335C50.7206 45.6589 49.8937 45.5066 49.0791 45.3056C47.2803 44.9245 45.4814 44.5341 43.6617 44.269C43.5168 44.2178 43.3953 44.3331 43.3342 44.4515C43.3274 44.5724 43.4131 44.671 43.4594 44.7771C45.1238 45.144 46.8554 45.1662 48.4828 45.7027C48.4717 45.7816 48.492 45.8612 48.5506 45.9198C48.8238 46.2559 49.2443 46.4125 49.5681 46.6888C49.787 46.8836 49.903 47.1987 49.8222 47.4867C49.7451 47.956 49.4213 48.3371 49.0464 48.6091C48.2133 48.6701 47.3839 48.5375 46.5538 48.4814C46.0414 48.4666 45.5283 48.487 45.0159 48.474C44.0798 48.4062 43.1554 48.2292 42.2174 48.1848C42.1471 48.2625 42.067 48.3365 42.0226 48.4339C42.0078 48.5307 42.0818 48.6121 42.1163 48.6979C43.7079 48.8193 45.2977 48.9661 46.8899 49.0759C46.9769 49.5032 47.0694 50.0237 46.7456 50.3789C46.5162 50.5281 46.2356 50.5756 45.9742 50.6459C44.4763 50.9727 42.9439 50.5762 41.4349 50.7452C41.2406 50.1322 41.2277 49.4847 41.2079 48.8483C41.1765 48.2261 41.1426 47.562 40.7948 47.023C40.5043 46.5821 39.9758 46.3638 39.4646 46.3243C39.2469 46.3373 39.0626 46.4717 38.8708 46.5617C38.9707 45.9938 39.0151 45.305 38.5594 44.8714C37.8656 44.4675 36.9468 44.4059 36.2419 44.8203C36.1396 44.8881 36.0057 44.9492 35.9725 45.0793C35.8861 45.3284 35.7948 45.5757 35.7264 45.831C35.7073 45.3549 35.8146 44.861 35.6401 44.4028C35.5013 43.9779 35.1005 43.7183 34.7206 43.5308C34.041 43.2582 33.3306 43.5777 32.6776 43.7756C32.3791 44.5798 32.0763 45.3833 31.7773 46.188C31.5263 46.0209 31.5497 45.6176 31.2327 45.5294C30.6574 45.3284 30.1172 44.9165 29.482 44.967C29.2872 45.0922 29.0941 45.2254 28.919 45.3771C28.5169 46.3249 28.0951 47.2654 27.6487 48.1934C27.1381 49.2948 26.6096 50.39 26.202 51.5345C25.8585 51.4544 25.5132 51.3649 25.1586 51.3631C24.759 51.3699 24.3797 51.5068 23.9943 51.5937C23.6231 51.6782 23.2512 51.7732 22.909 51.9452C22.3984 52.1993 21.8532 52.372 21.3297 52.5952C20.097 53.0922 18.8661 53.593 17.6248 54.0666C17.6562 54.1325 17.6877 54.1998 17.7191 54.267C17.967 54.2065 18.1995 54.098 18.4406 54.0166C19.0326 53.7891 19.6394 53.5991 20.2148 53.3296C20.8882 53.0386 21.5702 52.7635 22.272 52.5465C22.835 52.2739 23.4227 52.0562 23.9974 51.8108C24.3921 51.6838 24.812 51.6905 25.2215 51.6961C25.5039 51.7023 25.7857 51.7528 26.0484 51.8577C25.935 52.3017 25.9424 52.7765 26.078 53.2149C26.2057 53.6207 26.3561 54.0561 26.7175 54.3145C27.3052 54.7467 28.0618 54.7874 28.7396 54.994C29.1342 54.6875 29.5344 54.3885 29.9285 54.0807C30.2146 54.5926 30.4724 55.1211 30.7548 55.636C31.0632 55.9893 31.5565 56.1046 32.0079 56.1275C32.3508 56.1349 32.7214 56.1379 33.0254 55.9548C33.6137 55.631 33.8036 54.8787 34.4246 54.5938C34.6318 54.9213 34.7841 55.3128 35.1381 55.5145C35.7091 55.8364 36.3893 55.7605 37.0183 55.8271C37.4463 55.3381 37.9513 54.8799 38.1789 54.2534C38.5039 54.4199 38.7635 54.7634 39.1551 54.756C40.0807 54.8349 41.047 54.2762 41.3892 53.4036C41.602 52.7327 41.4139 52.0186 41.5261 51.3335C42.1138 51.27 42.7027 51.1565 43.2966 51.2108C44.2376 51.2478 45.1972 51.4507 46.1271 51.2176C46.552 51.0911 47.012 50.9339 47.2901 50.567C47.5904 50.1119 47.329 49.5341 47.5689 49.0592C48.1917 49.1178 48.8978 49.3774 49.4602 48.9698C49.7031 48.7176 49.9369 48.4475 50.1243 48.1503C50.3389 47.8136 50.3556 47.4016 50.3439 47.0162C50.2181 46.5241 49.7247 46.2774 49.4176 45.9099C50.2958 46.0215 51.1653 46.2065 52.0514 46.2522C52.5756 46.1794 53.1047 45.8957 53.3729 45.4246C53.4852 45.1354 53.5955 44.8443 53.6893 44.5483C53.8182 44.1598 53.8071 43.7115 53.5832 43.3588C53.7892 43.5351 54.0901 43.4821 54.2646 43.2903C54.4268 43.1109 54.6587 43.0344 54.8973 43.0572C55.189 42.9462 55.4153 42.7069 55.5954 42.459C56.0215 41.7937 56.0308 40.9686 56.0184 40.2051C56.0388 39.9837 55.8704 39.816 55.7181 39.6822C55.3826 39.3763 54.8899 39.2703 54.6309 38.8768C55.4301 38.3829 55.7884 37.4579 56.0782 36.6118C56.3619 36.4829 56.6271 36.314 56.9169 36.1974C57.0803 36.1228 57.2666 36.169 57.4349 36.1135C59.1474 35.4932 60.8605 34.8734 62.5736 34.2537C62.5557 34.2043 62.5212 34.1044 62.5033 34.0545C60.6588 34.6009 58.8144 35.1472 56.9693 35.6924C56.5839 35.8262 56.2984 36.1993 55.8673 36.2104C55.7415 35.6486 55.3006 35.2465 55.0392 34.7519C54.7876 34.2759 54.4712 33.838 54.1641 33.3971C53.6603 32.6738 53.1818 31.8567 53.2101 30.9434C53.0954 30.915 52.9783 30.8996 52.8611 30.9107C52.76 31.9369 53.1873 32.9272 53.7201 33.7795C54.0457 34.3295 54.4607 34.8192 54.8301 35.3378C55.0238 35.7627 55.2889 36.1641 55.3808 36.6285C55.469 37.0725 55.2877 37.5306 55.0059 37.8692C54.7567 38.1411 54.3929 38.4088 54.4379 38.8244C52.4899 37.8513 50.9026 36.3207 49.0242 35.2342C49.5706 35.0282 50.0898 34.7513 50.5696 34.4189C51.2682 33.9262 51.8288 33.214 52.0594 32.3833C52.0773 32.1607 51.8843 31.9751 51.6666 31.9751C51.2454 33.4656 49.8863 34.5817 48.3872 34.8703C48.2645 34.8124 48.167 34.7143 48.0585 34.6354C47.39 34.1476 46.6395 33.7764 45.8508 33.5285C44.3616 33.029 42.794 32.8483 41.2505 32.5961C41.0895 32.1607 40.706 31.8709 40.4883 31.4713C40.3884 31.3048 40.3804 31.1062 40.3539 30.9194C40.2663 30.7979 40.0875 30.7855 39.9506 30.8071C39.9321 31.0427 39.9222 31.2881 40.0227 31.5083C40.1756 31.8567 40.3983 32.1675 40.5888 32.4956C40.4094 32.4875 40.2361 32.4135 40.1078 32.2871C39.5682 31.8308 39.485 31.039 38.9201 30.6018C38.7555 30.6591 38.6574 30.8435 38.7092 31.01C38.8264 31.2252 38.962 31.4306 39.0823 31.6452C37.8841 32.7052 36.4035 33.3681 35.151 34.3554C35.1134 34.0267 35.4026 33.7949 35.4501 33.4865C35.4637 33.288 35.238 33.2497 35.0937 33.2152C34.9038 33.7782 34.445 34.2346 34.3814 34.8432C34.3457 35.0517 34.5042 35.2558 34.4036 35.458C34.2365 35.9791 34.0558 36.4971 33.848 37.004C33.4484 37.9728 32.8441 38.9249 31.8839 39.4158C31.8019 38.6326 32.3952 37.8846 32.0911 37.1107C31.9653 36.9633 31.8112 36.8412 31.6952 36.6846C30.8819 36.1832 29.8748 36.1542 28.9542 36.2955C29.0097 34.6749 29.6911 33.1276 30.6944 31.8715C31.9906 30.1713 33.6926 28.7931 34.7625 26.9203C34.9297 26.9086 35.1017 26.8975 35.2633 26.9536C35.9015 27.1484 36.3221 27.746 36.9628 27.9335C36.9973 27.8206 37.0689 27.688 36.9832 27.5795C36.5244 27.0855 35.9003 26.8006 35.3385 26.4424C36.6724 25.8935 38.0062 25.3416 39.3438 24.8014C40.1769 24.6577 41.0273 24.6522 41.8709 24.6386C44.1186 24.6565 46.3509 24.9716 48.5975 25.0277C48.8719 25.0505 49.1414 25.1492 49.3621 25.3145C49.9535 25.7505 50.2433 26.4498 50.6522 27.0368C50.7576 27.0732 50.8649 27.138 50.9821 27.1127C51.0604 27.0239 51.0487 26.8796 51.0345 26.768C50.9476 26.3628 50.6066 26.0927 50.4259 25.7338C50.1706 25.4076 49.8481 25.14 49.5884 24.8168C49.9887 24.4709 50.3297 24.0423 50.8113 23.803C51.1332 23.6408 51.4421 23.4552 51.7307 23.2388C53.4821 22.0073 55.2266 20.7672 56.9823 19.5419C56.9551 19.4401 56.9255 19.339 56.8947 19.2391C56.7954 19.2637 56.7066 19.3149 56.624 19.3729ZM64.64 21.9025C64.3311 22.1417 64.2793 22.5789 64.3576 22.9378C64.1769 22.7393 63.9167 22.6098 63.6472 22.6067C63.3352 22.6468 63.0225 22.8053 62.8474 23.0729C62.6926 23.4003 62.7487 23.7901 62.9029 24.1077C63.1829 24.7089 63.4708 25.3065 63.7594 25.9034C64.9034 25.3336 66.0504 24.7706 67.1924 24.1971C66.8748 23.5841 66.6004 22.9489 66.2853 22.3341C66.1022 22.0005 65.8154 21.6761 65.422 21.6102C65.1358 21.5991 64.8633 21.7341 64.64 21.9025ZM67.0438 25.3373C67.0746 25.4384 67.1289 25.5414 67.1061 25.6512C67.0506 25.7511 66.9365 25.7912 66.8378 25.8312C66.2477 26.0323 65.6508 26.213 65.0631 26.4195C64.7523 26.5225 64.4729 26.7476 64.3613 27.0621C64.1905 27.4463 64.3021 27.8743 64.423 28.2554C64.5667 28.6901 64.7837 29.1501 65.2111 29.3697C65.4904 29.5349 65.8314 29.5189 66.1342 29.4338C66.0658 29.2248 65.993 29.0182 65.9264 28.8097C65.6113 28.9189 65.2573 28.8011 65.0748 28.5242C64.8836 28.2134 64.7529 27.8292 64.8472 27.4654C64.9607 27.1373 65.3449 27.0011 65.6649 27.0196C65.7457 27.1071 65.8228 27.2009 65.8672 27.3137C66.1108 27.8767 66.376 28.4539 66.8224 28.8862C67.2245 29.2291 67.8436 29.0644 68.2001 28.7333C68.5257 28.4101 68.53 27.9014 68.4017 27.4876C68.2611 26.9764 67.9355 26.4491 67.3984 26.295C67.4964 26.2025 67.6118 26.1186 67.6759 25.9965C67.769 25.7122 67.6266 25.4286 67.5217 25.1696C67.3608 25.222 67.2023 25.2793 67.0438 25.3373ZM65.5071 30.6104C64.9656 31.3609 65.1926 32.5763 66.0473 32.9938C65.89 33.0432 65.7248 33.0481 65.5632 33.0709C65.5928 33.2923 65.6236 33.5131 65.6557 33.7344C67.3639 33.4859 69.072 33.2331 70.7827 33.0043C70.7734 32.7669 70.7376 32.5319 70.6939 32.3001C70.0784 32.3876 69.4642 32.4801 68.8488 32.5628C69.5333 31.9566 69.4198 30.7892 68.768 30.2046C68.3481 29.7896 67.7067 29.7132 67.1468 29.7933C66.5307 29.8599 65.8839 30.0918 65.5071 30.6104ZM32.9514 32.305C32.6258 32.8144 32.3323 33.3478 31.9431 33.8134C31.9845 33.9201 32.0467 34.0156 32.1189 34.1044C32.1497 34.089 32.212 34.0588 32.2428 34.044C32.5358 33.584 32.7867 33.0968 33.0636 32.6263C33.1592 32.5153 33.0815 32.3432 32.9514 32.305ZM65.689 34.7051C65.7772 35.8095 65.8771 36.9134 65.9708 38.0178C67.2356 37.9056 68.4998 37.7866 69.7652 37.6823C69.7571 37.4462 69.7312 37.2112 69.709 36.9763C68.6052 37.0842 67.4995 37.1687 66.3957 37.279C66.3513 36.6383 66.2859 35.9988 66.2372 35.3581C67.3392 35.2662 68.4399 35.1602 69.5425 35.0671C69.5265 34.834 69.5185 34.599 69.4784 34.3684C68.2149 34.4769 66.9519 34.5941 65.689 34.7051ZM4.96521 34.7285C4.91403 36.026 4.83571 37.3228 4.77158 38.6203C4.97693 38.6209 5.18105 38.6425 5.3864 38.6474C5.44066 37.5997 5.50973 36.5514 5.54056 35.5024C6.13441 35.5018 6.7258 35.5795 7.31903 35.5758C7.2882 36.507 7.23393 37.4375 7.1809 38.3675C7.38933 38.3835 7.59715 38.3995 7.8062 38.4001C7.85121 37.4776 7.88821 36.5501 7.95543 35.6319C8.48885 35.6344 9.02288 35.6843 9.55691 35.7102C9.49463 36.729 9.44961 37.7489 9.3972 38.7683C9.60131 38.7942 9.80666 38.8022 10.012 38.8071C10.0774 37.5387 10.1415 36.2696 10.2081 35.0005C8.46109 34.9049 6.71346 34.7982 4.96521 34.7285ZM46.2677 36.7974C46.7037 37.2353 46.6747 37.9228 46.5643 38.4859C46.5039 38.8996 45.9908 38.9311 45.7855 39.2388C45.7256 39.3591 45.7811 39.4861 45.8175 39.6045C46.1925 39.5206 46.568 39.351 46.8208 39.0532C47.1767 38.5814 47.1193 37.9592 47.0657 37.4067C47.0731 37.0805 46.9423 36.7783 46.8424 36.4743C46.7616 36.2424 46.5779 36.0223 46.3115 36.0272C46.1425 36.2585 46.2572 36.5403 46.2677 36.7974ZM64.489 39.4466C64.1856 40.0158 64.1165 40.688 64.1597 41.3238C64.1997 41.9737 64.6345 42.5219 65.1463 42.8882C65.821 43.3464 66.667 43.4531 67.4638 43.4377C68.4825 43.4241 69.3976 42.6064 69.5894 41.6173C69.7399 40.9365 69.7787 40.1459 69.3409 39.5589C69.0363 39.1044 68.5435 38.8053 68.0151 38.6875C67.9947 38.9447 67.9626 39.2012 67.9374 39.4583C68.464 39.5484 68.9425 39.9689 69.043 40.503C69.1207 40.8329 69.0696 41.1776 68.9801 41.5001C68.8599 41.9176 68.5361 42.2617 68.1341 42.422C67.412 42.7581 66.5628 42.6798 65.8388 42.3949C65.4917 42.2352 65.1254 42.0335 64.9453 41.6796C64.7029 41.2319 64.735 40.6886 64.8694 40.2125C65.01 39.684 65.5398 39.3017 66.0855 39.3227C66.1262 39.0729 66.1423 38.8201 66.1712 38.5691C66.0454 38.5728 65.9209 38.579 65.7975 38.5956C65.2567 38.6456 64.7825 39.0051 64.489 39.4466ZM3.80341 39.2222C3.83425 39.417 3.85768 39.6125 3.87926 39.8086C4.2061 39.7698 4.53046 39.7161 4.85606 39.668C5.00098 40.7552 5.17735 41.8399 5.29205 42.9308C4.97076 42.9641 4.65071 43.0159 4.3319 43.0677C4.35903 43.2576 4.38493 43.4488 4.4133 43.6393C4.90293 43.5974 5.39071 43.5376 5.88035 43.4926C5.8489 43.27 5.81621 43.048 5.79956 42.8241C6.89661 42.6718 7.9949 42.5219 9.08825 42.3487C8.94271 41.4317 8.83048 40.5091 8.7016 39.5897C8.26685 39.6446 7.8358 39.7266 7.39858 39.7624C6.69928 39.7957 5.971 39.7568 5.32658 39.4571C5.30006 39.2949 5.28711 39.1303 5.25135 38.9699C4.76603 39.0261 4.28688 39.1451 3.80341 39.2222ZM44.3529 41.5476C44.509 41.8165 44.882 41.8837 44.9986 42.1815C45.0559 42.4819 44.8925 42.8235 44.5996 42.9357C44.3116 43.0597 43.9854 43.1497 43.7961 43.421C43.8417 43.495 43.8639 43.6178 43.9644 43.6375C44.4202 43.7084 44.8857 43.4747 45.1373 43.093C45.323 42.7994 45.5752 42.472 45.4654 42.1032C45.3211 41.7104 44.932 41.5026 44.636 41.238C44.5207 41.3133 44.3314 41.3756 44.3529 41.5476ZM5.56276 44.1845C5.62751 44.4336 5.6935 44.6821 5.75886 44.9313C6.88305 45.3068 8.00908 45.6762 9.13141 46.0561C8.18236 46.3403 7.21975 46.5833 6.26453 46.8485C6.32126 47.0754 6.38478 47.3005 6.43905 47.5287C7.66313 47.1932 8.88721 46.8559 10.1125 46.526C10.0718 46.27 9.99351 46.0221 9.92506 45.773C8.79656 45.3999 7.67115 45.0194 6.54203 44.6482C7.49971 44.3756 8.46171 44.1185 9.42248 43.8583C9.36945 43.6319 9.30408 43.4087 9.25166 43.1824C8.01956 43.5068 6.79301 43.8533 5.56276 44.1845ZM43.3946 45.8624C43.2707 46.1017 43.3946 46.4039 43.2454 46.6363C43.0968 46.8947 42.7212 46.8368 42.5658 47.0927C42.5856 47.2438 42.6904 47.4133 42.8674 47.3825C43.1067 47.311 43.2528 47.0674 43.5056 47.0162C43.8232 46.6925 43.8109 46.2047 43.7449 45.7884C43.6259 45.7755 43.4613 45.7268 43.3946 45.8624ZM6.5667 49.0204C6.67091 49.227 6.77205 49.4348 6.88058 49.6401C7.39858 49.3583 7.92953 49.1018 8.44815 48.8218C8.72133 49.3848 9.00561 49.9429 9.28558 50.5035C8.75895 50.7686 8.23971 51.0498 7.71185 51.3125C7.8173 51.5185 7.91905 51.7269 8.02203 51.9347C9.16101 51.3588 10.2852 50.7532 11.4254 50.1791C11.3163 49.9713 11.2188 49.7579 11.1047 49.5538C10.6373 49.7857 10.1878 50.0607 9.70615 50.2611C9.44591 49.6981 9.14313 49.1554 8.88906 48.5899C9.35341 48.355 9.81591 48.117 10.2753 47.8721C10.1625 47.6674 10.0706 47.4522 9.9485 47.2536C8.8274 47.8536 7.69088 48.4253 6.5667 49.0204ZM65.0988 48.199C64.8886 48.606 64.7221 49.0346 64.5389 49.4545C64.0721 49.2646 63.6213 49.0358 63.1576 48.8385C63.0657 49.0494 62.9775 49.2621 62.8782 49.4705C64.0394 50.0009 65.1994 50.5343 66.3673 51.0498C66.6337 50.4208 66.923 49.8011 67.1795 49.1678C67.3441 48.7756 67.3238 48.2909 67.0524 47.9523C66.8027 47.697 66.453 47.5502 66.1034 47.5034C65.6656 47.4997 65.2999 47.8345 65.0988 48.199ZM62.7894 49.8849C62.2474 50.8556 61.6973 51.8213 61.1485 52.7882C61.2891 52.8727 61.4309 52.9566 61.5777 53.0336C61.7861 52.6488 62.0093 52.2721 62.2209 51.8885C63.1835 52.4515 64.1393 53.0269 65.1075 53.5806C65.2129 53.374 65.3387 53.1786 65.4392 52.9695C64.4865 52.412 63.5387 51.8441 62.5828 51.2922C62.7524 50.8901 63.0151 50.5343 63.2032 50.1415C63.0879 50.0255 62.9269 49.9676 62.7894 49.8849ZM10.4215 51.672C9.7894 51.9798 9.25166 52.5224 9.0494 53.2063C8.94333 53.6682 9.11908 54.1375 9.35835 54.5284C9.58713 54.9028 9.91211 55.2721 10.3666 55.3498C10.7594 55.4516 11.1664 55.3535 11.5272 55.1895C11.4149 54.9953 11.2941 54.8059 11.1769 54.6154C10.945 54.7356 10.678 54.8158 10.4159 54.7591C9.8856 54.6875 9.56308 54.0881 9.62783 53.5911C9.7228 53.0429 10.1705 52.6458 10.6287 52.3775C11.024 52.1432 11.5216 51.9958 11.9699 52.1586C12.2376 52.2992 12.4176 52.5644 12.5286 52.8388C12.6649 53.2199 12.5206 53.6682 12.2098 53.921C12.3079 54.1079 12.4269 54.2824 12.5323 54.4649C13.0762 54.1029 13.281 53.3167 13.0127 52.7247C12.8228 52.293 12.5539 51.8681 12.1469 51.6122C11.6135 51.3218 10.9413 51.3754 10.4215 51.672ZM60.71 53.609C60.4134 53.7292 60.1988 53.9796 60.007 54.2257C59.7604 54.5796 59.5285 54.9903 59.5791 55.438C59.6043 56.1336 60.1045 56.6942 60.6576 57.0599C61.0942 57.3608 61.6319 57.5242 62.1635 57.4829C62.6001 57.4397 62.9566 57.132 63.2106 56.7935C63.4622 56.4561 63.6996 56.0615 63.6731 55.6243C63.6546 55.1408 63.4036 54.6943 63.0435 54.3811C62.9195 54.5642 62.7833 54.7393 62.6747 54.933C62.8813 55.1149 63.0601 55.3474 63.1045 55.6267C63.1927 55.9819 62.988 56.3285 62.7469 56.5739C62.4947 56.82 62.1117 56.8551 61.7824 56.7811C61.3285 56.6714 60.924 56.4087 60.5929 56.0849C60.3104 55.7846 60.0631 55.3677 60.1754 54.9422C60.2531 54.6962 60.4042 54.4723 60.5922 54.2972C60.8919 54.0598 61.3181 54.0703 61.6523 54.23C61.767 54.0481 61.8928 53.8735 62.0149 53.6966C61.6221 53.477 61.1269 53.4363 60.71 53.609ZM13.297 54.3693C13.5751 54.7116 13.8236 55.076 14.09 55.4282C13.1971 56.0997 12.3177 56.7904 11.4273 57.4662C11.5746 57.6463 11.7085 57.8375 11.8472 58.0243C12.7297 57.354 13.601 56.6683 14.4878 56.0041L14.5229 56.0165C14.7844 56.3507 15.0175 56.709 15.2901 57.0327C15.4263 56.9489 15.5454 56.8403 15.6693 56.7398C15.0076 55.8518 14.354 54.9583 13.6929 54.0703C13.5597 54.1683 13.4296 54.2694 13.297 54.3693ZM14.9953 57.6679C14.3885 58.2796 13.7533 58.8624 13.1607 59.4877C13.6392 59.9736 14.095 60.4817 14.5741 60.9664C14.8411 61.2316 15.2105 61.4394 15.5978 61.3895C15.9006 61.3062 16.1337 61.0651 16.3039 60.8117C16.4815 60.4861 16.3933 60.0815 16.2181 59.7744C16.4969 59.9607 16.8946 59.9841 17.1709 59.7812C17.3824 59.6246 17.5865 59.4131 17.6278 59.143C17.6513 58.8124 17.5039 58.4936 17.2868 58.2519C16.8293 57.7567 16.3544 57.2775 15.9024 56.7774C15.5904 57.0642 15.2968 57.3707 14.9953 57.6679ZM58.2958 56.9556C57.4836 57.2418 56.7837 58.0626 56.8836 58.9604C56.9299 59.5173 57.2733 59.9909 57.6501 60.38C58.0146 60.7432 58.4888 61.0429 59.0179 61.0534C59.3706 61.0713 59.7209 60.9553 60.007 60.7512C60.4319 60.4552 60.7908 60.0273 60.9104 59.5142C61.0239 59.0424 60.8926 58.5405 60.6354 58.139C60.3554 57.708 59.9824 57.3318 59.531 57.0833C59.1523 56.894 58.7034 56.8206 58.2958 56.9556ZM55.3944 59.6579C55.7138 60.0717 56.0147 60.4996 56.3317 60.9153C55.8316 61.2846 55.3524 61.6818 54.8468 62.0438C54.5489 61.6269 54.2301 61.2261 53.9415 60.8024C53.7405 60.8616 53.6017 61.0343 53.4334 61.1508C53.3557 61.202 53.4438 61.2902 53.4753 61.3432C54.2079 62.3262 54.9313 63.3159 55.6632 64.2995C55.8205 64.1663 55.9968 64.0578 56.1498 63.919C56.2244 63.8605 56.122 63.7791 56.0949 63.726C55.7761 63.303 55.4659 62.8732 55.1465 62.4508C55.6299 62.0592 56.1331 61.6929 56.6209 61.3068C56.9662 61.7922 57.3362 62.2596 57.6766 62.7492C57.8586 62.6129 58.0362 62.4711 58.2199 62.3379C57.4756 61.2877 56.6937 60.2634 55.9327 59.225C55.7539 59.3705 55.5596 59.4969 55.3944 59.6579ZM18.2797 59.6696C17.8289 59.7874 17.4509 60.0951 17.1709 60.4595C16.841 60.8764 16.5888 61.3778 16.5653 61.9167C16.5468 62.4384 16.799 62.9484 17.1943 63.2826C17.5871 63.6193 18.0934 63.8796 18.625 63.8222C19.2454 63.7673 19.7597 63.3295 20.0927 62.8275C20.4269 62.3644 20.6538 61.7823 20.5558 61.2051C20.4719 60.6766 20.1075 60.2314 19.6635 59.9526C19.2651 59.6782 18.7551 59.5432 18.2797 59.6696ZM50.3864 63.6872C50.3025 63.5367 50.2144 63.3887 50.128 63.2407C49.9436 63.3548 49.7611 63.4713 49.5798 63.5904C50.4937 65.0876 51.4033 66.5874 52.3326 68.0748C52.5213 67.9496 52.7137 67.8299 52.9043 67.7072C52.5768 67.1664 52.2395 66.6318 51.9157 66.0885C52.3893 66.3166 52.9678 66.2248 53.3729 65.8992C53.8829 65.5612 54.1666 64.9156 54.0605 64.3119C54.0198 63.9604 53.8496 63.6434 53.6843 63.3363C53.3766 62.8325 52.9511 62.3379 52.3523 62.1948C51.4267 61.9482 50.392 62.7215 50.3864 63.6872ZM26.419 63.2278C25.7728 63.5638 25.322 64.1891 25.0926 64.8699C24.8361 65.576 24.6437 66.3882 24.9526 67.1091C25.19 67.7307 25.7117 68.2289 26.3352 68.4565C26.9062 68.6828 27.5815 68.8326 28.1587 68.5453C28.6773 68.3307 29.0726 67.8854 29.2859 67.373C29.0442 67.299 28.8074 67.2102 28.5607 67.1565C28.3585 67.6986 27.7899 68.1111 27.2004 68.0452C26.6565 67.9915 26.0805 67.73 25.8264 67.2201C25.5458 66.6231 25.5489 65.9195 25.758 65.301C25.9306 64.7756 26.2044 64.2576 26.6435 63.9092C27.1812 63.5034 27.9311 63.6459 28.4769 63.9579C28.7778 64.1158 28.9572 64.4296 29.043 64.7485C29.0978 64.9372 29.043 65.1382 29.0652 65.3281C29.2933 65.4009 29.5246 65.4681 29.7527 65.5433C29.8644 65.0481 29.8138 64.5086 29.5307 64.0788C29.2372 63.5453 28.6483 63.2839 28.089 63.1248C27.5463 62.9601 26.9204 62.917 26.419 63.2278ZM47.8679 64.2126C47.4505 64.3606 47.004 64.5678 46.7882 64.9791C46.6075 65.272 46.5921 65.6432 46.7105 65.9627C46.9109 65.8837 47.1162 65.8165 47.3197 65.7462C47.1878 65.4114 47.3395 65.0278 47.6422 64.8484C47.9456 64.68 48.3132 64.5413 48.6585 64.659C48.9372 64.7707 49.055 65.0913 49.0735 65.3707C49.0865 65.5174 48.9428 65.5988 48.8336 65.6624C48.2762 65.917 47.7027 66.1859 47.2685 66.6305C46.8961 67.0283 47.0459 67.6838 47.382 68.055C47.6651 68.3751 48.1387 68.4071 48.5272 68.2961C49.0643 68.1666 49.6143 67.8238 49.7747 67.2645C49.8832 67.3724 49.9757 67.5087 50.1317 67.5524C50.3926 67.6049 50.6355 67.4735 50.873 67.3859C50.8409 67.2225 50.7823 67.0677 50.7324 66.9105C50.614 66.9216 50.4925 66.9796 50.3759 66.9339C50.3062 66.8544 50.26 66.7588 50.2273 66.6601C50.0454 66.0866 49.8641 65.5125 49.6834 64.939C49.5872 64.6288 49.4053 64.318 49.0939 64.1867C48.7115 63.9776 48.2571 64.08 47.8679 64.2126ZM42.7274 65.8474C43.0438 66.9487 43.3607 68.1407 43.0043 69.2736C42.8557 69.3167 42.7064 69.3568 42.5547 69.387C42.6448 69.8822 42.8366 70.3552 42.9704 70.8411C43.1554 70.7862 43.3404 70.7338 43.5291 70.6937C43.4477 70.3712 43.3681 70.0475 43.275 69.7287C43.8004 69.5615 44.3375 69.432 44.8691 69.2834C45.3785 69.1533 45.8792 68.9862 46.3947 68.882C46.4693 69.2008 46.5612 69.5147 46.6371 69.8335C46.8215 69.7879 47.0046 69.7373 47.189 69.6917C47.1002 69.1983 46.9725 68.7124 46.8726 68.2215C46.6605 68.2733 46.4502 68.3313 46.2412 68.3923C45.9513 67.3027 45.6603 66.2137 45.3846 65.1209C44.4966 65.3553 43.6105 65.5951 42.7274 65.8474ZM31.049 65.8437C30.5877 65.9725 30.2159 66.3277 29.9988 66.7465C29.7916 67.1572 29.6843 67.616 29.6639 68.0741C29.6424 68.6254 29.8514 69.1996 30.2892 69.5511C30.7536 69.9167 31.3789 70.0481 31.9579 69.9642C32.3945 69.876 32.7874 69.5979 33.0254 69.223C33.3331 68.7395 33.4682 68.1574 33.4675 67.5888C33.4749 66.9623 33.1315 66.3265 32.5647 66.0416C32.1016 65.8104 31.5553 65.7129 31.049 65.8437ZM40.804 66.0953C40.2367 67.1596 39.6768 68.2289 39.1273 69.3025C39.0206 68.2931 38.9423 67.2793 38.8634 66.2673C38.6358 66.2889 38.4077 66.3117 38.1795 66.321C38.2683 67.6184 38.4009 68.9122 38.5026 70.209C38.7524 70.1794 39.0034 70.1579 39.2543 70.1406C39.8161 69.0812 40.3631 68.0137 40.9255 66.9549C40.9409 67.0369 40.9588 67.1226 40.965 67.2083C41.0365 68.1266 41.1265 69.0435 41.1931 69.9624C41.4182 69.9476 41.6427 69.9211 41.8684 69.905C41.7962 68.6119 41.6507 67.323 41.5545 66.0311C41.3041 66.0496 41.0538 66.0718 40.804 66.0953ZM34.6337 68.7216C34.5769 68.9936 34.5603 69.3007 34.3636 69.5165C34.2014 69.6849 33.9467 69.6762 33.7358 69.6306C33.7333 69.8027 33.7259 69.9753 33.7087 70.148C34.0423 70.2004 34.4154 70.243 34.7163 70.0536C34.9802 69.9038 35.0746 69.5961 35.1591 69.3254C35.4082 68.5262 35.3792 67.6807 35.4748 66.8575C35.9163 66.8667 36.3566 66.9043 36.7982 66.916C36.7488 68.047 36.6717 69.1767 36.6317 70.3083C36.8617 70.3194 37.0917 70.3367 37.3223 70.3348C37.3612 69.0429 37.4629 67.7535 37.503 66.4622C36.6236 66.3999 35.7412 66.3777 34.8624 66.3092C34.77 67.1115 34.7681 67.9237 34.6337 68.7216Z" fill="#FDFFFE"></path><path d="M33.882 4.42115C34.2058 4.39094 34.5289 4.35702 34.8533 4.33667C34.8884 4.78683 34.9458 5.23576 34.9569 5.68716C34.5499 5.70504 34.1441 5.78644 33.7359 5.76239C33.549 5.73341 33.3128 5.68593 33.2333 5.48983C33.1451 5.27338 33.1229 5.01623 33.2222 4.79978C33.3517 4.56237 33.6224 4.44397 33.882 4.42115Z" fill="#FDFFFE"></path><path d="M45.7203 5.70884C46.2704 5.55036 47.0215 5.84759 47.1245 6.4624C47.2398 7.04022 47.0893 7.64084 46.8198 8.15452C46.6404 8.43881 46.4159 8.7459 46.0687 8.8236C45.7222 8.87479 45.3608 8.77489 45.0759 8.57632C44.7349 8.31979 44.7108 7.84373 44.7312 7.454C44.791 6.94093 44.9581 6.418 45.3041 6.02396C45.4169 5.89014 45.5501 5.76434 45.7203 5.70884Z" fill="#FDFFFE"></path><path d="M49.4583 7.2701C49.697 7.15909 49.9727 7.21829 50.2027 7.32313C50.5129 7.46681 50.8206 7.61666 51.1296 7.76282C50.9526 8.1507 50.7824 8.54229 50.5925 8.92401C50.2619 8.75258 49.9165 8.61136 49.5903 8.43314C49.3516 8.30425 49.1685 8.0434 49.1993 7.76467C49.2369 7.58151 49.314 7.39528 49.4583 7.2701Z" fill="#FDFFFE"></path><path d="M48.9214 8.90736C49.1255 8.84569 49.3506 8.879 49.5418 8.9715C49.8267 9.10285 50.1097 9.23975 50.394 9.37418C50.2392 9.71211 50.0894 10.0519 49.9278 10.3867C49.6108 10.2215 49.2797 10.0858 48.9627 9.92054C48.7586 9.81633 48.5613 9.60604 48.6032 9.35938C48.6414 9.17808 48.7302 8.96841 48.9214 8.90736Z" fill="#FDFFFE"></path><path d="M29.5739 12.7244C30.0296 12.7256 30.4859 12.7189 30.9423 12.7269C31.1446 12.746 31.3888 12.7639 31.5152 12.9476C31.7273 13.2498 31.7064 13.6432 31.6601 13.9917C31.5744 14.4455 31.4356 14.9173 31.1088 15.2595C30.8732 15.4877 30.5316 15.5389 30.2165 15.5438C29.807 15.545 29.3981 15.5426 28.9886 15.5444C29.1841 14.604 29.3796 13.6642 29.5739 12.7244Z" fill="#FDFFFE"></path><path d="M6.05947 13.9433C6.4344 13.6374 6.93637 13.5856 7.40195 13.572C7.093 15.1279 6.76124 16.6794 6.44119 18.2334C5.97067 18.2192 5.35955 18.1705 5.12337 17.6932C4.84217 17.1246 4.93899 16.4654 5.05739 15.8673C5.21217 15.1569 5.48659 14.4224 6.05947 13.9433Z" fill="#FDFFFE"></path><path d="M8.79306 13.572C9.15936 13.593 9.56266 13.5856 9.87531 13.8064C10.1411 14.0234 10.257 14.3681 10.2953 14.6987C10.3501 15.3258 10.2237 15.9536 10.0332 16.5487C9.85743 17.0457 9.60398 17.5446 9.17724 17.872C8.79244 18.1594 8.29726 18.2217 7.83044 18.2353C8.14556 16.6794 8.47609 15.1273 8.79306 13.572Z" fill="#FDFFFE"></path><path d="M58.4196 16.7135C59.1164 16.0592 59.8101 15.4012 60.4965 14.7358C60.9448 15.2156 61.3752 15.712 61.8303 16.1856C60.8548 16.4057 60.1012 17.1106 59.3908 17.7698C59.0615 17.4226 58.747 17.0619 58.4196 16.7135Z" fill="#FDFFFE"></path><path d="M61.153 20.5687C60.9797 20.0643 61.346 19.5303 61.7764 19.2886C62.1556 19.9262 62.5478 20.557 62.9375 21.1885C62.6033 21.3988 62.1729 21.4752 61.798 21.3346C61.4835 21.1897 61.2695 20.8863 61.153 20.5687Z" fill="#FDFFFE"></path><path d="M64.7758 23.0573C64.7154 22.6632 65.1032 22.3074 65.4856 22.3537C65.7021 22.4055 65.8587 22.5911 65.9604 22.7804C66.1263 23.1115 66.2749 23.4519 66.4464 23.7812C66.0795 23.9903 65.6934 24.1636 65.316 24.3516C65.1415 23.9187 64.8523 23.5241 64.7758 23.0573Z" fill="#FDFFFE"></path><path d="M63.6479 23.3072C63.9481 23.121 64.2898 23.3634 64.4285 23.6372C64.5796 23.9486 64.7448 24.2557 64.8694 24.5794C64.5475 24.7367 64.2238 24.8908 63.9087 25.061C63.7323 24.7447 63.5893 24.4111 63.4339 24.0842C63.3118 23.824 63.3291 23.4139 63.6479 23.3072Z" fill="#FDFFFE"></path><path d="M66.0474 26.8029C66.4383 26.6894 66.8792 26.5266 67.2714 26.7252C67.6926 26.904 67.943 27.369 67.9362 27.8149C67.9035 28.2465 67.3775 28.5302 66.9995 28.3304C66.5222 27.9345 66.4396 27.2611 66.0474 26.8029Z" fill="#FDFFFE"></path><path d="M66.9397 30.5651C67.4028 30.4794 67.9357 30.4097 68.3507 30.6878C68.6578 30.8685 68.8502 31.2194 68.8379 31.5752C68.8447 31.9637 68.6042 32.3115 68.3051 32.5378C67.9091 32.7881 67.4238 32.8381 66.9662 32.851C66.553 32.8609 66.1361 32.6741 65.9024 32.3281C65.6779 31.9489 65.6835 31.4229 65.9782 31.0818C66.2033 30.7747 66.5795 30.6378 66.9397 30.5651Z" fill="#FDFFFE"></path><path d="M29.1245 36.6835C29.9262 36.5559 30.8586 36.6052 31.4882 37.1763C31.4308 38.0427 31.3211 38.9122 31.1046 39.754C30.6625 39.9822 30.171 40.198 29.6629 40.1585C29.1955 40.1228 28.8662 39.7336 28.6744 39.3402C28.6398 38.4337 28.955 37.5641 29.1245 36.6835Z" fill="#FDFFFE"></path><path d="M5.43433 40.1775C6.33713 40.5765 7.35341 40.4346 8.30061 40.3082C8.37338 40.7787 8.42703 41.2517 8.50165 41.7222C7.57048 41.8857 6.6282 41.9862 5.69456 42.141C5.61008 41.4861 5.50216 40.8336 5.43433 40.1775Z" fill="#FDFFFE"></path><path d="M33.1235 44.0934C33.6439 43.7987 34.3524 43.8449 34.7865 44.2729C34.8636 44.3691 35.0067 44.4418 35.003 44.58C35.0104 45.0579 34.9499 45.545 34.7631 45.9884C34.715 46.0858 34.654 46.211 34.5294 46.2184C33.9152 46.3713 33.2474 46.1894 32.7726 45.7775C32.8373 45.2071 32.8737 44.6213 33.1235 44.0934Z" fill="#FDFFFE"></path><path d="M36.4815 45.2987C37.0087 44.8381 37.8369 45.0243 38.2765 45.517C38.3444 46.1214 38.0922 46.6838 37.9281 47.2493C37.8991 47.3819 37.7259 47.3738 37.621 47.3973C37.1252 47.4207 36.5943 47.3603 36.1651 47.0933C36.0862 46.6579 36.2373 46.2324 36.3655 45.8235C36.426 45.6533 36.4155 45.464 36.4815 45.2987Z" fill="#FDFFFE"></path><path d="M29.4523 45.673C29.62 45.6268 29.789 45.5608 29.9654 45.5682C30.3724 45.5848 30.7041 45.8475 31.0322 46.059C31.2295 46.1682 31.2302 46.4253 31.1993 46.622C31.1111 47.0777 30.9391 47.5167 30.7183 47.9237C30.5382 48.1907 30.1744 48.1722 29.9025 48.084C29.5466 47.9761 29.0786 47.92 28.9423 47.5112C28.798 46.8514 29.1643 46.2379 29.4523 45.673Z" fill="#FDFFFE"></path><path d="M32.376 46.3082C32.4118 46.2052 32.5247 46.2706 32.5962 46.2872C33.1105 46.4544 33.639 46.574 34.1668 46.6862C34.493 46.6289 34.802 46.4975 35.1276 46.434C35.2799 48.9191 34.4653 51.3099 34.1212 53.7432C33.893 54.1811 33.6883 54.6386 33.3991 55.0425C33.1376 55.407 32.7127 55.6863 32.2533 55.6734C31.9549 55.6111 31.6385 55.6419 31.3505 55.5328C31.1353 55.4557 31.0268 55.2392 30.8961 55.0684C30.5057 54.519 30.3805 53.8197 30.457 53.158C30.5026 52.5315 30.6728 51.9235 30.7666 51.3044C30.7943 51.1397 30.7863 50.9683 30.8455 50.8104C31.3974 49.3243 31.6694 47.7364 32.376 46.3082Z" fill="#FDFFFE"></path><path d="M39.1675 46.9399C39.4216 46.8523 39.7231 46.8609 39.9581 47.0009C40.1005 47.0805 40.2393 47.1668 40.3867 47.2383C40.3799 47.7693 40.412 48.3058 40.3078 48.8306C40.1172 48.9138 39.9285 49.0242 39.7151 49.0279C39.3562 49.047 39.0608 48.8102 38.7413 48.6881C38.7111 48.3459 38.7124 48.0012 38.7364 47.6595C38.7543 47.3746 38.8776 47.0466 39.1675 46.9399Z" fill="#FDFFFE"></path><path d="M35.9173 47.3054C36.0425 47.4695 36.2028 47.6082 36.3872 47.7032C36.9354 47.911 37.5243 47.7895 38.0874 47.7291C38.1873 49.9737 37.8241 52.1993 37.6458 54.4303C37.3615 54.7325 37.0939 55.0489 36.8121 55.3529C36.5278 55.3541 36.2429 55.3023 35.9592 55.2733C35.6133 55.2351 35.2383 55.0896 35.0663 54.7664C34.9479 54.5124 34.7388 54.3045 34.6821 54.0215C34.5223 53.4221 34.7579 52.8246 34.8424 52.2338C34.8775 52.058 34.8627 51.8749 34.9219 51.7047C35.3808 50.2685 35.5386 48.7614 35.9173 47.3054Z" fill="#FDFFFE"></path><path d="M26.6557 51.7319C26.9943 50.3505 27.8946 49.1949 28.3078 47.8413C28.811 48.4105 29.6016 48.6442 30.3434 48.5733C30.5327 48.5795 30.6943 48.4765 30.8651 48.4117C30.55 49.7863 30.2546 51.1658 29.9469 52.5422C29.8692 52.8542 29.8377 53.186 29.6749 53.4696C29.4363 53.8495 29.0509 54.0968 28.7549 54.4261C28.0704 54.3811 27.2792 54.2762 26.8216 53.7033C26.5213 53.0959 26.4898 52.3824 26.6557 51.7319Z" fill="#FDFFFE"></path><path d="M65.4423 48.6232C65.549 48.4413 65.6982 48.2471 65.919 48.2076C66.2718 48.2015 66.6794 48.445 66.6733 48.8397C66.6813 49.3305 66.3563 49.7443 66.2076 50.1975C65.7833 50.0545 65.3856 49.8392 64.9773 49.6573C65.1389 49.3157 65.2739 48.9612 65.4423 48.6232Z" fill="#FDFFFE"></path><path d="M38.7246 49.2261C39.0835 49.5153 39.5694 49.6232 40.0214 49.5597C40.2428 49.4764 40.4456 49.3494 40.667 49.2637C40.6313 50.4304 41.161 51.5552 40.9994 52.7256C40.9328 53.2954 40.5869 53.7992 40.1312 54.1347C39.7858 54.3579 39.3529 54.2469 38.9774 54.1809C38.5081 53.9891 38.452 53.428 38.2134 53.0426C38.452 51.7797 38.2294 50.4397 38.7246 49.2261Z" fill="#FDFFFE"></path><path d="M58.2242 57.5494C58.5528 57.4026 58.9117 57.555 59.2065 57.7122C59.5672 57.9342 59.8737 58.2493 60.0994 58.6076C60.285 58.9541 60.4669 59.3907 60.2653 59.7706C60.0852 60.0801 59.8071 60.3712 59.4439 60.4458C59.1017 60.4914 58.7724 60.333 58.4912 60.156C58.0151 59.8014 57.5933 59.3099 57.491 58.7087C57.3978 58.2043 57.7956 57.7504 58.2242 57.5494Z" fill="#FDFFFE"></path><path d="M16.0059 57.6345C16.1662 57.7301 16.2883 57.9231 16.432 58.0588C16.6386 58.282 16.9223 58.4935 16.9476 58.821C16.9846 59.0578 16.7903 59.2631 16.5886 59.3525C16.3136 59.429 16.0435 59.257 15.8616 59.0633C15.6544 58.8426 15.4385 58.628 15.2437 58.3986C15.4909 58.1371 15.7481 57.8849 16.0059 57.6345Z" fill="#FDFFFE"></path><path d="M14.4897 59.1294C14.629 59.0049 14.7388 58.8439 14.9071 58.7563C15.1458 59.0363 15.4165 59.2879 15.6558 59.5679C15.7927 59.7436 15.8735 59.9718 15.8365 60.1962C15.7927 60.3812 15.6539 60.5286 15.5072 60.6415C15.2876 60.7827 15.0188 60.6563 14.8331 60.5169C14.5883 60.3109 14.3934 60.0538 14.1622 59.8336C14.1061 59.7683 14.0278 59.7159 13.9988 59.6326C14.1388 59.4445 14.3293 59.2996 14.4897 59.1294Z" fill="#FDFFFE"></path><path d="M18.5967 60.2346C18.9162 60.1273 19.2621 60.2556 19.5137 60.4591C19.7394 60.6287 19.9423 60.8772 19.9367 61.1745C19.9497 61.8257 19.5772 62.4128 19.1363 62.8617C18.8508 63.1084 18.4666 63.3557 18.0738 63.233C17.7192 63.1134 17.3696 62.8661 17.2413 62.5016C17.1568 62.1088 17.2573 61.6956 17.4436 61.3465C17.6995 60.8698 18.0763 60.4264 18.5967 60.2346Z" fill="#FDFFFE"></path><path d="M51.5223 62.8141C51.9434 62.6852 52.3899 62.8819 52.6841 63.1847C52.9813 63.5072 53.2089 63.8944 53.3507 64.3094C53.5104 64.7732 53.3544 65.3682 52.9122 65.6192C52.4467 65.9096 51.8065 65.7419 51.4557 65.346C51.1708 65.034 50.9611 64.6548 50.8205 64.2576C50.6306 63.691 50.9118 62.9695 51.5223 62.8141Z" fill="#FDFFFE"></path><path d="M43.4846 66.1481C43.9385 66.0303 44.3893 65.9014 44.8419 65.7805C45.0787 66.7129 45.3383 67.6404 45.569 68.5746C44.9467 68.743 44.3245 68.9119 43.7042 69.0858C43.8688 68.4877 43.8287 67.855 43.7313 67.25C43.6659 66.8788 43.5512 66.5187 43.4846 66.1481Z" fill="#FDFFFE"></path><path d="M47.8076 66.8133C48.1986 66.3588 48.8412 66.2645 49.2821 65.8784C49.3968 66.2891 49.5578 66.7535 49.3413 67.1598C49.1699 67.5465 48.753 67.7778 48.3423 67.8012C47.8711 67.8037 47.5609 67.2042 47.8076 66.8133Z" fill="#FDFFFE"></path><path d="M31.3485 66.3307C31.6981 66.253 32.0762 66.3443 32.3759 66.5336C32.7323 66.8024 32.7705 67.2982 32.7588 67.7102C32.7089 68.2658 32.5424 68.846 32.1341 69.2487C31.9275 69.48 31.5853 69.5231 31.2961 69.4596C31.0007 69.4023 30.6794 69.2746 30.5376 68.9897C30.3304 68.5778 30.3316 68.09 30.4377 67.6491C30.5252 67.1885 30.7429 66.7408 31.1098 66.4392C31.1808 66.3874 31.264 66.3535 31.3485 66.3307Z" fill="#FDFFFE"></path><path d="M49.2931 0.175927C57.3838 0.152494 65.4762 0.174077 73.5681 0.164827C73.6593 0.166677 73.7611 0.157427 73.84 0.216627C73.8234 8.09886 73.8382 15.9817 73.8332 23.8639C73.8209 24.1821 73.8702 24.5077 73.7814 24.8192C73.7574 24.8198 73.7099 24.821 73.6859 24.8216C73.4195 25.1559 73.0871 25.4315 72.7948 25.7423C72.1935 26.322 71.6311 26.9448 71.0077 27.4986C71.0077 27.5214 71.0077 27.567 71.0077 27.5892C70.9491 27.5954 70.893 27.6022 70.8369 27.609C70.8313 27.6435 70.8202 27.7126 70.8153 27.7471C70.7734 27.7761 70.6889 27.834 70.6469 27.863C70.5927 27.8242 70.5403 27.7847 70.4891 27.744C68.6317 20.9533 64.6086 14.7922 59.2011 10.2936C55.5646 7.25341 51.2967 4.96743 46.7469 3.63358C46.5151 3.56328 46.2752 3.51764 46.0551 3.41466C47.1256 2.32686 48.2054 1.24646 49.2931 0.175927Z" fill="#00AFF0"></path><path d="M0.176227 49.292C1.24861 48.1937 2.35059 47.1232 3.42544 46.0273C3.55494 46.2944 3.60859 46.5879 3.69431 46.8697C4.72908 50.3415 6.31823 53.6456 8.37419 56.6272C11.6172 61.3404 16.0326 65.2396 21.1176 67.8647C23.3382 69.0222 25.6927 69.909 28.1051 70.5762C28.0459 70.5713 27.9873 70.5682 27.9299 70.5664C27.8158 70.7483 27.6481 70.8839 27.5001 71.0363C26.987 71.5506 26.4727 72.0642 25.9584 72.5779C25.5946 72.9233 25.2684 73.3093 24.8805 73.6263C24.8793 73.6725 24.8768 73.765 24.8756 73.8113C24.751 73.7348 24.6153 73.8612 24.4809 73.8347C17.6353 73.8335 10.7891 73.8347 3.94283 73.8341C2.70086 73.839 1.45828 73.8254 0.216927 73.8409C0.176227 73.7773 0.15896 73.7077 0.165743 73.633C0.16821 66.233 0.16636 58.8337 0.166977 51.4337C0.173143 50.7202 0.15341 50.0048 0.176227 49.292Z" fill="#00CCFF"></path><path d="M73.6863 24.8216C73.7104 24.8209 73.7578 24.8197 73.7819 24.8191C73.854 24.964 73.8405 25.1274 73.8399 25.2847C73.8392 41.445 73.8405 57.6054 73.8392 73.7658C73.8053 73.7837 73.7369 73.8207 73.703 73.8392C57.5432 73.8398 41.3833 73.8392 25.2235 73.8398C25.1076 73.8385 24.9873 73.8459 24.8757 73.8108C24.877 73.7645 24.8794 73.672 24.8807 73.6258C25.2685 73.3088 25.5948 72.9228 25.9586 72.5775C26.4729 72.0638 26.9872 71.5501 27.5003 71.0358C27.6483 70.8835 27.816 70.7478 27.9301 70.5659C27.9874 70.5677 28.046 70.5708 28.1052 70.5758C30.9092 71.2948 33.7977 71.7209 36.696 71.7092C41.1188 71.7789 45.5483 70.9495 49.6627 69.3301C54.3032 67.5072 58.536 64.6625 61.993 61.0723C65.2941 57.6554 67.8921 53.5588 69.5546 49.1071C71.6217 43.612 72.2396 37.5866 71.3559 31.785C71.1691 30.4826 70.8725 29.1987 70.558 27.9222C70.5321 27.8636 70.5092 27.8038 70.4895 27.7439C70.5407 27.7846 70.5931 27.8241 70.6474 27.863C70.6893 27.834 70.7738 27.776 70.8157 27.747C70.8207 27.7125 70.8317 27.6434 70.8373 27.6089C70.8934 27.6021 70.9495 27.5953 71.0081 27.5892C71.0081 27.567 71.0081 27.5213 71.0081 27.4985C71.6316 26.9447 72.194 26.3219 72.7952 25.7422C73.0875 25.4314 73.4199 25.1558 73.6863 24.8216Z" fill="#EC3237"></path></svg>