<?xml version="1.0" encoding="UTF-8"?> <svg xmlns="http://www.w3.org/2000/svg" width="729" height="147" viewBox="0 0 729 147" fill="none"><g clip-path="url(#clip0_6286_2710)"><g clip-path="url(#clip1_6286_2710)"><path d="M106.82 67.02C106.39 80.14 104.7 82.76 97.32 82.76V99.25H100.07C118.46 99.25 122.88 89.75 123.56 68.64L124.31 45.28H141.55V99.25H159.54V28.92H108.07L106.82 67.02ZM204.26 50.28H191.27V28.92H173.28V99.25H204.51C224.13 99.25 231.12 86.51 231.12 74.51C231.12 59.02 221.37 50.27 204.26 50.27M202.89 83.75H191.27V65.88H202.89C209.14 65.88 212.88 68.63 212.88 74.5C212.88 80.87 209.26 83.75 202.89 83.75ZM289.71 27.29V1.18H271.72V27.29C251.11 29.04 237.24 43.66 237.24 64.02C237.24 84.38 251.11 99.13 271.72 100.88V127.37H289.71V100.88C310.32 99.26 324.19 84.51 324.19 64.02C324.19 43.53 310.32 28.91 289.71 27.29ZM271.72 83.89C261.73 82.51 255.48 75.02 255.48 64.03C255.48 53.04 261.73 45.54 271.72 44.17V83.9V83.89ZM289.71 83.89V44.16C299.7 45.53 305.95 53.03 305.95 64.02C305.95 75.01 299.7 82.51 289.71 83.88M391.66 77.64V54.03C391.66 36.79 380.67 25.92 362.18 25.92C343.69 25.92 332.95 37.42 332.07 49.41H350.31C350.93 46.79 353.68 42.29 362.18 42.29C369.18 42.29 373.67 45.54 373.67 54.03H355.8C339.81 54.03 330.31 62.4 330.31 76.39C330.31 90.38 340.7 101 355.67 101C366.65 101 372.75 95.81 375.41 91.88C377.78 96.63 383.03 99.25 389.9 99.25H396.15V83.01C392.9 83.01 391.65 81.51 391.65 77.64M373.66 73.02C373.66 81.14 367.91 85.76 360.42 85.76C353.92 85.76 348.8 83.39 348.8 76.39C348.8 69.39 354.42 68.4 359.29 68.4H373.66V73.02ZM468.75 38.91H448.64V19.05H495.24V1.18H429.78V99.25H468.76C490.37 99.25 502.74 88.51 502.74 68.77C502.74 50.16 490.37 38.91 468.76 38.91M467.89 81.51H448.65V56.02H467.89C477.88 56.02 483.51 60.64 483.51 68.76C483.51 76.88 477.89 81.5 467.89 81.5M571.57 77.64V54.03C571.57 36.79 560.58 25.92 542.09 25.92C523.6 25.92 512.86 37.42 511.98 49.41H530.22C530.84 46.79 533.59 42.29 542.09 42.29C549.09 42.29 553.58 45.54 553.58 54.03H535.71C519.72 54.03 510.22 62.4 510.22 76.39C510.22 90.38 520.61 101 535.58 101C546.56 101 552.66 95.81 555.32 91.88C557.69 96.63 562.94 99.25 569.81 99.25H576.06V83.01C572.81 83.01 571.56 81.51 571.56 77.64M553.57 73.02C553.57 81.14 547.82 85.76 540.33 85.76C533.83 85.76 528.71 83.39 528.71 76.39C528.71 69.39 534.33 68.4 539.2 68.4H553.57V73.02ZM0 126.41H96.2V146.4H0V126.41ZM65.59 14.64C62.84 6.46 59.68 0 48.85 0C38.02 0 34.65 6.43 31.77 14.64L2 99.25H21.74L28.61 79.14H66.59L72.96 99.25H93.95L65.59 14.64ZM34.36 62.15L47.85 22.05H48.35L61.09 62.15H34.35H34.36ZM703.61 28.92L678.75 56.78V28.92H660.76V99.25H678.75V69.64L705.36 99.25H728.6L695.87 62.4L726.23 28.92H703.61ZM629.04 55.15H604.18V28.92H586.18V99.25H604.18V71.52H629.04V99.25H647.03V28.92H629.04V55.15Z" fill="#FF0000"></path></g></g><defs><clipPath id="clip0_6286_2710"><rect width="728.6" height="146.4" fill="white"></rect></clipPath><clipPath id="clip1_6286_2710"><rect width="728.6" height="146.4" fill="white"></rect></clipPath></defs></svg>