<?xml version="1.0" encoding="UTF-8"?> <svg xmlns="http://www.w3.org/2000/svg" width="479" height="127" viewBox="0 0 479 127" fill="none"><path d="M51.892 59.6982C53.4502 60.5766 55.3546 60.5766 56.9138 59.6981L96.7922 37.2315C100.264 35.2753 100.267 30.277 96.7976 28.3208L56.9466 5.85414C55.3885 4.97572 53.4841 4.9757 51.9248 5.85411L12.0451 28.3207C8.5728 30.2769 8.56975 35.2754 12.0397 37.2315L51.892 59.6982Z" fill="#32C84E"></path><path d="M50.9215 70.9345C50.9226 69.0883 49.9286 67.3855 48.3208 66.4791L8.28015 43.9063C4.87214 41.985 0.654774 44.4484 0.652389 48.3617L0.625001 93.2951C0.623876 95.1412 1.61777 96.844 3.22548 97.7504L43.2662 120.325C46.6742 122.246 50.8917 119.783 50.8941 115.87L50.9215 70.9345Z" fill="#32C84E"></path><path d="M60.4846 66.4791C58.8758 67.3855 57.8798 69.0883 57.8787 70.9344L57.8513 115.868C57.8489 119.781 62.0633 122.244 65.4737 120.323L105.54 97.7504C107.149 96.844 108.145 95.1412 108.146 93.295L108.173 48.3619C108.175 44.4486 103.961 41.9852 100.551 43.9065L60.4846 66.4791Z" fill="#32C84E"></path><path d="M143.533 69.2254L143.553 37.3092H131.302L131.305 31.3677H162.144L162.14 37.3092H149.889L149.869 69.2254H143.533Z" fill="#181B21"></path><path d="M167.376 69.2254L167.399 31.3677H182.41C184.969 31.3677 187.063 31.8847 188.693 32.9188C190.34 33.9353 191.557 35.2411 192.345 36.836C193.15 38.4309 193.552 40.0785 193.551 41.7785C193.55 43.8642 193.049 45.6344 192.049 47.0891C191.067 48.5439 189.726 49.5254 188.025 50.0336L188.026 48.7191C190.409 49.2625 192.214 50.3929 193.44 52.1106C194.683 53.8282 195.304 55.7824 195.303 57.9733C195.301 60.2167 194.871 62.1797 194.011 63.8622C193.151 65.5448 191.871 66.8593 190.17 67.8058C188.487 68.7522 186.401 69.2254 183.912 69.2254H167.376ZM173.794 63.2576H183.127C184.231 63.2576 185.222 63.0385 186.098 62.6003C186.975 62.1446 187.659 61.5137 188.15 60.7074C188.659 59.8837 188.914 58.9109 188.914 57.7892C188.915 56.7727 188.696 55.8613 188.259 55.0551C187.821 54.2488 187.182 53.6091 186.341 53.1359C185.5 52.6451 184.492 52.3998 183.318 52.3998H173.801L173.794 63.2576ZM173.804 46.4845H182.322C183.234 46.4845 184.049 46.3092 184.768 45.9587C185.486 45.6081 186.056 45.0911 186.477 44.4076C186.898 43.724 187.109 42.8827 187.11 41.8837C187.111 40.5692 186.691 39.4738 185.85 38.5974C185.009 37.7211 183.835 37.2829 182.328 37.2829H173.81L173.804 46.4845Z" fill="#181B21"></path><path d="M217.608 70.0141C213.822 70.0141 210.58 69.1904 207.882 67.5429C205.184 65.8778 203.109 63.5643 201.656 60.6023C200.22 57.6403 199.504 54.205 199.506 50.2965C199.509 46.3881 200.229 42.9528 201.668 39.9908C203.125 37.0288 205.203 34.724 207.903 33.0765C210.603 31.4115 213.846 30.579 217.632 30.579C221.418 30.579 224.66 31.4115 227.358 33.0765C230.074 34.724 232.149 37.0288 233.585 39.9908C235.037 42.9528 235.763 46.3881 235.76 50.2965C235.758 54.205 235.029 57.6403 233.572 60.6023C232.133 63.5643 230.055 65.8778 227.337 67.5429C224.637 69.1904 221.394 70.0141 217.608 70.0141ZM217.612 64.0463C220.153 64.0638 222.266 63.5029 223.949 62.3637C225.65 61.2245 226.921 59.6208 227.764 57.5526C228.624 55.4845 229.055 53.0658 229.056 50.2965C229.058 47.5273 228.63 45.1262 227.773 43.0931C226.933 41.0424 225.663 39.4475 223.963 38.3083C222.282 37.169 220.17 36.5819 217.629 36.5468C215.087 36.5293 212.975 37.0901 211.292 38.2294C209.608 39.3686 208.337 40.9723 207.477 43.0405C206.634 45.1086 206.212 47.5273 206.21 50.2965C206.209 53.0658 206.628 55.4757 207.468 57.5263C208.308 59.5594 209.569 61.1456 211.251 62.2848C212.95 63.4241 215.07 64.0112 217.612 64.0463Z" fill="#181B21"></path><path d="M242.033 69.2254L242.056 31.3677H248.471L248.455 58.0521L266.033 31.3677H272.448L272.425 69.2254H266.01L266.026 42.541L248.448 69.2254H242.033ZM257.228 28.1603C255.756 28.1603 254.415 27.801 253.206 27.0824C252.015 26.3638 251.06 25.4086 250.342 24.2168C249.624 23.0074 249.266 21.6666 249.267 20.1944H254.209C254.209 21.0356 254.498 21.7542 255.076 22.3502C255.671 22.9285 256.39 23.2177 257.231 23.2177C258.072 23.2177 258.782 22.9285 259.361 22.3502C259.957 21.7542 260.255 21.0356 260.256 20.1944H265.199C265.198 21.6666 264.838 23.0074 264.118 24.2168C263.399 25.4086 262.434 26.3638 261.225 27.0824C260.015 27.801 258.683 28.1603 257.228 28.1603Z" fill="#181B21"></path><path d="M308.414 70.0141C304.628 70.0141 301.386 69.1904 298.688 67.5429C295.99 65.8778 293.914 63.5643 292.461 60.6023C291.026 57.6403 290.31 54.205 290.312 50.2965C290.314 46.3881 291.035 42.9528 292.474 39.9908C293.931 37.0288 296.009 34.724 298.709 33.0765C301.409 31.4115 304.652 30.579 308.438 30.579C312.802 30.579 316.438 31.6744 319.346 33.8652C322.254 36.0385 324.294 38.9743 325.466 42.6724L319.077 44.4338C318.342 41.9626 317.09 40.0346 315.321 38.65C313.552 37.2479 311.256 36.5468 308.434 36.5468C305.893 36.5468 303.772 37.1164 302.071 38.2557C300.388 39.3949 299.116 40.9986 298.256 43.0668C297.413 45.1174 296.983 47.5273 296.963 50.2965C296.962 53.0658 297.381 55.4845 298.221 57.5526C299.078 59.6032 300.357 61.1982 302.056 62.3374C303.756 63.4767 305.876 64.0463 308.417 64.0463C311.239 64.0463 313.536 63.3452 315.307 61.9431C317.078 60.5409 318.332 58.613 319.07 56.1592L325.457 57.9207C324.281 61.6188 322.237 64.5633 319.326 66.7542C316.415 68.9275 312.778 70.0141 308.414 70.0141Z" fill="#181B21"></path><path d="M332.274 69.2254L332.297 31.3677H338.633L338.622 48.9295L353.75 31.3677H361.532L345.247 49.9285L362.613 69.2254H354.568L338.621 51.5585L338.61 69.2254H332.274Z" fill="#181B21"></path><path d="M364.74 69.2254L364.744 63.9148C365.585 63.9674 366.295 63.9061 366.873 63.7308C367.452 63.538 367.934 63.1787 368.32 62.6529C368.723 62.1096 369.074 61.3472 369.373 60.3657C369.671 59.3666 369.961 58.1135 370.243 56.6062C370.647 54.4504 370.982 52.207 371.246 49.8759C371.528 47.5273 371.766 45.2226 371.96 42.9616C372.154 40.6831 372.304 38.5449 372.411 36.5468C372.517 34.5488 372.606 32.8224 372.677 31.3677H398.02L397.997 69.2254H391.661L391.681 37.3092H378.536C378.448 38.4835 378.341 39.9032 378.218 41.5682C378.112 43.2157 377.962 45.0035 377.768 46.9314C377.591 48.8594 377.362 50.8574 377.08 52.9256C376.816 54.9937 376.491 57.0268 376.104 59.0249C375.752 60.8476 375.331 62.4864 374.839 63.9411C374.347 65.3783 373.689 66.5701 372.865 67.5166C372.058 68.4455 370.998 69.0677 369.683 69.3832C368.386 69.6986 366.738 69.6461 364.74 69.2254Z" fill="#181B21"></path><path d="M403.789 69.2254L415.748 31.3677H425.029L436.941 69.2254H430.421L419.61 35.2586H421.03L410.309 69.2254H403.789ZM410.446 61.0229L410.449 55.1076H430.325L430.321 61.0229H410.446Z" fill="#181B21"></path><path d="M442.361 75.5351L442.368 63.2839C443.595 63.2839 444.621 62.9771 445.445 62.3637C446.269 61.7503 446.927 60.9002 447.418 59.8136C447.927 58.7269 448.322 57.465 448.604 56.0278C448.885 54.5731 449.105 53.0307 449.264 51.4007C449.458 49.2449 449.626 47.133 449.767 45.0648C449.909 42.9791 450.041 40.8233 450.165 38.5974C450.307 36.354 450.466 33.9266 450.643 31.3151L475.329 31.3677L475.31 63.2839H478.149L478.142 75.5351H471.832L471.836 69.2254H448.701L448.697 75.5351H442.361ZM452.227 63.2839H468.974L468.99 37.3092L456.423 37.2566C456.299 39.097 456.193 40.8146 456.105 42.4095C456.034 43.9869 455.936 45.5906 455.812 47.2206C455.706 48.8506 455.556 50.6296 455.362 52.5575C455.186 54.4504 454.992 56.0278 454.781 57.2897C454.587 58.5516 454.298 59.6471 453.911 60.576C453.525 61.4874 452.964 62.39 452.227 63.2839Z" fill="#181B21"></path><path d="M148.424 105.656L148.425 103.027H136.319L136.327 88.8303H138.667L138.66 100.805H145.614L145.621 88.8303H147.961L147.953 100.897H150.767L150.764 105.656H148.424Z" fill="#181B21"></path><path d="M159.281 103.421C157.887 103.421 156.669 103.115 155.627 102.501C154.593 101.879 153.787 101.016 153.21 99.9116C152.632 98.7987 152.344 97.5017 152.344 96.0207C152.345 94.4696 152.631 93.1288 153.201 91.9983C153.772 90.8591 154.565 89.9827 155.582 89.3693C156.608 88.7471 157.809 88.436 159.184 88.436C160.613 88.436 161.826 88.7646 162.825 89.4219C163.832 90.0791 164.585 91.0168 165.084 92.2349C165.592 93.453 165.81 94.9034 165.739 96.5859H163.373L163.373 95.7446C163.348 94.0007 162.994 92.6994 162.311 91.8406C161.628 90.973 160.612 90.5392 159.262 90.5392C157.816 90.5392 156.716 91.0037 155.962 91.9326C155.208 92.8615 154.83 94.1935 154.829 95.9287C154.828 97.6025 155.204 98.8995 155.957 99.8196C156.71 100.74 157.783 101.2 159.177 101.2C160.114 101.2 160.929 100.985 161.622 100.556C162.315 100.126 162.858 99.5085 163.253 98.7023L165.501 99.4778C164.948 100.731 164.115 101.704 163.001 102.396C161.897 103.08 160.656 103.421 159.281 103.421ZM154.04 96.5859L154.041 94.7062H164.531L164.53 96.5859H154.04Z" fill="#181B21"></path><path d="M168.911 103.027L168.92 88.8303H171.26L171.256 94.8113H178.723L178.726 88.8303H181.066L181.057 103.027H178.718L178.721 97.0329H171.255L171.251 103.027H168.911Z" fill="#181B21"></path><path d="M188.762 103.027L188.769 90.9598H183.827L183.828 88.8303H196.053L196.052 90.9598H191.109L191.102 103.027H188.762Z" fill="#181B21"></path><path d="M205.315 103.421C203.983 103.421 202.862 103.093 201.951 102.435C201.04 101.769 200.348 100.871 199.875 99.7407C199.412 98.6015 199.18 97.3264 199.181 95.9155C199.182 94.4871 199.415 93.2076 199.88 92.0772C200.354 90.9467 201.047 90.0572 201.959 89.4087C202.879 88.7602 204.006 88.436 205.338 88.436C206.652 88.436 207.782 88.7646 208.728 89.4219C209.683 90.0704 210.414 90.9598 210.922 92.0903C211.43 93.2208 211.683 94.4959 211.682 95.9155C211.681 97.3352 211.426 98.6103 210.917 99.7407C210.408 100.871 209.676 101.769 208.72 102.435C207.774 103.093 206.639 103.421 205.315 103.421ZM198.779 109.337L198.791 88.8303H200.881L200.875 99.2807H201.138L201.132 109.337H198.779ZM205.027 101.279C205.965 101.279 206.741 101.042 207.355 100.569C207.968 100.096 208.429 99.4559 208.736 98.6497C209.043 97.8347 209.197 96.9233 209.198 95.9155C209.198 94.9165 209.045 94.0139 208.739 93.2076C208.442 92.4014 207.978 91.7617 207.347 91.2885C206.725 90.8152 205.932 90.5786 204.968 90.5786C204.048 90.5786 203.285 90.8065 202.681 91.2622C202.076 91.7091 201.624 92.3357 201.325 93.1419C201.027 93.9394 200.877 94.8639 200.877 95.9155C200.876 96.9496 201.02 97.8741 201.309 98.6891C201.606 99.4954 202.062 100.131 202.675 100.595C203.288 101.051 204.072 101.279 205.027 101.279Z" fill="#181B21"></path><path d="M218.771 103.027L224.204 95.8498L218.898 88.8303H221.685L225.572 94.0358L229.427 88.8303H232.214L226.899 95.8498L232.337 103.027H229.537L225.57 97.6638L221.571 103.027H218.771Z" fill="#181B21"></path><path d="M241.226 103.421C239.894 103.421 238.772 103.093 237.861 102.435C236.95 101.769 236.259 100.871 235.786 99.7407C235.322 98.6015 235.091 97.3264 235.092 95.9155C235.093 94.4871 235.326 93.2076 235.791 92.0772C236.265 90.9467 236.958 90.0572 237.869 89.4087C238.79 88.7602 239.916 88.436 241.248 88.436C242.563 88.436 243.693 88.7646 244.639 89.4219C245.594 90.0704 246.325 90.9598 246.833 92.0903C247.34 93.2208 247.594 94.4959 247.593 95.9155C247.592 97.3352 247.337 98.6103 246.828 99.7407C246.319 100.871 245.587 101.769 244.631 102.435C243.684 103.093 242.549 103.421 241.226 103.421ZM234.689 109.337L234.702 88.8303H236.792L236.785 99.2807H237.048L237.042 109.337H234.689ZM240.938 101.279C241.876 101.279 242.651 101.042 243.265 100.569C243.879 100.096 244.339 99.4559 244.647 98.6497C244.954 97.8347 245.108 96.9233 245.108 95.9155C245.109 94.9165 244.956 94.0139 244.65 93.2076C244.352 92.4014 243.888 91.7617 243.258 91.2885C242.636 90.8152 241.843 90.5786 240.879 90.5786C239.959 90.5786 239.196 90.8065 238.591 91.2622C237.986 91.7091 237.535 92.3357 237.236 93.1419C236.938 93.9394 236.788 94.8639 236.787 95.9155C236.787 96.9496 236.931 97.8741 237.22 98.6891C237.517 99.4954 237.972 100.131 238.585 100.595C239.199 101.051 239.983 101.279 240.938 101.279Z" fill="#181B21"></path><path d="M254.768 103.421C253.708 103.421 252.818 103.229 252.1 102.843C251.391 102.449 250.852 101.932 250.484 101.292C250.125 100.652 249.946 99.9511 249.947 99.1886C249.947 98.4438 250.088 97.7997 250.368 97.2563C250.658 96.7042 251.061 96.2485 251.579 95.8892C252.096 95.5212 252.714 95.232 253.433 95.0217C254.107 94.8376 254.861 94.6799 255.694 94.5484C256.535 94.4082 257.385 94.2812 258.244 94.1672C259.103 94.0533 259.905 93.9438 260.65 93.8386L259.808 94.325C259.835 93.063 259.582 92.1297 259.048 91.5251C258.522 90.9204 257.611 90.6181 256.314 90.6181C255.455 90.6181 254.701 90.8152 254.053 91.2096C253.413 91.5952 252.961 92.2261 252.698 93.1025L250.476 92.4321C250.819 91.1877 251.481 90.2106 252.463 89.5007C253.445 88.7909 254.738 88.436 256.342 88.436C257.63 88.436 258.734 88.6682 259.654 89.1327C260.582 89.5884 261.248 90.2807 261.651 91.2096C261.852 91.6478 261.979 92.1254 262.031 92.6424C262.083 93.1507 262.109 93.6852 262.109 94.2461L262.103 103.027H260.026L260.029 99.6224L260.515 99.9379C259.979 101.086 259.23 101.953 258.265 102.541C257.31 103.128 256.144 103.421 254.768 103.421ZM255.124 101.463C255.966 101.463 256.693 101.314 257.307 101.016C257.929 100.709 258.429 100.31 258.806 99.8196C259.183 99.3201 259.429 98.7768 259.543 98.1896C259.675 97.7515 259.745 97.2651 259.754 96.7305C259.772 96.1872 259.781 95.7709 259.781 95.4817L260.596 95.8367C259.834 95.9418 259.084 96.0426 258.348 96.139C257.612 96.2354 256.915 96.3406 256.258 96.4545C255.601 96.5596 255.009 96.6867 254.483 96.8357C254.097 96.9584 253.734 97.1161 253.392 97.3089C253.059 97.5017 252.787 97.7515 252.576 98.0582C252.374 98.3561 252.273 98.7286 252.273 99.1755C252.273 99.5611 252.369 99.9292 252.562 100.28C252.763 100.63 253.07 100.915 253.481 101.134C253.902 101.353 254.45 101.463 255.124 101.463Z" fill="#181B21"></path><path d="M265.771 103.027L265.779 88.8303H268.119L268.116 94.8113H275.582L275.586 88.8303H277.926L277.917 103.027H275.577L275.581 97.0329H268.114L268.111 103.027H265.771Z" fill="#181B21"></path><path d="M288.014 103.421C286.62 103.421 285.402 103.115 284.36 102.501C283.326 101.879 282.521 101.016 281.943 99.9116C281.365 98.7987 281.077 97.5017 281.078 96.0207C281.079 94.4696 281.364 93.1288 281.934 91.9983C282.505 90.8591 283.298 89.9827 284.315 89.3693C285.341 88.7471 286.542 88.436 287.918 88.436C289.346 88.436 290.56 88.7646 291.558 89.4219C292.566 90.0791 293.319 91.0168 293.817 92.2349C294.325 93.453 294.543 94.9034 294.472 96.5859H292.106L292.106 95.7446C292.081 94.0007 291.727 92.6994 291.044 91.8406C290.361 90.973 289.345 90.5392 287.995 90.5392C286.549 90.5392 285.449 91.0037 284.695 91.9326C283.941 92.8615 283.563 94.1935 283.562 95.9287C283.561 97.6025 283.937 98.8995 284.69 99.8196C285.443 100.74 286.517 101.2 287.91 101.2C288.848 101.2 289.663 100.985 290.355 100.556C291.048 100.126 291.592 99.5085 291.986 98.7023L294.234 99.4778C293.681 100.731 292.848 101.704 291.734 102.396C290.63 103.08 289.39 103.421 288.014 103.421ZM282.773 96.5859L282.774 94.7062H293.264L293.263 96.5859H282.773Z" fill="#181B21"></path><path d="M297.645 103.027L297.653 88.8303H299.993L299.989 94.8113H307.456L307.459 88.8303H309.799L309.791 103.027H307.451L307.454 97.0329H299.988L299.984 103.027H297.645Z" fill="#181B21"></path><path d="M325.365 88.8303L325.356 103.027H323.095L323.101 92.5635L315.655 103.027H313.723L313.731 88.8303H315.992L315.986 99.1492L323.445 88.8303H325.365Z" fill="#181B21"></path><path d="M338.068 103.027L338.071 97.8873H335.008C334.649 97.8873 334.25 97.8741 333.812 97.8478C333.383 97.8128 332.98 97.7646 332.603 97.7032C331.578 97.5105 330.71 97.0592 330.001 96.3493C329.3 95.6395 328.95 94.658 328.951 93.4048C328.952 92.1867 329.281 91.2096 329.939 90.4735C330.605 89.7286 331.425 89.2466 332.398 89.0275C332.836 88.9224 333.279 88.8654 333.726 88.8566C334.181 88.8391 334.567 88.8303 334.882 88.8303H340.416L340.421 103.027H338.068ZM328.512 103.027L332.288 97.2432H334.812L331.035 103.027H328.512ZM334.839 95.955H338.072L338.076 90.7627H334.842C334.64 90.7627 334.373 90.7714 334.04 90.789C333.716 90.8065 333.405 90.8591 333.107 90.9467C332.826 91.0256 332.55 91.1702 332.278 91.3805C332.015 91.5908 331.796 91.8625 331.62 92.1955C331.445 92.5285 331.357 92.9228 331.357 93.3785C331.356 94.0358 331.54 94.5704 331.908 94.9822C332.276 95.3853 332.722 95.657 333.248 95.7972C333.537 95.8673 333.822 95.9111 334.103 95.9287C334.392 95.9462 334.637 95.955 334.839 95.955Z" fill="#181B21"></path><path d="M349.89 103.027L349.899 88.8303H355.945C356.305 88.8303 356.69 88.8522 357.102 88.8961C357.523 88.9311 357.904 88.9968 358.246 89.0932C359.008 89.2948 359.634 89.7111 360.125 90.342C360.624 90.9642 360.873 91.7529 360.872 92.7081C360.872 93.2427 360.788 93.7072 360.622 94.1015C360.464 94.4959 360.236 94.8376 359.938 95.1268C359.806 95.2583 359.661 95.3766 359.504 95.4817C359.346 95.5869 359.188 95.6702 359.03 95.7315C359.337 95.7841 359.648 95.9024 359.963 96.0864C360.463 96.3581 360.852 96.7393 361.132 97.23C361.421 97.7208 361.566 98.3474 361.565 99.1098C361.565 100.074 361.332 100.871 360.867 101.502C360.402 102.124 359.762 102.554 358.947 102.79C358.605 102.887 358.228 102.953 357.816 102.988C357.405 103.014 357.006 103.027 356.62 103.027H349.89ZM352.257 101.121H356.49C356.674 101.121 356.893 101.103 357.147 101.068C357.41 101.033 357.642 100.99 357.844 100.937C358.3 100.805 358.629 100.56 358.83 100.201C359.041 99.8415 359.146 99.4515 359.146 99.0309C359.147 98.47 358.989 98.0144 358.674 97.6638C358.368 97.3133 357.96 97.0942 357.452 97.0066C357.268 96.954 357.066 96.9233 356.847 96.9146C356.637 96.9058 356.449 96.9014 356.282 96.9014H352.26L352.257 101.121ZM352.261 94.9691H355.784C356.029 94.9691 356.288 94.9559 356.559 94.9296C356.831 94.8946 357.068 94.8376 357.269 94.7588C357.673 94.6098 357.966 94.3644 358.151 94.0226C358.344 93.6721 358.44 93.2909 358.44 92.879C358.441 92.4233 358.336 92.0246 358.126 91.6828C357.924 91.3323 357.613 91.0913 357.193 90.9598C356.912 90.8547 356.597 90.7977 356.246 90.789C355.905 90.7714 355.686 90.7627 355.589 90.7627H352.264L352.261 94.9691Z" fill="#181B21"></path><path d="M370.618 103.421C369.225 103.421 368.007 103.115 366.964 102.501C365.931 101.879 365.125 101.016 364.547 99.9116C363.969 98.7987 363.681 97.5017 363.682 96.0207C363.683 94.4696 363.969 93.1288 364.539 91.9983C365.109 90.8591 365.903 89.9827 366.92 89.3693C367.945 88.7471 369.146 88.436 370.522 88.436C371.95 88.436 373.164 88.7646 374.163 89.4219C375.17 90.0791 375.923 91.0168 376.422 92.2349C376.929 93.453 377.148 94.9034 377.076 96.5859H374.71L374.711 95.7446C374.686 94.0007 374.331 92.6994 373.648 91.8406C372.965 90.973 371.949 90.5392 370.6 90.5392C369.154 90.5392 368.054 91.0037 367.299 91.9326C366.545 92.8615 366.167 94.1935 366.166 95.9287C366.165 97.6025 366.541 98.8995 367.294 99.8196C368.048 100.74 369.121 101.2 370.514 101.2C371.452 101.2 372.267 100.985 372.96 100.556C373.652 100.126 374.196 99.5085 374.591 98.7023L376.838 99.4778C376.285 100.731 375.452 101.704 374.339 102.396C373.234 103.08 371.994 103.421 370.618 103.421ZM365.377 96.5859L365.378 94.7062H375.868L375.867 96.5859H365.377Z" fill="#181B21"></path><path d="M396.14 105.656L396.141 103.027H380.249L380.258 88.8303H382.518L382.511 100.897H387.401L387.408 88.8303H389.669L389.662 100.897H394.539L394.546 88.8303H396.807L396.8 100.897H398.482L398.479 105.656H396.14Z" fill="#181B21"></path><path d="M407.01 103.421C405.617 103.421 404.399 103.115 403.357 102.501C402.323 101.879 401.517 101.016 400.939 99.9116C400.362 98.7987 400.073 97.5017 400.074 96.0207C400.075 94.4696 400.361 93.1288 400.931 91.9983C401.501 90.8591 402.295 89.9827 403.312 89.3693C404.338 88.7471 405.538 88.436 406.914 88.436C408.343 88.436 409.556 88.7646 410.555 89.4219C411.562 90.0791 412.315 91.0168 412.814 92.2349C413.322 93.453 413.54 94.9034 413.469 96.5859H411.103L411.103 95.7446C411.078 94.0007 410.724 92.6994 410.041 91.8406C409.358 90.973 408.341 90.5392 406.992 90.5392C405.546 90.5392 404.446 91.0037 403.692 91.9326C402.937 92.8615 402.56 94.1935 402.559 95.9287C402.558 97.6025 402.934 98.8995 403.687 99.8196C404.44 100.74 405.513 101.2 406.906 101.2C407.844 101.2 408.659 100.985 409.352 100.556C410.044 100.126 410.588 99.5085 410.983 98.7023L413.23 99.4778C412.677 100.731 411.844 101.704 410.731 102.396C409.626 103.08 408.386 103.421 407.01 103.421ZM401.77 96.5859L401.771 94.7062H412.26L412.259 96.5859H401.77Z" fill="#181B21"></path><path d="M422.776 87.1741C422.119 87.1741 421.519 87.0119 420.976 86.6877C420.433 86.3634 419.999 85.9341 419.675 85.3995C419.351 84.8562 419.19 84.2515 419.19 83.5855H421.083C421.083 84.0499 421.249 84.4487 421.582 84.7817C421.914 85.1147 422.313 85.2812 422.778 85.2812C423.251 85.2812 423.65 85.1147 423.974 84.7817C424.307 84.4487 424.474 84.0499 424.474 83.5855H426.367C426.367 84.2515 426.204 84.8562 425.88 85.3995C425.564 85.9341 425.13 86.3634 424.578 86.6877C424.034 87.0119 423.434 87.1741 422.776 87.1741ZM428.283 88.8303L428.275 103.027H426.014L426.02 92.5635L418.573 103.027H416.641L416.65 88.8303H418.911L418.904 99.1492L426.364 88.8303H428.283Z" fill="#181B21"></path></svg>