<?xml version="1.0" encoding="UTF-8"?> <svg xmlns="http://www.w3.org/2000/svg" width="25" height="25" viewBox="0 0 25 25" fill="none"><circle data-figma-bg-blur-radius="400" cx="12.5" cy="12.5" r="12.5" fill="#2A6E91"></circle><g clip-path="url(#clip1_26_97)"><path d="M17.9834 8.79831L16.1149 17.5177C16.0221 17.9484 15.5039 18.1414 15.1431 17.8844L10.6935 14.5983L15.6056 10.193C15.6056 10.193 15.939 9.92728 15.8471 9.84483C15.7444 9.74397 15.3836 9.96413 15.19 10.0922C15.0043 10.2212 9.17608 13.8738 9.17608 13.8738L6.23412 12.9563C5.90072 12.8554 5.90072 12.4054 6.38176 12.2036L17.2432 8.05536C17.7057 7.82549 18.0851 8.35797 17.9834 8.79831Z" fill="white"></path></g><defs><clipPath id="bgblur_0_26_97_clip_path"><circle transform="translate(400 400)" cx="12.5" cy="12.5" r="12.5"></circle></clipPath><clipPath id="clip1_26_97"><rect width="12" height="10" fill="white" transform="translate(6 8)"></rect></clipPath></defs></svg>