<?xml version="1.0" encoding="UTF-8"?> <svg xmlns="http://www.w3.org/2000/svg" width="363" height="71" viewBox="0 0 363 71" fill="none"><path d="M47.7 39.8001L50.6 36.9C51.4 36.1 51.4 34.8001 50.6 34.0001L27.2 10.4C26.4 9.60005 25.1 9.60005 24.3 10.4L21.4 13.3001C20.6 14.1001 20.6 15.4001 21.4 16.2001L30.4 25.3001L25.4 30.3001C24.6 31.1001 24.6 32.4001 25.4 33.2001L28.3 36.1001C29.1 36.9001 30.4 36.9001 31.2 36.1001L36.2 31.1001L44.9 39.9C45.7 40.7 46.9 40.6001 47.7 39.8001Z" fill="#3D5A7F"></path><path d="M36.9 70.3L70.4 37C71 36.4 71.1 35.5 70.8 34.8L70.3 34.1L37 0.6C36.2 -0.2 34.9 -0.2 34.1 0.6L31.2 3.49999C30.4 4.29999 30.4 5.59999 31.2 6.39999L60.2 35.6L31 64.6C30.2 65.4 30.2 66.7 31 67.5L33.9 70.4C34.7 71.2 36 71.2 36.8 70.4L36.9 70.3Z" fill="#8AA9CF"></path><path d="M27.1 60.4L29 58.5001C29 58.5001 29.1 58.5 29.2 58.4L40.7 47.0001C41.5 46.2001 41.5 44.9001 40.7 44.1001L37.8 41.2001C37 40.4001 35.7 40.4001 34.9 41.2001L25.6 50.4L21.1 45.9L23.9 43.1001C24.7 42.3001 24.7 41.0001 23.9 40.2001L21 37.3001C20.2 36.5001 18.9 36.5001 18.1 37.3001L15.3 40.1001L10.6 35.4L19.9 26.2001C20.7 25.4001 20.7 24.1001 19.9 23.3001L17 20.4C16.2 19.6 14.9 19.6 14.1 20.4L2.6 31.8001C2.6 31.8001 2.6 31.8 2.6 31.9L0.6 33.9C-0.2 34.7 -0.2 36.0001 0.6 36.8001L24 60.4C24.8 61.2 26.1 61.2 26.9 60.4H27.1Z" fill="#3D5A7F"></path><path d="M92 38.1C89.6 36.8 87.7 35.2 86.3 32.9C84.9 30.6 84.2 28 84.2 25.1C84.2 22.2 84.9 19.6 86.3 17.3C87.7 15 89.6 13.2 92 11.9C94.4 10.6 97.1 10 100.2 10C103.3 10 105.2 10.5 107.4 11.4C109.5 12.3 111.3 13.7 112.7 15.5L107.5 20.2C105.6 17.9 103.3 16.8 100.7 16.8C98.1 16.8 97.7 17.1 96.5 17.8C95.3 18.5 94.3 19.5 93.6 20.7C92.9 22 92.6 23.4 92.6 25C92.6 26.6 92.9 28.1 93.6 29.3C94.3 30.6 95.2 31.5 96.5 32.2C97.7 32.9 99.1 33.2 100.7 33.2C103.4 33.2 105.7 32.1 107.5 29.8L112.7 34.5C111.3 36.3 109.5 37.6 107.4 38.6C105.3 39.5 102.9 40 100.2 40C97.5 40 94.4 39.4 92 38.1Z" fill="#3D5A7F"></path><path d="M116.3 10.6H124.4V27.6L136.4 10.6H144.1V39.6H136V22.6L124.1 39.6H116.3V10.6Z" fill="#3D5A7F"></path><path d="M177.9 10.6V39.6H169.7V28.3H158.5V39.6H150.3V10.6H158.5V21.5H169.7V10.6H177.9Z" fill="#3D5A7F"></path><path d="M207.5 17.1H198.6V39.6H190.5V17.1H181.6V10.6H207.5V17.1Z" fill="#3D5A7F"></path><path d="M234.6 33.3V39.6H211.3V10.6H234.1V16.9H219.5V21.8H232.4V27.9H219.5V33.2H234.7L234.6 33.3Z" fill="#3D5A7F"></path><path d="M261.2 27.2C262.1 28.4 262.4 29.9 262.4 31.5C262.4 33.1 261.8 34.9 260.6 36.2C259.4 37.5 257.7 38.5 255.7 39.2C253.6 39.9 251.3 40.3 248.9 40.3C246.5 40.3 244.9 40.1 242.9 39.6C240.9 39.1 238.9 38.4 237.1 37.5L239.5 31.8C240.8 32.5 242.2 33 243.7 33.3C245.2 33.6 246.6 33.8 248 33.8C249.4 33.8 251.3 33.5 252.5 32.9C253.7 32.3 254.2 31.5 254.2 30.4C254.2 29.3 253.8 28.9 253.1 28.5C252.4 28.1 251.4 27.9 250.2 27.9H242.8V21.9H249.6C250.7 21.9 251.6 21.7 252.2 21.2C252.8 20.8 253.1 20.2 253.1 19.4C253.1 18.6 252.6 17.7 251.7 17.2C250.8 16.7 249.5 16.4 248.1 16.4C246.7 16.4 245.6 16.6 244.2 16.9C242.8 17.2 241.6 17.7 240.3 18.4L237.9 12.2C241 10.7 244.4 10 248.1 10C251.8 10 252.7 10.3 254.7 11C256.7 11.7 258.3 12.7 259.6 13.9C260.8 15.2 261.4 16.7 261.4 18.4C261.4 20.1 261 21 260.3 22C259.6 23.1 258.6 23.9 257.4 24.5C259 25.1 260.3 26 261.2 27.2Z" fill="#3D5A7F"></path><path d="M293.9 10.6V39.6H285.8V17.1H277.5L277.3 21.8C277.2 25.9 276.8 29.3 276.3 31.9C275.8 34.5 274.8 36.5 273.5 37.9C272.2 39.3 270.4 40 268 40C265.6 40 265.7 39.8 264.3 39.5L264.8 32.8C265.2 32.8 265.5 32.9 265.9 32.9C267 32.9 267.8 32.5 268.4 31.6C269 30.7 269.4 29.5 269.6 28C269.8 26.5 270 24.5 270.1 22L270.5 10.4H293.9V10.6Z" fill="#8AA9CF"></path><path d="M320.1 34H307.8L305.5 39.6H297.1L309.9 10.6H318L330.9 39.6H322.4L320.1 34ZM317.7 27.9L314 18.6L310.3 27.9H317.8H317.7Z" fill="#8AA9CF"></path><path d="M334.3 10.6H358.6V16.9H342.4V21.6H349.9C353.4 21.6 356.1 22.3 358 23.8C359.9 25.3 360.8 27.4 360.8 30.2C360.8 33 359.7 35.4 357.6 37.1C355.5 38.7 352.6 39.6 348.8 39.6H334.3V10.6ZM348.2 33.7C349.6 33.7 350.6 33.4 351.4 32.9C352.1 32.3 352.5 31.6 352.5 30.5C352.5 28.5 351.1 27.4 348.3 27.4H342.4V33.7H348.3H348.2Z" fill="#8AA9CF"></path><path d="M86.768 54.716C86.768 55.996 87.904 56.892 89.424 56.892C90.64 56.892 91.536 56.412 91.904 55.58H94.224C93.808 57.612 91.904 58.94 89.424 58.94C86.624 58.94 84.528 57.132 84.528 54.716C84.528 52.268 86.608 50.46 89.424 50.46C91.888 50.46 93.776 51.756 94.208 53.804H91.888C91.52 52.988 90.624 52.492 89.424 52.492C87.888 52.492 86.768 53.42 86.768 54.716ZM105.566 58.7H103.326V53.804L97.95 58.7H96.094V50.7H98.334V55.516L103.694 50.7H105.566V58.7ZM109.642 54.716C109.642 55.996 110.778 56.892 112.298 56.892C113.514 56.892 114.41 56.412 114.778 55.58H117.098C116.682 57.612 114.778 58.94 112.298 58.94C109.498 58.94 107.402 57.132 107.402 54.716C107.402 52.268 109.482 50.46 112.298 50.46C114.762 50.46 116.65 51.756 117.082 53.804H114.762C114.394 52.988 113.498 52.492 112.298 52.492C110.762 52.492 109.642 53.42 109.642 54.716ZM121.803 58.7V52.764H118.171V50.7H127.627V52.764H124.043V58.7H121.803ZM138.157 55.26H130.893C131.133 56.412 132.157 57.18 133.501 57.18C134.461 57.18 135.229 56.828 135.645 56.252H137.917C137.309 57.884 135.597 58.94 133.405 58.94C130.653 58.94 128.589 57.132 128.589 54.716C128.589 52.268 130.637 50.46 133.405 50.46C136.141 50.46 138.189 52.172 138.189 54.716C138.189 54.892 138.189 55.084 138.157 55.26ZM130.893 54.14H135.885C135.661 53.004 134.717 52.268 133.405 52.268C132.109 52.268 131.133 53.02 130.893 54.14ZM142.062 54.348V58.7H140.046V50.7H142.318L145.086 55.852L147.886 50.7H150.142V58.7H148.11V54.412L145.918 58.7H144.286L142.062 54.348ZM152.506 58.7V50.7H154.746V53.66H159.978V50.7H162.218V58.7H159.978V55.724H154.746V58.7H152.506ZM164.112 54.716C164.112 52.268 166.192 50.46 169.008 50.46C171.856 50.46 173.92 52.172 173.92 54.716C173.92 57.212 171.856 58.94 169.008 58.94C166.208 58.94 164.112 57.132 164.112 54.716ZM166.352 54.716C166.352 55.964 167.488 56.86 169.008 56.86C170.608 56.86 171.68 55.964 171.68 54.716C171.68 53.436 170.608 52.524 169.008 52.524C167.472 52.524 166.352 53.436 166.352 54.716ZM184.859 55.26H177.595C177.835 56.412 178.859 57.18 180.203 57.18C181.163 57.18 181.931 56.828 182.347 56.252H184.619C184.011 57.884 182.299 58.94 180.107 58.94C177.355 58.94 175.291 57.132 175.291 54.716C175.291 52.268 177.339 50.46 180.107 50.46C182.843 50.46 184.891 52.172 184.891 54.716C184.891 54.892 184.891 55.084 184.859 55.26ZM177.595 54.14H182.587C182.363 53.004 181.419 52.268 180.107 52.268C178.811 52.268 177.835 53.02 177.595 54.14ZM191.068 50.7H193.068L193.276 51.724C194.092 50.924 195.26 50.46 196.604 50.46C199.26 50.46 201.26 52.268 201.26 54.684C201.26 57.132 199.276 58.94 196.604 58.94C195.276 58.94 194.124 58.492 193.308 57.692V61.9H191.068V50.7ZM199.02 54.684C199.02 53.372 197.804 52.428 196.124 52.428C194.444 52.428 193.308 53.356 193.308 54.684C193.308 56.028 194.444 56.956 196.124 56.956C197.836 56.956 199.02 55.996 199.02 54.684ZM212.865 58.7H210.881L210.657 57.644C209.841 58.46 208.673 58.94 207.313 58.94C204.657 58.94 202.657 57.132 202.657 54.716C202.657 52.268 204.641 50.46 207.313 50.46C208.657 50.46 209.841 50.924 210.657 51.756L210.881 50.7H212.865V58.7ZM204.897 54.716C204.897 56.012 206.113 56.956 207.793 56.956C209.489 56.956 210.625 56.044 210.625 54.716C210.625 53.372 209.473 52.428 207.793 52.428C206.113 52.428 204.897 53.388 204.897 54.716ZM219.175 58.94C216.887 58.94 215.079 57.66 215.079 55.916H217.159C217.159 56.78 218.087 57.324 219.271 57.324C220.391 57.324 221.111 56.924 221.111 56.3C221.111 55.644 220.407 55.244 219.095 55.244H218.327V53.964H219.063C220.343 53.964 220.887 53.612 220.887 52.972C220.887 52.38 220.215 52.012 219.175 52.012C218.151 52.012 217.383 52.556 217.383 53.292H215.303C215.303 51.708 216.967 50.476 219.095 50.476C221.495 50.476 223.095 51.388 223.095 52.748C223.095 53.58 222.631 54.188 221.703 54.556C222.775 54.94 223.319 55.612 223.319 56.524C223.319 57.98 221.655 58.94 219.175 58.94ZM225.293 58.7V50.7H230.173C232.077 50.7 233.389 51.516 233.389 52.812C233.389 53.596 232.813 54.252 231.917 54.604C233.053 54.94 233.757 55.612 233.757 56.476C233.757 57.772 232.269 58.7 230.173 58.7H225.293ZM231.389 53.052C231.389 52.556 230.893 52.172 230.173 52.172H227.309V53.948H230.173C230.829 53.948 231.389 53.58 231.389 53.052ZM231.677 56.3C231.677 55.708 231.101 55.388 230.173 55.388H227.309V57.212H230.173C231.101 57.212 231.677 56.86 231.677 56.3ZM245.117 58.7H242.877V53.804L237.501 58.7H235.645V50.7H237.885V55.516L243.245 50.7H245.117V58.7ZM250.377 58.7V52.764H246.745V50.7H256.201V52.764H252.617V58.7H250.377ZM267.35 58.7H265.11V53.804L259.734 58.7H257.878V50.7H260.118V55.516L265.478 50.7H267.35V58.7ZM278.755 55.26H271.491C271.731 56.412 272.755 57.18 274.099 57.18C275.059 57.18 275.827 56.828 276.243 56.252H278.515C277.907 57.884 276.195 58.94 274.003 58.94C271.251 58.94 269.187 57.132 269.187 54.716C269.187 52.268 271.235 50.46 274.003 50.46C276.739 50.46 278.787 52.172 278.787 54.716C278.787 54.892 278.787 55.084 278.755 55.26ZM271.491 54.14H276.483C276.259 53.004 275.315 52.268 274.003 52.268C272.707 52.268 271.731 53.02 271.491 54.14ZM284.467 54.812C284.467 51.468 284.979 50.108 286.163 49.036C287.987 47.388 290.339 48.38 292.243 46.796L293.267 48.316C291.603 50.108 289.507 49.084 287.987 50.332C287.443 50.796 287.107 51.484 286.915 52.332C287.603 51.564 288.595 51.068 289.747 51.068C292.003 51.068 293.763 52.748 293.763 54.812C293.763 57.244 291.923 58.94 289.107 58.94C286.371 58.94 284.467 57.132 284.467 54.812ZM286.707 54.812C286.707 55.996 287.523 56.86 289.107 56.86C290.611 56.86 291.523 55.964 291.523 54.812C291.523 53.708 290.531 52.892 289.107 52.892C287.667 52.892 286.707 53.724 286.707 54.812ZM305.099 58.7H302.859V53.804L297.483 58.7H295.627V50.7H297.867V55.516L303.227 50.7H305.099V58.7ZM311.368 58.94C309.08 58.94 307.272 57.66 307.272 55.916H309.352C309.352 56.78 310.28 57.324 311.464 57.324C312.584 57.324 313.304 56.924 313.304 56.3C313.304 55.644 312.6 55.244 311.288 55.244H310.52V53.964H311.256C312.536 53.964 313.08 53.612 313.08 52.972C313.08 52.38 312.408 52.012 311.368 52.012C310.344 52.012 309.576 52.556 309.576 53.292H307.496C307.496 51.708 309.16 50.476 311.288 50.476C313.688 50.476 315.288 51.388 315.288 52.748C315.288 53.58 314.824 54.188 313.896 54.556C314.968 54.94 315.512 55.612 315.512 56.524C315.512 57.98 313.848 58.94 311.368 58.94ZM317.486 58.7V50.7H319.726V53.66H324.958V50.7H327.198V58.7H324.958V55.724H319.726V58.7H317.486ZM338.659 55.26H331.395C331.635 56.412 332.659 57.18 334.003 57.18C334.963 57.18 335.731 56.828 336.147 56.252H338.419C337.811 57.884 336.099 58.94 333.907 58.94C331.155 58.94 329.091 57.132 329.091 54.716C329.091 52.268 331.139 50.46 333.907 50.46C336.643 50.46 338.691 52.172 338.691 54.716C338.691 54.892 338.691 55.084 338.659 55.26ZM331.395 54.14H336.387C336.163 53.004 335.219 52.268 333.907 52.268C332.611 52.268 331.635 53.02 331.395 54.14ZM342.292 54.716C342.292 55.996 343.428 56.892 344.948 56.892C346.164 56.892 347.06 56.412 347.428 55.58H349.748C349.332 57.612 347.428 58.94 344.948 58.94C342.148 58.94 340.052 57.132 340.052 54.716C340.052 52.268 342.132 50.46 344.948 50.46C347.412 50.46 349.3 51.756 349.732 53.804H347.412C347.044 52.988 346.148 52.492 344.948 52.492C343.412 52.492 342.292 53.42 342.292 54.716ZM361.127 58.7H359.143L358.919 57.644C358.103 58.46 356.935 58.94 355.575 58.94C352.919 58.94 350.919 57.132 350.919 54.716C350.919 52.268 352.903 50.46 355.575 50.46C356.919 50.46 358.103 50.924 358.919 51.756L359.143 50.7H361.127V58.7ZM353.159 54.716C353.159 56.012 354.375 56.956 356.055 56.956C357.751 56.956 358.887 56.044 358.887 54.716C358.887 53.372 357.735 52.428 356.055 52.428C354.375 52.428 353.159 53.388 353.159 54.716Z" fill="#8AA9CF"></path></svg>