<?xml version="1.0" encoding="UTF-8"?>
<!-- Фавикон СинтезЛаб: только знак (без текста), квадратный viewBox, по центру. -->
<svg xmlns="http://www.w3.org/2000/svg" width="71" height="71" viewBox="-4 -4 79 79" fill="none">
  <path d="M47.7 39.8001L50.6 36.9C51.4 36.1 51.4 34.8001 50.6 34.0001L27.2 10.4C26.4 9.60005 25.1 9.60005 24.3 10.4L21.4 13.3001C20.6 14.1001 20.6 15.4001 21.4 16.2001L30.4 25.3001L25.4 30.3001C24.6 31.1001 24.6 32.4001 25.4 33.2001L28.3 36.1001C29.1 36.9001 30.4 36.9001 31.2 36.1001L36.2 31.1001L44.9 39.9C45.7 40.7 46.9 40.6001 47.7 39.8001Z" fill="#3D5A7F"/>
  <path d="M36.9 70.3L70.4 37C71 36.4 71.1 35.5 70.8 34.8L70.3 34.1L37 0.6C36.2 -0.2 34.9 -0.2 34.1 0.6L31.2 3.49999C30.4 4.29999 30.4 5.59999 31.2 6.39999L60.2 35.6L31 64.6C30.2 65.4 30.2 66.7 31 67.5L33.9 70.4C34.7 71.2 36 71.2 36.8 70.4L36.9 70.3Z" fill="#8AA9CF"/>
  <path d="M27.1 60.4L29 58.5001C29 58.5001 29.1 58.5 29.2 58.4L40.7 47.0001C41.5 46.2001 41.5 44.9001 40.7 44.1001L37.8 41.2001C37 40.4001 35.7 40.4001 34.9 41.2001L25.6 50.4L21.1 45.9L23.9 43.1001C24.7 42.3001 24.7 41.0001 23.9 40.2001L21 37.3001C20.2 36.5001 18.9 36.5001 18.1 37.3001L15.3 40.1001L10.6 35.4L19.9 26.2001C20.7 25.4001 20.7 24.1001 19.9 23.3001L17 20.4C16.2 19.6 14.9 19.6 14.1 20.4L2.6 31.8001C2.6 31.8001 2.6 31.8 2.6 31.9L0.6 33.9C-0.2 34.7 -0.2 36.0001 0.6 36.8001L24 60.4C24.8 61.2 26.1 61.2 26.9 60.4H27.1Z" fill="#3D5A7F"/>
</svg>
