<?xml version="1.0" encoding="UTF-8"?> <svg xmlns="http://www.w3.org/2000/svg" width="303" height="199" viewBox="0 0 303 199" fill="none"><g clip-path="url(#clip0_2012_56)"><rect width="303" height="199" fill="white"></rect><path d="M40.0222 99.3938L42.4554 96.9606C43.1267 96.2894 43.1267 95.1986 42.4554 94.5274L22.8219 74.726C22.1507 74.0548 21.0599 74.0548 20.3887 74.726L17.9555 77.1592C17.2842 77.8305 17.2842 78.9212 17.9555 79.5925L25.5068 87.2277L21.3116 91.4229C20.6404 92.0942 20.6404 93.1849 21.3116 93.8562L23.7448 96.2894C24.4161 96.9606 25.5068 96.9606 26.1781 96.2894L30.3733 92.0942L37.6729 99.4777C38.3441 100.149 39.351 100.065 40.0222 99.3938Z" fill="#3D5A7F"></path><path d="M30.9606 124.985L59.0685 97.0445C59.5719 96.5411 59.6558 95.7859 59.4041 95.1986L58.9846 94.6113L31.0445 66.5034C30.3733 65.8322 29.2825 65.8322 28.6113 66.5034L26.1781 68.9366C25.5068 69.6079 25.5068 70.6986 26.1781 71.3699L50.5103 95.8698L26.0103 120.202C25.339 120.873 25.339 121.964 26.0103 122.635L28.4435 125.068C29.1147 125.74 30.2055 125.74 30.8767 125.068L30.9606 124.985Z" fill="#8AA9CF"></path><path d="M22.738 116.678L24.3322 115.084C24.3322 115.084 24.4161 115.084 24.5 115L34.149 105.435C34.8202 104.764 34.8202 103.673 34.149 103.002L31.7157 100.569C31.0445 99.8973 29.9538 99.8973 29.2825 100.569L21.4794 108.288L17.7038 104.512L20.0531 102.163C20.7243 101.491 20.7243 100.401 20.0531 99.7295L17.6199 97.2963C16.9486 96.625 15.8579 96.625 15.1866 97.2963L12.8373 99.6456L8.89383 95.7021L16.6969 87.9829C17.3681 87.3117 17.3681 86.2209 16.6969 85.5497L14.2637 83.1165C13.5925 82.4452 12.5017 82.4452 11.8305 83.1165L2.18151 92.6815C2.18151 92.6815 2.18151 92.6815 2.18151 92.7654L0.503424 94.4435C-0.167808 95.1147 -0.167808 96.2055 0.503424 96.8767L20.137 116.678C20.8082 117.349 21.899 117.349 22.5702 116.678H22.738Z" fill="#3D5A7F"></path><path d="M77.1918 97.9675C75.1781 96.8767 73.5839 95.5343 72.4093 93.6045C71.2346 91.6747 70.6473 89.4932 70.6473 87.0599C70.6473 84.6267 71.2346 82.4452 72.4093 80.5154C73.5839 78.5856 75.1781 77.0754 77.1918 75.9846C79.2055 74.8939 81.4709 74.3904 84.0719 74.3904C86.673 74.3904 88.2671 74.81 90.113 75.5651C91.875 76.3202 93.3853 77.4949 94.5599 79.0052L90.1969 82.9487C88.6027 81.0189 86.673 80.0959 84.4914 80.0959C82.3099 80.0959 81.9743 80.3476 80.9675 80.935C79.9606 81.5223 79.1216 82.3613 78.5343 83.3682C77.9469 84.4589 77.6952 85.6336 77.6952 86.9761C77.6952 88.3185 77.9469 89.5771 78.5343 90.5839C79.1216 91.6747 79.8767 92.4298 80.9675 93.0171C81.9743 93.6045 83.149 93.8562 84.4914 93.8562C86.7569 93.8562 88.6866 92.9332 90.1969 91.0035L94.5599 94.9469C93.3853 96.4572 91.875 97.548 90.113 98.387C88.351 99.1421 86.3373 99.5617 84.0719 99.5617C81.8065 99.5617 79.2055 99.0582 77.1918 97.9675Z" fill="#3D5A7F"></path><path d="M97.5804 74.8938H104.377V89.1575L114.445 74.8938H120.906V99.226H114.11V84.9623L104.125 99.226H97.5804V74.8938Z" fill="#3D5A7F"></path><path d="M149.265 74.8938V99.226H142.385V89.7448H132.988V99.226H126.108V74.8938H132.988V84.0394H142.385V74.8938H149.265Z" fill="#3D5A7F"></path><path d="M174.101 80.3476H166.634V99.226H159.837V80.3476H152.37V74.8938H174.101V80.3476Z" fill="#3D5A7F"></path><path d="M196.839 93.94V99.226H177.289V74.8938H196.419V80.1798H184.169V84.2911H194.993V89.4092H184.169V93.8561H196.923L196.839 93.94Z" fill="#3D5A7F"></path><path d="M219.157 88.8219C219.913 89.8288 220.164 91.0874 220.164 92.4298C220.164 93.7723 219.661 95.2826 218.654 96.3733C217.647 97.4641 216.221 98.3031 214.543 98.8904C212.781 99.4778 210.851 99.8134 208.837 99.8134C206.823 99.8134 205.481 99.6456 203.803 99.226C202.125 98.8065 200.447 98.2192 198.937 97.4641L200.95 92.6815C202.041 93.2689 203.216 93.6884 204.474 93.9401C205.733 94.1918 206.907 94.3596 208.082 94.3596C209.257 94.3596 210.851 94.1079 211.858 93.6045C212.865 93.101 213.284 92.4298 213.284 91.5069C213.284 90.5839 212.949 90.2483 212.361 89.9127C211.774 89.5771 210.935 89.4093 209.928 89.4093H203.719V84.375H209.425C210.347 84.375 211.103 84.2072 211.606 83.7877C212.109 83.4521 212.361 82.9487 212.361 82.2774C212.361 81.6062 211.942 80.8511 211.187 80.4315C210.431 80.012 209.341 79.7603 208.166 79.7603C206.991 79.7603 206.068 79.9281 204.894 80.1798C203.719 80.4315 202.712 80.8511 201.621 81.4384L199.608 76.2363C202.209 74.9778 205.062 74.3904 208.166 74.3904C211.27 74.3904 212.026 74.6422 213.704 75.2295C215.382 75.8168 216.724 76.6558 217.815 77.6627C218.822 78.7534 219.325 80.012 219.325 81.4384C219.325 82.8647 218.99 83.6199 218.402 84.4589C217.815 85.3819 216.976 86.0531 215.969 86.5565C217.312 87.06 218.402 87.8151 219.157 88.8219Z" fill="#3D5A7F"></path><path d="M246.594 74.8939V99.2261H239.798V80.3476H232.834L232.666 84.2911C232.582 87.7312 232.247 90.5839 231.827 92.7655C231.408 94.947 230.568 96.625 229.478 97.7997C228.387 98.9744 226.877 99.5617 224.863 99.5617C222.849 99.5617 222.933 99.3939 221.759 99.1422L222.178 93.5206C222.514 93.5206 222.765 93.6045 223.101 93.6045C224.024 93.6045 224.695 93.2689 225.199 92.5137C225.702 91.7586 226.038 90.7518 226.205 89.4932C226.373 88.2346 226.541 86.5566 226.625 84.459L226.961 74.7261H246.594V74.8939Z" fill="#8AA9CF"></path><path d="M268.577 94.5274H258.257L256.327 99.226H249.279L260.019 74.8938H266.815L277.639 99.226H270.507L268.577 94.5274ZM266.563 89.4092L263.459 81.6061L260.354 89.4092H266.647H266.563Z" fill="#8AA9CF"></path><path d="M280.491 74.8938H300.88V80.1798H287.288V84.1232H293.58C296.517 84.1232 298.782 84.7106 300.377 85.9691C301.971 87.2277 302.726 88.9897 302.726 91.339C302.726 93.6883 301.803 95.702 300.041 97.1284C298.279 98.4708 295.846 99.226 292.657 99.226H280.491V74.8938ZM292.154 94.2756C293.329 94.2756 294.168 94.0239 294.839 93.6044C295.426 93.101 295.762 92.5137 295.762 91.5907C295.762 89.9126 294.587 88.9897 292.238 88.9897H287.288V94.2756H292.238H292.154Z" fill="#8AA9CF"></path><path d="M303 115.252H301.335L301.147 114.366C300.463 115.05 299.483 115.453 298.342 115.453C296.113 115.453 294.435 113.936 294.435 111.909C294.435 109.855 296.1 108.338 298.342 108.338C299.469 108.338 300.463 108.727 301.147 109.425L301.335 108.539H303V115.252ZM296.315 111.909C296.315 112.996 297.335 113.788 298.744 113.788C300.167 113.788 301.121 113.023 301.121 111.909C301.121 110.781 300.154 109.989 298.744 109.989C297.335 109.989 296.315 110.795 296.315 111.909Z" fill="#8AA9CF"></path><path d="M287.197 111.909C287.197 112.983 288.15 113.735 289.425 113.735C290.446 113.735 291.197 113.332 291.506 112.634H293.453C293.104 114.339 291.506 115.453 289.425 115.453C287.076 115.453 285.317 113.936 285.317 111.909C285.317 109.855 287.063 108.338 289.425 108.338C291.493 108.338 293.077 109.425 293.439 111.144H291.493C291.184 110.459 290.432 110.043 289.425 110.043C288.136 110.043 287.197 110.822 287.197 111.909Z" fill="#8AA9CF"></path><path d="M284.149 112.365H278.054C278.255 113.332 279.114 113.976 280.242 113.976C281.048 113.976 281.692 113.681 282.041 113.198H283.947C283.437 114.567 282.001 115.453 280.162 115.453C277.853 115.453 276.121 113.936 276.121 111.909C276.121 109.855 277.839 108.338 280.162 108.338C282.457 108.338 284.176 109.774 284.176 111.909C284.176 112.057 284.176 112.218 284.149 112.365ZM278.054 111.426H282.242C282.054 110.473 281.262 109.855 280.162 109.855C279.074 109.855 278.255 110.486 278.054 111.426Z" fill="#8AA9CF"></path><path d="M266.384 115.252V108.539H268.263V111.023H272.653V108.539H274.532V115.252H272.653V112.755H268.263V115.252H266.384Z" fill="#8AA9CF"></path><path d="M261.25 115.453C259.33 115.453 257.813 114.379 257.813 112.916H259.558C259.558 113.641 260.337 114.097 261.331 114.097C262.27 114.097 262.874 113.762 262.874 113.238C262.874 112.688 262.284 112.352 261.183 112.352H260.538V111.278H261.156C262.23 111.278 262.686 110.983 262.686 110.446C262.686 109.949 262.123 109.64 261.25 109.64C260.391 109.64 259.746 110.097 259.746 110.714H258.001C258.001 109.385 259.397 108.351 261.183 108.351C263.197 108.351 264.539 109.117 264.539 110.258C264.539 110.956 264.15 111.466 263.371 111.775C264.271 112.097 264.727 112.661 264.727 113.426C264.727 114.648 263.331 115.453 261.25 115.453Z" fill="#8AA9CF"></path><path d="M255.991 115.252H254.111V111.144L249.6 115.252H248.043V108.539H249.923V112.58L254.42 108.539H255.991V115.252Z" fill="#8AA9CF"></path><path d="M238.68 111.989C238.68 109.184 239.109 108.043 240.103 107.143C241.633 105.76 243.607 106.593 245.204 105.264L246.063 106.539C244.667 108.043 242.909 107.183 241.633 108.231C241.177 108.62 240.895 109.197 240.734 109.909C241.311 109.264 242.143 108.848 243.11 108.848C245.003 108.848 246.479 110.258 246.479 111.989C246.479 114.03 244.936 115.453 242.573 115.453C240.277 115.453 238.68 113.936 238.68 111.989ZM240.559 111.989C240.559 112.983 241.244 113.708 242.573 113.708C243.835 113.708 244.6 112.956 244.6 111.989C244.6 111.063 243.768 110.379 242.573 110.379C241.365 110.379 240.559 111.077 240.559 111.989Z" fill="#8AA9CF"></path><path d="M233.887 112.365H227.792C227.993 113.332 228.852 113.976 229.98 113.976C230.785 113.976 231.43 113.681 231.779 113.198H233.685C233.175 114.567 231.739 115.453 229.899 115.453C227.59 115.453 225.859 113.936 225.859 111.909C225.859 109.855 227.577 108.338 229.899 108.338C232.195 108.338 233.913 109.774 233.913 111.909C233.913 112.057 233.913 112.218 233.887 112.365ZM227.792 111.426H231.98C231.792 110.473 231 109.855 229.899 109.855C228.812 109.855 227.993 110.486 227.792 111.426Z" fill="#8AA9CF"></path><path d="M224.318 115.252H222.438V111.144L217.928 115.252H216.37V108.539H218.25V112.58L222.747 108.539H224.318V115.252Z" fill="#8AA9CF"></path><path d="M210.077 115.252V110.271H207.029V108.539H214.963V110.271H211.956V115.252H210.077Z" fill="#8AA9CF"></path><path d="M205.663 115.252H203.783V111.144L199.273 115.252H197.715V108.539H199.595V112.58L204.092 108.539H205.663V115.252Z" fill="#8AA9CF"></path><path d="M189.03 115.252V108.539H193.125C194.722 108.539 195.823 109.224 195.823 110.311C195.823 110.969 195.34 111.52 194.588 111.815C195.541 112.097 196.132 112.661 196.132 113.386C196.132 114.473 194.884 115.252 193.125 115.252H189.03ZM194.145 110.513C194.145 110.097 193.729 109.774 193.125 109.774H190.722V111.265H193.125C193.675 111.265 194.145 110.956 194.145 110.513ZM194.387 113.238C194.387 112.741 193.904 112.473 193.125 112.473H190.722V114.003H193.125C193.904 114.003 194.387 113.708 194.387 113.238Z" fill="#8AA9CF"></path><path d="M183.897 115.453C181.977 115.453 180.46 114.379 180.46 112.916H182.205C182.205 113.641 182.984 114.097 183.977 114.097C184.917 114.097 185.521 113.762 185.521 113.238C185.521 112.688 184.93 112.352 183.83 112.352H183.185V111.278H183.803C184.877 111.278 185.333 110.983 185.333 110.446C185.333 109.949 184.769 109.64 183.897 109.64C183.038 109.64 182.393 110.097 182.393 110.714H180.648C180.648 109.385 182.044 108.351 183.83 108.351C185.843 108.351 187.186 109.117 187.186 110.258C187.186 110.956 186.796 111.466 186.018 111.775C186.917 112.097 187.374 112.661 187.374 113.426C187.374 114.648 185.978 115.453 183.897 115.453Z" fill="#8AA9CF"></path><path d="M178.603 115.252H176.938L176.75 114.366C176.065 115.05 175.085 115.453 173.944 115.453C171.716 115.453 170.038 113.936 170.038 111.909C170.038 109.855 171.702 108.338 173.944 108.338C175.072 108.338 176.065 108.727 176.75 109.425L176.938 108.539H178.603V115.252ZM171.917 111.909C171.917 112.996 172.938 113.788 174.347 113.788C175.77 113.788 176.723 113.023 176.723 111.909C176.723 110.781 175.757 109.989 174.347 109.989C172.938 109.989 171.917 110.795 171.917 111.909Z" fill="#8AA9CF"></path><path d="M160.314 108.539H161.992L162.166 109.399C162.851 108.727 163.831 108.338 164.959 108.338C167.187 108.338 168.865 109.855 168.865 111.882C168.865 113.936 167.201 115.453 164.959 115.453C163.844 115.453 162.878 115.077 162.193 114.406V117.937H160.314V108.539ZM166.986 111.882C166.986 110.781 165.965 109.989 164.556 109.989C163.146 109.989 162.193 110.768 162.193 111.882C162.193 113.01 163.146 113.788 164.556 113.788C165.992 113.788 166.986 112.983 166.986 111.882Z" fill="#8AA9CF"></path><path d="M155.104 112.365H149.01C149.211 113.332 150.07 113.976 151.198 113.976C152.003 113.976 152.648 113.681 152.997 113.198H154.903C154.393 114.567 152.956 115.453 151.117 115.453C148.808 115.453 147.076 113.936 147.076 111.909C147.076 109.855 148.795 108.338 151.117 108.338C153.413 108.338 155.131 109.774 155.131 111.909C155.131 112.057 155.131 112.218 155.104 112.365ZM149.01 111.426H153.198C153.01 110.473 152.218 109.855 151.117 109.855C150.03 109.855 149.211 110.486 149.01 111.426Z" fill="#8AA9CF"></path><path d="M137.696 111.909C137.696 109.855 139.442 108.338 141.804 108.338C144.194 108.338 145.926 109.774 145.926 111.909C145.926 114.003 144.194 115.453 141.804 115.453C139.455 115.453 137.696 113.936 137.696 111.909ZM139.576 111.909C139.576 112.956 140.529 113.708 141.804 113.708C143.147 113.708 144.046 112.956 144.046 111.909C144.046 110.835 143.147 110.07 141.804 110.07C140.516 110.07 139.576 110.835 139.576 111.909Z" fill="#8AA9CF"></path><path d="M127.959 115.252V108.539H129.839V111.023H134.228V108.539H136.108V115.252H134.228V112.755H129.839V115.252H127.959Z" fill="#8AA9CF"></path><path d="M119.196 111.6V115.252H117.504V108.539H119.411L121.733 112.862L124.082 108.539H125.975V115.252H124.27V111.654L122.431 115.252H121.062L119.196 111.6Z" fill="#8AA9CF"></path><path d="M115.92 112.365H109.825C110.026 113.332 110.885 113.976 112.013 113.976C112.818 113.976 113.463 113.681 113.812 113.198H115.718C115.208 114.567 113.772 115.453 111.932 115.453C109.623 115.453 107.892 113.936 107.892 111.909C107.892 109.855 109.61 108.338 111.932 108.338C114.228 108.338 115.946 109.774 115.946 111.909C115.946 112.057 115.946 112.218 115.92 112.365ZM109.825 111.426H114.013C113.825 110.473 113.033 109.855 111.932 109.855C110.845 109.855 110.026 110.486 109.825 111.426Z" fill="#8AA9CF"></path><path d="M102.197 115.252V110.271H99.15V108.539H107.084V110.271H104.077V115.252H102.197Z" fill="#8AA9CF"></path><path d="M91.9944 111.909C91.9944 112.983 92.9476 113.735 94.2229 113.735C95.2432 113.735 95.995 113.332 96.3038 112.634H98.2503C97.9013 114.339 96.3038 115.453 94.2229 115.453C91.8736 115.453 90.115 113.936 90.115 111.909C90.115 109.855 91.8602 108.338 94.2229 108.338C96.2903 108.338 97.8744 109.425 98.2369 111.144H96.2903C95.9816 110.459 95.2298 110.043 94.2229 110.043C92.9342 110.043 91.9944 110.822 91.9944 111.909Z" fill="#8AA9CF"></path><path d="M88.5742 115.252H86.6947V111.144L82.184 115.252H80.6268V108.539H82.5062V112.58L87.0035 108.539H88.5742V115.252Z" fill="#8AA9CF"></path><path d="M72.8019 111.909C72.8019 112.983 73.755 113.735 75.0304 113.735C76.0506 113.735 76.8024 113.332 77.1112 112.634H79.0578C78.7087 114.339 77.1112 115.453 75.0304 115.453C72.6811 115.453 70.9224 113.936 70.9224 111.909C70.9224 109.855 72.6676 108.338 75.0304 108.338C77.0978 108.338 78.6819 109.425 79.0443 111.144H77.0978C76.789 110.459 76.0372 110.043 75.0304 110.043C73.7416 110.043 72.8019 110.822 72.8019 111.909Z" fill="#8AA9CF"></path></g><defs><clipPath id="clip0_2012_56"><rect width="303" height="199" fill="white"></rect></clipPath></defs></svg>