<?xml version="1.0" encoding="UTF-8"?> <svg xmlns="http://www.w3.org/2000/svg" width="279" height="169" viewBox="0 0 279 169" fill="none"><path d="M156.164 54.1275L160.171 50.2485C161.276 49.1784 161.276 47.4395 160.171 46.3695L127.842 14.8025C126.737 13.7325 124.941 13.7325 123.836 14.8025L119.829 18.6815C118.724 19.7516 118.724 21.4905 119.829 22.5605L132.263 34.7325L125.355 41.4204C124.25 42.4905 124.25 44.2293 125.355 45.2994L129.362 49.1784C130.467 50.2485 132.263 50.2485 133.368 49.1784L140.276 42.4905L152.296 54.2612C153.401 55.3313 155.059 55.1975 156.164 54.1275Z" fill="#3D5A7F"></path><path d="M140.974 97.0338L187.222 51.0704C188.05 50.2423 188.188 49 187.774 48.0338L187.084 47.0676L141.112 0.828169C140.007 -0.276056 138.212 -0.276056 137.108 0.828169L133.104 4.83098C132 5.9352 132 7.72956 133.104 8.83379L173.14 49.138L132.828 89.1662C131.724 90.2704 131.724 92.0648 132.828 93.169L136.832 97.1718C137.936 98.2761 139.731 98.2761 140.835 97.1718L140.974 97.0338Z" fill="#8AA9CF"></path><path d="M127.402 83.1845L130.024 80.6019C130.024 80.6019 130.162 80.6019 130.3 80.466L146.172 64.9709C147.276 63.8835 147.276 62.1165 146.172 61.0291L142.169 57.0874C141.065 56 139.271 56 138.167 57.0874L125.332 69.5922L119.121 63.4757L122.985 59.6699C124.09 58.5825 124.09 56.8155 122.985 55.7282L118.983 51.7864C117.879 50.699 116.085 50.699 114.981 51.7864L111.116 55.5922L104.63 49.2039L117.465 36.699C118.569 35.6117 118.569 33.8447 117.465 32.7573L113.462 28.8155C112.358 27.7282 110.564 27.7282 109.46 28.8155L93.5884 44.3107C93.5884 44.3107 93.5884 44.3107 93.5884 44.4466L90.8281 47.165C89.724 48.2524 89.724 50.0194 90.8281 51.1068L123.123 83.1845C124.228 84.2718 126.022 84.2718 127.126 83.1845H127.402Z" fill="#3D5A7F"></path><path d="M8 142.1C5.6 140.8 3.7 139.2 2.3 136.9C0.900003 134.6 0.200012 132 0.200012 129.1C0.200012 126.2 0.900003 123.6 2.3 121.3C3.7 119 5.6 117.2 8 115.9C10.4 114.6 13.1 114 16.2 114C19.3 114 21.2 114.5 23.4 115.4C25.5 116.3 27.3 117.7 28.7 119.5L23.5 124.2C21.6 121.9 19.3 120.8 16.7 120.8C14.1 120.8 13.7 121.1 12.5 121.8C11.3 122.5 10.3 123.5 9.60001 124.7C8.90001 126 8.60001 127.4 8.60001 129C8.60001 130.6 8.90001 132.1 9.60001 133.3C10.3 134.6 11.2 135.5 12.5 136.2C13.7 136.9 15.1 137.2 16.7 137.2C19.4 137.2 21.7 136.1 23.5 133.8L28.7 138.5C27.3 140.3 25.5 141.6 23.4 142.6C21.3 143.5 18.9 144 16.2 144C13.5 144 10.4 143.4 8 142.1Z" fill="#3D5A7F"></path><path d="M32.3 114.6H40.4V131.6L52.4 114.6H60.1V143.6H52V126.6L40.1 143.6H32.3V114.6Z" fill="#3D5A7F"></path><path d="M93.9 114.6V143.6H85.7V132.3H74.5V143.6H66.3V114.6H74.5V125.5H85.7V114.6H93.9Z" fill="#3D5A7F"></path><path d="M123.5 121.1H114.6V143.6H106.5V121.1H97.6V114.6H123.5V121.1Z" fill="#3D5A7F"></path><path d="M150.6 137.3V143.6H127.3V114.6H150.1V120.9H135.5V125.8H148.4V131.9H135.5V137.2H150.7L150.6 137.3Z" fill="#3D5A7F"></path><path d="M177.2 131.2C178.1 132.4 178.4 133.9 178.4 135.5C178.4 137.1 177.8 138.9 176.6 140.2C175.4 141.5 173.7 142.5 171.7 143.2C169.6 143.9 167.3 144.3 164.9 144.3C162.5 144.3 160.9 144.1 158.9 143.6C156.9 143.1 154.9 142.4 153.1 141.5L155.5 135.8C156.8 136.5 158.2 137 159.7 137.3C161.2 137.6 162.6 137.8 164 137.8C165.4 137.8 167.3 137.5 168.5 136.9C169.7 136.3 170.2 135.5 170.2 134.4C170.2 133.3 169.8 132.9 169.1 132.5C168.4 132.1 167.4 131.9 166.2 131.9H158.8V125.9H165.6C166.7 125.9 167.6 125.7 168.2 125.2C168.8 124.8 169.1 124.2 169.1 123.4C169.1 122.6 168.6 121.7 167.7 121.2C166.8 120.7 165.5 120.4 164.1 120.4C162.7 120.4 161.6 120.6 160.2 120.9C158.8 121.2 157.6 121.7 156.3 122.4L153.9 116.2C157 114.7 160.4 114 164.1 114C167.8 114 168.7 114.3 170.7 115C172.7 115.7 174.3 116.7 175.6 117.9C176.8 119.2 177.4 120.7 177.4 122.4C177.4 124.1 177 125 176.3 126C175.6 127.1 174.6 127.9 173.4 128.5C175 129.1 176.3 130 177.2 131.2Z" fill="#3D5A7F"></path><path d="M209.9 114.6V143.6H201.8V121.1H193.5L193.3 125.8C193.2 129.9 192.8 133.3 192.3 135.9C191.8 138.5 190.8 140.5 189.5 141.9C188.2 143.3 186.4 144 184 144C181.6 144 181.7 143.8 180.3 143.5L180.8 136.8C181.2 136.8 181.5 136.9 181.9 136.9C183 136.9 183.8 136.5 184.4 135.6C185 134.7 185.4 133.5 185.6 132C185.8 130.5 186 128.5 186.1 126L186.5 114.4H209.9V114.6Z" fill="#8AA9CF"></path><path d="M236.1 138H223.8L221.5 143.6H213.1L225.9 114.6H234L246.9 143.6H238.4L236.1 138ZM233.7 131.9L230 122.6L226.3 131.9H233.8H233.7Z" fill="#8AA9CF"></path><path d="M250.3 114.6H274.6V120.9H258.4V125.6H265.9C269.4 125.6 272.1 126.3 274 127.8C275.9 129.3 276.8 131.4 276.8 134.2C276.8 137 275.7 139.4 273.6 141.1C271.5 142.7 268.6 143.6 264.8 143.6H250.3V114.6ZM264.2 137.7C265.6 137.7 266.6 137.4 267.4 136.9C268.1 136.3 268.5 135.6 268.5 134.5C268.5 132.5 267.1 131.4 264.3 131.4H258.4V137.7H264.3H264.2Z" fill="#8AA9CF"></path><path d="M2.768 158.716C2.768 159.996 3.904 160.892 5.424 160.892C6.64 160.892 7.536 160.412 7.904 159.58H10.224C9.808 161.612 7.904 162.94 5.424 162.94C2.624 162.94 0.528 161.132 0.528 158.716C0.528 156.268 2.608 154.46 5.424 154.46C7.888 154.46 9.776 155.756 10.208 157.804H7.888C7.52 156.988 6.624 156.492 5.424 156.492C3.888 156.492 2.768 157.42 2.768 158.716ZM21.566 162.7H19.326V157.804L13.95 162.7H12.094V154.7H14.334V159.516L19.694 154.7H21.566V162.7ZM25.6424 158.716C25.6424 159.996 26.7784 160.892 28.2984 160.892C29.5144 160.892 30.4104 160.412 30.7784 159.58H33.0984C32.6824 161.612 30.7784 162.94 28.2984 162.94C25.4984 162.94 23.4024 161.132 23.4024 158.716C23.4024 156.268 25.4824 154.46 28.2984 154.46C30.7624 154.46 32.6504 155.756 33.0824 157.804H30.7624C30.3944 156.988 29.4984 156.492 28.2984 156.492C26.7624 156.492 25.6424 157.42 25.6424 158.716ZM37.8026 162.7V156.764H34.1706V154.7H43.6266V156.764H40.0426V162.7H37.8026ZM54.1572 159.26H46.8932C47.1332 160.412 48.1572 161.18 49.5012 161.18C50.4612 161.18 51.2292 160.828 51.6452 160.252H53.9172C53.3092 161.884 51.5972 162.94 49.4052 162.94C46.6532 162.94 44.5892 161.132 44.5892 158.716C44.5892 156.268 46.6372 154.46 49.4052 154.46C52.1412 154.46 54.1892 156.172 54.1892 158.716C54.1892 158.892 54.1892 159.084 54.1572 159.26ZM46.8932 158.14H51.8852C51.6612 157.004 50.7172 156.268 49.4052 156.268C48.1092 156.268 47.1332 157.02 46.8932 158.14ZM58.0619 158.348V162.7H56.0459V154.7H58.3179L61.0859 159.852L63.8859 154.7H66.1419V162.7H64.1099V158.412L61.9179 162.7H60.2859L58.0619 158.348ZM68.5065 162.7V154.7H70.7465V157.66H75.9785V154.7H78.2185V162.7H75.9785V159.724H70.7465V162.7H68.5065ZM80.1117 158.716C80.1117 156.268 82.1917 154.46 85.0077 154.46C87.8557 154.46 89.9197 156.172 89.9197 158.716C89.9197 161.212 87.8557 162.94 85.0077 162.94C82.2077 162.94 80.1117 161.132 80.1117 158.716ZM82.3517 158.716C82.3517 159.964 83.4877 160.86 85.0077 160.86C86.6077 160.86 87.6797 159.964 87.6797 158.716C87.6797 157.436 86.6077 156.524 85.0077 156.524C83.4717 156.524 82.3517 157.436 82.3517 158.716ZM100.859 159.26H93.5951C93.8351 160.412 94.8591 161.18 96.2031 161.18C97.1631 161.18 97.9311 160.828 98.3471 160.252H100.619C100.011 161.884 98.2991 162.94 96.1071 162.94C93.3551 162.94 91.2911 161.132 91.2911 158.716C91.2911 156.268 93.3391 154.46 96.1071 154.46C98.8431 154.46 100.891 156.172 100.891 158.716C100.891 158.892 100.891 159.084 100.859 159.26ZM93.5951 158.14H98.5871C98.3631 157.004 97.4191 156.268 96.1071 156.268C94.8111 156.268 93.8351 157.02 93.5951 158.14ZM107.068 154.7H109.068L109.276 155.724C110.092 154.924 111.26 154.46 112.604 154.46C115.26 154.46 117.26 156.268 117.26 158.684C117.26 161.132 115.276 162.94 112.604 162.94C111.276 162.94 110.124 162.492 109.308 161.692V165.9H107.068V154.7ZM115.02 158.684C115.02 157.372 113.804 156.428 112.124 156.428C110.444 156.428 109.308 157.356 109.308 158.684C109.308 160.028 110.444 160.956 112.124 160.956C113.836 160.956 115.02 159.996 115.02 158.684ZM128.865 162.7H126.881L126.657 161.644C125.841 162.46 124.673 162.94 123.313 162.94C120.657 162.94 118.657 161.132 118.657 158.716C118.657 156.268 120.641 154.46 123.313 154.46C124.657 154.46 125.841 154.924 126.657 155.756L126.881 154.7H128.865V162.7ZM120.897 158.716C120.897 160.012 122.113 160.956 123.793 160.956C125.489 160.956 126.625 160.044 126.625 158.716C126.625 157.372 125.473 156.428 123.793 156.428C122.113 156.428 120.897 157.388 120.897 158.716ZM135.175 162.94C132.887 162.94 131.079 161.66 131.079 159.916H133.159C133.159 160.78 134.087 161.324 135.271 161.324C136.391 161.324 137.111 160.924 137.111 160.3C137.111 159.644 136.407 159.244 135.095 159.244H134.327V157.964H135.063C136.343 157.964 136.887 157.612 136.887 156.972C136.887 156.38 136.215 156.012 135.175 156.012C134.151 156.012 133.383 156.556 133.383 157.292H131.303C131.303 155.708 132.967 154.476 135.095 154.476C137.495 154.476 139.095 155.388 139.095 156.748C139.095 157.58 138.631 158.188 137.703 158.556C138.775 158.94 139.319 159.612 139.319 160.524C139.319 161.98 137.655 162.94 135.175 162.94ZM141.293 162.7V154.7H146.173C148.077 154.7 149.389 155.516 149.389 156.812C149.389 157.596 148.813 158.252 147.917 158.604C149.053 158.94 149.757 159.612 149.757 160.476C149.757 161.772 148.269 162.7 146.173 162.7H141.293ZM147.389 157.052C147.389 156.556 146.893 156.172 146.173 156.172H143.309V157.948H146.173C146.829 157.948 147.389 157.58 147.389 157.052ZM147.677 160.3C147.677 159.708 147.101 159.388 146.173 159.388H143.309V161.212H146.173C147.101 161.212 147.677 160.86 147.677 160.3ZM161.117 162.7H158.877V157.804L153.501 162.7H151.645V154.7H153.885V159.516L159.245 154.7H161.117V162.7ZM166.377 162.7V156.764H162.745V154.7H172.201V156.764H168.617V162.7H166.377ZM183.35 162.7H181.11V157.804L175.734 162.7H173.878V154.7H176.118V159.516L181.478 154.7H183.35V162.7ZM194.755 159.26H187.491C187.731 160.412 188.755 161.18 190.099 161.18C191.059 161.18 191.827 160.828 192.243 160.252H194.515C193.907 161.884 192.195 162.94 190.003 162.94C187.251 162.94 185.187 161.132 185.187 158.716C185.187 156.268 187.235 154.46 190.003 154.46C192.739 154.46 194.787 156.172 194.787 158.716C194.787 158.892 194.787 159.084 194.755 159.26ZM187.491 158.14H192.483C192.259 157.004 191.315 156.268 190.003 156.268C188.707 156.268 187.731 157.02 187.491 158.14ZM200.467 158.812C200.467 155.468 200.979 154.108 202.163 153.036C203.987 151.388 206.339 152.38 208.243 150.796L209.267 152.316C207.603 154.108 205.507 153.084 203.987 154.332C203.443 154.796 203.107 155.484 202.915 156.332C203.603 155.564 204.595 155.068 205.747 155.068C208.003 155.068 209.763 156.748 209.763 158.812C209.763 161.244 207.923 162.94 205.107 162.94C202.371 162.94 200.467 161.132 200.467 158.812ZM202.707 158.812C202.707 159.996 203.523 160.86 205.107 160.86C206.611 160.86 207.523 159.964 207.523 158.812C207.523 157.708 206.531 156.892 205.107 156.892C203.667 156.892 202.707 157.724 202.707 158.812ZM221.099 162.7H218.859V157.804L213.483 162.7H211.627V154.7H213.867V159.516L219.227 154.7H221.099V162.7ZM227.368 162.94C225.08 162.94 223.272 161.66 223.272 159.916H225.352C225.352 160.78 226.28 161.324 227.464 161.324C228.584 161.324 229.304 160.924 229.304 160.3C229.304 159.644 228.6 159.244 227.288 159.244H226.52V157.964H227.256C228.536 157.964 229.08 157.612 229.08 156.972C229.08 156.38 228.408 156.012 227.368 156.012C226.344 156.012 225.576 156.556 225.576 157.292H223.496C223.496 155.708 225.16 154.476 227.288 154.476C229.688 154.476 231.288 155.388 231.288 156.748C231.288 157.58 230.824 158.188 229.896 158.556C230.968 158.94 231.512 159.612 231.512 160.524C231.512 161.98 229.848 162.94 227.368 162.94ZM233.486 162.7V154.7H235.726V157.66H240.958V154.7H243.198V162.7H240.958V159.724H235.726V162.7H233.486ZM254.659 159.26H247.395C247.635 160.412 248.659 161.18 250.003 161.18C250.963 161.18 251.731 160.828 252.147 160.252H254.419C253.811 161.884 252.099 162.94 249.907 162.94C247.155 162.94 245.091 161.132 245.091 158.716C245.091 156.268 247.139 154.46 249.907 154.46C252.643 154.46 254.691 156.172 254.691 158.716C254.691 158.892 254.691 159.084 254.659 159.26ZM247.395 158.14H252.387C252.163 157.004 251.219 156.268 249.907 156.268C248.611 156.268 247.635 157.02 247.395 158.14ZM258.292 158.716C258.292 159.996 259.428 160.892 260.948 160.892C262.164 160.892 263.06 160.412 263.428 159.58H265.748C265.332 161.612 263.428 162.94 260.948 162.94C258.148 162.94 256.052 161.132 256.052 158.716C256.052 156.268 258.132 154.46 260.948 154.46C263.412 154.46 265.3 155.756 265.732 157.804H263.412C263.044 156.988 262.148 156.492 260.948 156.492C259.412 156.492 258.292 157.42 258.292 158.716ZM277.127 162.7H275.143L274.919 161.644C274.103 162.46 272.935 162.94 271.575 162.94C268.919 162.94 266.919 161.132 266.919 158.716C266.919 156.268 268.903 154.46 271.575 154.46C272.919 154.46 274.103 154.924 274.919 155.756L275.143 154.7H277.127V162.7ZM269.159 158.716C269.159 160.012 270.375 160.956 272.055 160.956C273.751 160.956 274.887 160.044 274.887 158.716C274.887 157.372 273.735 156.428 272.055 156.428C270.375 156.428 269.159 157.388 269.159 158.716Z" fill="#8AA9CF"></path></svg>